<svg width="1415" height="396" viewBox="0 0 1415 396" fill="none" xmlns="http://www.w3.org/2000/svg">
<path d="M0.310373 189.122C0.310373 189.122 342.599 349.817 460.734 341.502C578.869 333.187 665.386 259.196 796.823 248.449C928.26 237.702 1073 341.502 1167.1 347.336C1261.21 353.171 1382 313.5 1382 313.5" stroke="#A97C50" stroke-width="3" stroke-dasharray="25 25"/>
<g clip-path="url(#clip0_240_1137)">
<path d="M251.211 74.4308C217.099 73.9687 200.599 65.9232 193.692 104.943C193.692 104.943 180.238 109.445 179.609 120.061C177.869 149.961 229.191 163.285 250.503 159.865C271.845 156.426 253.66 101.23 251.211 74.4308Z" fill="#F15A29"/>
<g style="mix-blend-mode:multiply">
<path d="M214.898 130.11C221.502 111.404 214.137 91.8962 222.396 73.7335C233.601 73.8807 251.211 74.4308 251.211 74.4308C253.66 101.23 271.845 156.426 250.503 159.865C235.778 162.221 206.799 156.612 190.799 143.081C201.472 143.377 211.105 140.845 214.87 130.129L214.898 130.11Z" fill="#BCBEC0"/>
</g>
<g style="mix-blend-mode:multiply">
<path d="M238.996 132.605C246.89 129.84 253.476 124.721 258.725 118.445C262.012 139.173 262.667 157.894 250.508 159.841C231.863 162.847 190.396 153.04 181.331 130.603C199.692 137.855 220.541 139.076 238.996 132.605Z" fill="#BCBEC0"/>
</g>
<g style="mix-blend-mode:multiply">
<path d="M237.662 74.0596C245.039 74.2484 251.211 74.4312 251.211 74.4312C253.95 109.019 279.352 169.955 234.988 159.918C225.63 132.594 227.621 101.516 237.687 74.0642L237.662 74.0596Z" fill="#BCBEC0"/>
</g>
<g style="mix-blend-mode:multiply">
<path d="M204.669 78.7676C207.114 76.1082 210.069 74.1973 213.545 73.7629C216.711 73.3692 251.216 74.407 251.216 74.407C252.386 87.1705 250.751 102.9 246.38 116.252C244.016 96.3518 241.586 82.2955 204.669 78.7676Z" fill="#BCBEC0"/>
</g>
<path d="M200.002 109.383C200.666 109.46 200.792 108.408 200.1 108.35C200.051 108.341 195.924 107.849 194.145 104.68C193.805 104.089 192.876 104.612 193.239 105.207C195.303 108.857 199.799 109.394 199.998 109.407L200.002 109.383Z" fill="black"/>
<g style="mix-blend-mode:multiply">
<path d="M193.4 114.848L198.396 108.849C199.564 107.346 202.069 108.828 201.329 110.588L198.43 117.841C198.098 118.653 197.133 118.968 196.389 118.525C195.38 117.756 191.92 116.667 193.4 114.848ZM195.596 116.896C197.96 118.326 199.224 116.191 196.85 114.81C194.486 113.38 193.222 115.515 195.596 116.896Z" fill="#A7A9AC"/>
</g>
<path d="M196.578 116.885L198.172 109.232C198.528 107.373 201.418 107.502 201.556 109.405L202.402 117.176C202.487 118.043 201.796 118.762 200.925 118.72C199.66 118.502 196.114 119.173 196.554 116.88L196.578 116.885ZM199.469 117.664C202.229 117.818 202.352 115.339 199.583 115.234C196.824 115.08 196.7 117.559 199.469 117.664Z" fill="black"/>
<path d="M196.901 116.771L198.495 109.118C198.851 107.26 201.742 107.389 201.879 109.292L202.725 117.063C202.81 117.93 202.12 118.649 201.248 118.607C199.983 118.389 196.437 119.06 196.877 116.767L196.901 116.771ZM199.788 117.575C202.547 117.729 202.671 115.25 199.902 115.145C197.142 114.991 197.018 117.47 199.788 117.575Z" fill="#E6E7E8"/>
<g style="mix-blend-mode:multiply">
<path d="M198.162 113.735L199.143 109.143C199.356 108.032 201.153 108.101 201.259 109.248L201.793 113.931C201.846 114.441 201.41 114.883 200.887 114.858C200.135 114.714 197.893 115.135 198.186 113.739L198.162 113.735Z" fill="#D1D3D4"/>
</g>
<g style="mix-blend-mode:multiply">
<path d="M201.283 114.233L200.749 109.551C200.695 108.915 199.975 108.476 199.357 108.683C199.893 107.985 201.184 108.333 201.235 109.244L201.769 113.926C201.812 114.36 201.539 114.733 201.119 114.828C201.248 114.677 201.314 114.465 201.278 114.257L201.283 114.233Z" fill="#939598"/>
</g>
<path d="M208.298 86.5719C208.962 86.6491 209.088 85.5972 208.396 85.5394C208.347 85.5301 204.22 85.0386 202.44 81.8692C202.101 81.2786 201.172 81.801 201.535 82.3963C203.599 86.0459 208.095 86.5829 208.294 86.596L208.298 86.5719Z" fill="black"/>
<g style="mix-blend-mode:multiply">
<path d="M201.696 92.0378L206.692 86.0383C207.86 84.5355 210.365 86.0171 209.625 87.7773L206.726 95.0299C206.394 95.8422 205.429 96.1577 204.685 95.7145C203.676 94.9455 200.216 93.8563 201.696 92.0378ZM203.891 94.0857C206.256 95.5154 207.52 93.3802 205.146 91.9988C202.782 90.5692 201.518 92.7044 203.891 94.0857Z" fill="#A7A9AC"/>
</g>
<path d="M204.878 94.0498L206.472 86.3967C206.829 84.5379 209.719 84.6669 209.856 86.5704L210.703 94.3412C210.788 95.2084 210.097 95.9269 209.226 95.8848C207.961 95.6672 204.414 96.3384 204.854 94.0452L204.878 94.0498ZM207.765 94.8538C210.525 95.0078 210.648 92.5287 207.879 92.423C205.119 92.269 204.996 94.7481 207.765 94.8538Z" fill="black"/>
<path d="M205.197 93.9608L206.791 86.3077C207.147 84.449 210.038 84.5779 210.175 86.4814L211.021 94.2522C211.106 95.1194 210.416 95.8379 209.544 95.7959C208.279 95.5782 204.733 96.2494 205.173 93.9562L205.197 93.9608ZM208.083 94.7648C210.843 94.9188 210.967 92.4398 208.198 92.334C205.438 92.18 205.314 94.6591 208.083 94.7648Z" fill="#E6E7E8"/>
<g style="mix-blend-mode:multiply">
<path d="M206.458 90.924L207.439 86.332C207.652 85.2216 209.448 85.2908 209.555 86.4375L210.089 91.1201C210.142 91.6308 209.705 92.0726 209.183 92.0474C208.431 91.9032 206.189 92.3241 206.482 90.9287L206.458 90.924Z" fill="#D1D3D4"/>
</g>
<g style="mix-blend-mode:multiply">
<path d="M209.603 91.4273L209.069 86.7447C209.015 86.1087 208.295 85.6702 207.677 85.8771C208.213 85.179 209.504 85.5267 209.555 86.4376L210.089 91.1201C210.132 91.5537 209.859 91.9269 209.439 92.0215C209.568 91.8711 209.634 91.6585 209.599 91.4514L209.603 91.4273Z" fill="#939598"/>
</g>
<path d="M250.26 75.1998L214.652 78.6053C206.64 79.3709 199.746 72.9929 199.904 64.9643C200.055 57.7601 205.885 51.9959 213.119 51.8819L259.572 51.1572L250.236 75.1951L250.26 75.1998Z" fill="#A97C50"/>
<path d="M200.629 63.8019C199.256 81.3082 225.096 82.5859 227.476 66.2488C228.532 50.1332 202.322 46.8573 200.629 63.8019Z" fill="#3C2415"/>
<path d="M211.046 76.3118C206.717 75.5566 201.6 73.674 200.521 69.2122C205.221 74.844 216.61 79.006 220.636 68.8912C225.716 59.1788 213.874 55.8059 208.063 57.144C204.095 58.8355 204.726 65.2386 206.431 68.1434C207.358 69.5977 210.097 70.1231 212.635 69.3337C214.361 69.1141 218.012 65.9351 215.377 63.4274C213.323 62.0823 209.765 64.7786 209.378 63.6531C208.562 62.2704 217.668 59.7373 217.445 65.3509C217.8 70.5747 208.142 72.9767 205.376 68.7921C203.787 66.3348 203.421 62.085 204.567 59.1262C206.4 53.371 217.194 55.2664 221.355 59.6436C226.472 65.4556 218.673 78.0753 211.021 76.3071L211.046 76.3118Z" fill="#A97C50"/>
<g style="mix-blend-mode:multiply">
<path d="M227.319 70.4734C236.169 70.3191 244.986 69.1573 253.432 67.0483L250.26 75.1996L217.828 78.2886C221.912 77.0446 225.502 74.1794 227.319 70.4734Z" fill="#D1D3D4"/>
</g>
<g style="mix-blend-mode:multiply">
<path d="M230.006 51.6174L259.595 51.1617L250.26 75.1996L233.365 76.814C237.369 68.1217 235.808 58.3117 230.006 51.6174Z" fill="#BCBEC0"/>
</g>
<path d="M382.082 192.614C394.214 192.514 405.306 190.888 404.283 187.838C401.96 184.489 381.936 195.865 360.034 183.755C347.518 176.949 338.872 164.253 334.305 146.008C334.09 145.166 333.234 144.651 332.388 144.864C331.543 145.078 331.028 145.93 331.243 146.772C337.69 174.738 356.588 192.154 382.077 192.639L382.082 192.614Z" fill="black"/>
<path d="M234.201 94.594C213.514 213.437 390.429 247.35 415.159 129.307C435.846 10.4641 258.931 -23.4486 234.201 94.594Z" fill="#2590FE"/>
<path d="M328.686 134.168C331.28 133.614 333.875 133.186 336.541 133.172C340.611 132.651 345.443 131.701 349.502 130.978C352.166 122.329 349.756 124.545 358.444 121.306C371.779 117.156 367.774 118.516 378.76 124.127L384.136 121.779L388.733 118.381C387.161 110.722 387.839 113.48 393.73 116.437L397.243 115.284L397.29 106.783L389.462 105.282C389.389 105.268 389.292 105.249 389.228 105.187L386.026 102.495C385.159 104.131 384.733 106.352 383.116 107.443C382.163 107.435 381.184 107.298 380.221 107.338C379.926 107.307 379.701 107.038 379.732 106.744L380.306 100.872L376.227 96.4607C376.187 96.4031 376.124 96.3409 376.114 96.2638L374.609 91.7955C373.026 90.6158 370.744 89.8027 369.871 87.9334C369.871 87.9334 369.871 87.9334 369.867 87.9576C368.498 85.7928 366.696 83.3949 364.42 82.1575C357.693 83.1695 360.742 84.305 355.781 79.2488C355.449 77.1828 356.52 74.6103 355.52 72.6165C353.92 71.1332 356.665 67.8305 357.407 66.3209C357.482 66.0601 365.954 62.5045 366.132 62.3634C366.296 62.2948 366.485 62.3561 366.583 62.5001L371.887 70.8757L379.842 73.553L383.427 69.5355C380.314 67.6869 376.889 66.1539 374.263 63.5979C373.405 61.7815 373.687 59.6581 373.68 57.7297C373.659 56.9246 382.155 62.2836 382.352 62.1713C382.425 62.1853 391.837 60.9373 391.905 60.9754C392.661 61.0954 401.896 62.9922 402.344 62.7528C411.896 77.6746 417.174 95.3556 416.801 113.805C415.833 113.744 413.627 112.795 412.719 112.421C412.28 112.612 411.692 107.294 411.575 107.121C410.79 107.02 409.49 106.721 408.992 107.351C408.899 108.885 409.745 110.499 410.324 111.937C410.961 112.284 405.891 116.968 405.811 117.253L405.211 119.465C405.494 119.695 399.459 123.117 399.354 123.272C399.289 123.61 394.197 122.383 393.965 122.414L386.949 125.322L381.214 128.627C381.037 128.893 377.705 128.054 377.424 128.075C376.955 133.141 380.016 138.408 378.016 143.331C375.868 145.622 373.398 147.626 371.21 149.859C369.538 151.765 367.427 153.338 365.02 154.227C364.147 154.586 363.156 154.12 362.773 155.198C361.744 157.679 360.926 160.5 359.752 162.953C357.957 166.287 360.363 167.5 359.86 170.907C359.502 173.692 356.919 174.973 357.643 178.141C357.659 178.319 357.599 178.633 357.518 178.792C356.632 180.399 355.632 181.809 354.639 183.321C355.351 184.458 354.019 185.504 353.523 186.385C352.399 187.922 351.522 189.48 350.273 191.018C349.493 192.069 348.021 193.063 346.682 192.181C345.603 191.649 344.337 191.306 343.587 190.236C342.553 188.686 343.723 186.908 344.306 185.443C345.339 182.938 346.686 180.369 347.361 177.77C346.206 176.848 343.153 174.685 341.892 173.792C341.604 173.587 341.615 173.139 341.904 172.944C343.4 171.955 345.981 169.897 344.185 168.126C337.736 161.658 338.592 167.153 338.154 156.858C329.81 152.804 334.264 155.786 333.519 146.308C333.515 144.23 332.178 143.472 331.221 141.912C329.933 139.588 329.161 137.062 328.495 134.507C328.47 134.377 328.546 134.241 328.676 134.216L328.686 134.168ZM324.359 44.5892L325.099 40.7269C320.699 34.4518 318.781 35.4103 326.743 34.3848L331.742 33.7419C331.819 33.7317 331.892 33.7456 331.984 33.7884C333.518 34.8334 336.642 36.8844 338.205 37.9099C340.887 37.5486 343.568 36.9366 346.213 36.643C347.99 37.8598 351.568 40.2982 353.349 41.4909L356.552 38.5513C356.614 38.4881 356.696 38.4538 356.773 38.4436C359.007 38.1964 363.523 37.7111 365.752 37.488C366.033 37.4668 366.276 37.6386 366.322 37.9227L367.614 44.027C367.818 44.1413 373.175 45.1688 373.09 45.478L375.114 48.4191C375.149 48.5008 377.383 51.6574 377.233 51.6537C377.426 52.7419 375.169 52.459 374.599 52.6752C370.665 51.5701 365.121 49.5555 361.267 48.2907L357.042 53.2866L354.374 59.2069C353.618 59.7377 350.326 58.4304 349.159 58.3567L344.388 57.2913C343.324 55.7608 342.246 54.1774 341.172 52.5699C338.534 50.8625 334.772 48.3387 332.124 46.5543C330.978 46.1092 323.971 45.6912 324.334 44.5846L324.359 44.5892ZM242.17 134.666C242.179 134.617 242.592 133.12 242.606 133.047C242.527 132.407 246.401 133.7 246.958 133.807C252.036 141.264 251.03 138.518 249.913 147.614C247.066 145.165 243.855 142.647 241.242 139.894C240.768 139.352 242.085 135.5 242.174 134.641L242.17 134.666ZM268.979 38.796L280.116 42.9598C280.213 42.9784 289.014 38.7601 288.864 39.4072C290.175 40.4345 296.005 45.282 297.28 46.1022C298.41 46.8945 301.371 49.0142 302.544 49.84C302.962 50.0203 302.816 52.2198 302.901 52.5615C303.283 53.0602 297.934 55.6631 297.733 55.9249L297.138 61.517L307.945 63.34C308.091 63.3679 308.227 63.4441 308.306 63.5593L311.423 68.1367C311.55 68.2612 313.647 75.6712 313.716 75.8346C313.815 76.1039 313.605 76.414 313.319 76.4594L306.848 77.4454C306.746 77.451 306.645 77.4565 306.557 77.3896L298.148 72.6231L286.155 71.3485C286.155 71.3485 284.161 75.8465 284.185 75.8511C284.133 75.9913 283.969 76.06 283.804 76.0033L273.438 72.0124L271.58 78.814C271.677 78.8326 282.899 80.9853 282.987 81.0522L285.589 83.2033C296.917 77.9931 292.293 78.2573 304.635 80.5998C307.642 82.4781 313.266 86.5605 315.78 89.0449L318.985 94.7403C319.024 94.7979 319.034 94.8749 319.021 94.9474C319.021 94.9474 317.845 101.204 317.841 101.228C317.808 101.397 318.115 107.788 318.015 107.919L314.647 115.257C314.629 115.353 314.537 115.436 314.431 115.466L305.532 118.889C305.248 119.06 290.786 116.111 290.506 116.132L288.174 120.165C288.098 120.3 283.345 125.295 283.245 125.426L282.534 135.025C282.521 135.223 278.231 147.239 278.198 147.408C278.422 147.552 273.701 150.55 273.629 150.662C273.449 151.077 273.632 153.791 272.999 153.944L267.052 156.783C266.421 157.713 258.325 146.6 257.942 146.501C257.859 146.41 257.81 146.275 257.789 146.121L257.25 138.71L255.027 131.701L252.228 129.262C252.076 129.133 251.988 128.941 252.001 128.743L252.594 113.99L244.29 100.033C244.211 99.9181 244.191 99.764 244.218 99.6192C243.712 98.1956 255.842 101.248 256.16 101.034L264.128 88.4468L255.709 96.9679C255.555 97.1137 255.299 97.1396 255.123 97.0058C254.962 96.7997 242.977 87.618 242.902 87.3534C242.838 87.1658 242.923 86.982 243.112 86.918L254.377 82.9473L256.599 78.4429L250.667 78.5814L239.481 81.7415L237.808 81.4207C243.906 64.0447 254.963 49.3722 269.036 38.757L268.979 38.796Z" fill="#5DDDDB"/>
<path opacity="0.2" d="M400.672 139.067C417.459 65.0515 330.457 3.23676 265.907 41.1851C371.627 -39.2466 483.064 124.564 368.966 192.476C384.9 179.365 396.49 160.865 400.672 139.067Z" fill="white"/>
<path d="M287.312 264.435C287.603 264.491 287.892 264.296 287.923 264.001C287.487 263.392 294.979 218.703 293.468 218.589C293.177 218.533 292.908 218.756 292.882 219.027C293.274 219.602 285.907 264.291 287.312 264.435Z" fill="black"/>
<path d="M313.536 235.803C313.876 235.868 314.207 235.581 314.146 235.244L312.969 222.78C312.92 222.12 311.851 222.19 311.92 222.879L313.097 235.343C313.128 235.575 313.294 235.757 313.512 235.798L313.536 235.803Z" fill="black"/>
<path d="M314.726 223.968L299.359 222.597L267.525 213.662L268.039 210.982L315.337 220.782L314.726 223.968Z" fill="black"/>
<path d="M315.022 220.721C309.458 222.482 270.747 211.927 268.548 211.08C268.548 211.08 269.167 206.544 292.05 211.309C304.399 213.878 315.85 216.8 315.027 220.697L315.022 220.721Z" fill="#8B5644"/>
<path d="M315.022 220.721C309.458 222.482 270.747 211.927 268.548 211.08C268.548 211.08 269.514 206.961 291.712 213.071C303.888 216.408 308.102 214.613 315.022 220.721Z" fill="#684133"/>
<path d="M329.51 280.914C331.255 281.249 331.928 278.525 330.201 277.968C268.243 255.896 283.74 264.976 327.466 226.462C328.961 225.347 327.26 222.818 325.713 224.073L280.4 260.381C279.982 260.726 279.754 261.258 279.847 261.826C279.919 262.366 280.281 262.836 280.776 263.006C281.091 263.066 329.234 280.911 329.51 280.914Z" fill="black"/>
<path d="M280.742 267.379C281.542 267.007 281.481 268.372 282.243 268.067C282.407 267.999 282.557 268.003 282.722 268.059C282.882 268.14 283.009 268.264 283.054 268.423C283.308 269.198 284.311 268.289 284.555 269.112C284.774 269.804 285.5 269.168 285.885 269.517C286.08 269.679 286.093 270.007 286.35 270.107C286.598 270.254 286.843 270.026 287.085 270.073C287.628 270.127 287.621 271.076 288.277 270.802C288.953 270.556 288.973 271.236 289.353 271.484C289.726 271.63 290.178 271.241 290.472 271.673C290.813 272.515 291.129 272.05 291.759 272.17C292.148 272.37 292.207 273.107 292.786 272.843C293.775 272.532 293.405 273.938 294.548 273.481C294.722 273.49 294.912 273.551 295.005 273.719C295.342 274.585 295.691 274.076 296.292 274.216C296.681 274.416 296.74 275.153 297.319 274.889C298.308 274.578 297.938 275.984 299.057 275.523C299.666 275.489 299.637 276.56 300.326 276.242C300.63 276.1 301.023 276.275 301.137 276.597C301.232 276.891 301.582 277.033 301.832 276.906C302.628 276.558 302.571 277.899 303.333 277.594C304.009 277.348 304.005 278.023 304.409 278.276C304.73 278.438 305.046 278.098 305.358 278.308C305.635 278.436 305.609 278.832 305.915 278.94C306.236 279.102 306.552 278.762 306.864 278.972C307.141 279.101 307.115 279.496 307.421 279.605C307.872 279.741 308.406 279.318 308.658 279.967C308.877 280.66 309.602 280.023 309.988 280.372C310.599 281.641 311.038 280.399 311.631 281.238C311.827 282.052 312.561 281.367 312.99 281.749C313.616 283.071 314.156 281.698 314.692 282.702C314.787 282.995 315.137 283.137 315.387 283.01C316.183 282.662 316.126 284.003 316.888 283.698C317.564 283.453 317.56 284.128 317.964 284.38C318.415 284.517 318.949 284.094 319.201 284.743C319.385 285.354 320.001 284.896 320.394 285.072C320.7 285.181 320.69 285.629 320.995 285.738C321.292 285.895 321.604 285.579 321.9 285.736C322.23 285.849 322.196 286.293 322.501 286.402C322.798 286.559 323.11 286.243 323.406 286.4C323.795 286.6 323.855 287.337 324.433 287.073C325.084 286.822 325.129 287.507 325.509 287.755C325.96 287.891 326.494 287.468 326.746 288.117C327.024 288.896 327.983 287.954 328.247 288.806C328.432 289.417 329.018 288.979 329.416 289.13C330.14 289.419 329.642 290.575 328.928 290.238C328.573 290.12 328.637 289.656 328.302 289.567C328.001 289.434 327.713 289.754 327.422 289.573C327.091 289.46 327.146 289.045 326.845 288.912C326.529 288.726 326.236 289.071 325.92 288.885C325.59 288.772 325.645 288.356 325.343 288.224C324.897 288.063 324.281 288.52 324.087 287.832C323.873 287.241 323.311 287.684 322.913 287.532C322.559 287.414 322.622 286.951 322.288 286.862C321.986 286.729 321.699 287.049 321.407 286.868C321.077 286.754 321.131 286.339 320.83 286.207C320.408 286.05 319.744 286.499 319.573 285.815C319.311 285.089 318.258 285.989 318.072 285.127C318.018 285.016 317.939 284.901 317.823 284.854C317.507 284.668 317.214 285.012 316.898 284.827C316.568 284.713 316.623 284.298 316.321 284.165C316.005 283.98 315.713 284.324 315.397 284.138C315.067 284.025 315.121 283.61 314.82 283.477C314.504 283.291 314.212 283.635 313.895 283.45C313.541 283.332 313.605 282.868 313.27 282.779C312.969 282.646 312.681 282.967 312.389 282.785C312.035 282.667 312.099 282.204 311.764 282.115C311.463 281.982 311.175 282.302 310.884 282.121C310.529 282.003 310.593 281.54 310.258 281.45C309.957 281.318 309.698 281.618 309.378 281.457C309.047 281.343 309.102 280.928 308.801 280.795C308.485 280.61 308.192 280.954 307.876 280.768C307.522 280.65 307.586 280.187 307.251 280.098C306.95 279.965 306.662 280.285 306.37 280.104C306.016 279.986 306.08 279.523 305.745 279.433C305.444 279.301 305.156 279.621 304.864 279.44C304.51 279.322 304.574 278.858 304.239 278.769C303.938 278.636 303.65 278.957 303.358 278.775C303.004 278.657 303.068 278.194 302.733 278.105C302.432 277.972 302.144 278.292 301.852 278.111C301.498 277.993 301.562 277.53 301.227 277.44C300.926 277.308 300.638 277.628 300.346 277.447C299.992 277.329 300.056 276.865 299.721 276.776C299.604 276.729 299.479 276.73 299.344 276.779C298.587 277.184 298.546 275.825 297.842 276.09C297.201 276.418 297.103 275.623 296.714 275.423C296.412 275.291 296.125 275.611 295.833 275.43C295.503 275.316 295.557 274.901 295.256 274.768C294.94 274.583 294.648 274.927 294.332 274.741C294.001 274.628 294.056 274.213 293.755 274.08C293.439 273.894 293.146 274.239 292.83 274.053C292.5 273.939 292.555 273.524 292.253 273.392C291.937 273.206 291.645 273.55 291.329 273.364C290.999 273.251 291.053 272.836 290.752 272.703C290.436 272.517 290.144 272.862 289.827 272.676C289.473 272.558 289.537 272.095 289.202 272.005C288.901 271.872 288.613 272.193 288.321 272.012C287.967 271.894 288.031 271.43 287.696 271.341C287.395 271.208 287.107 271.528 286.816 271.347C286.461 271.229 286.525 270.766 286.19 270.677C285.889 270.544 285.601 270.864 285.31 270.683C284.955 270.565 285.019 270.102 284.684 270.012C284.383 269.88 284.124 270.18 283.804 270.019C283.449 269.901 283.513 269.437 283.178 269.348C282.877 269.215 282.589 269.535 282.298 269.354C281.967 269.241 282.022 268.826 281.721 268.693C281.405 268.507 281.112 268.852 280.796 268.666C280.466 268.552 280.525 268.113 280.195 268L280.404 267.565C280.545 267.617 280.695 267.62 280.806 267.567L280.742 267.379Z" fill="black"/>
<path d="M345.294 262.693L338.93 261.022L329.253 260.116L335.421 263.853L345.294 262.693Z" fill="#414042"/>
<path d="M334.896 264.102L344.849 265.011L345.294 262.693L335.341 261.785L334.896 264.102Z" fill="#FFB617"/>
<path d="M328.808 262.434L334.896 264.102L335.34 261.785L329.253 260.116L328.808 262.434Z" fill="black"/>
<path d="M334.321 281.511C334.999 281.642 335.667 281.044 335.55 280.346L332.986 262.009C332.815 260.675 330.702 260.945 330.898 262.284C331.299 262.812 332.83 282.076 334.297 281.507L334.321 281.511Z" fill="url(#paint0_linear_240_1137)"/>
<path d="M331.205 261.467C331.675 261.507 332.06 261.856 332.142 262.348L334.706 280.684C334.747 280.993 334.638 281.297 334.418 281.53C333.943 281.514 333.567 281.117 333.505 280.654L330.941 262.318C330.9 262.009 331.009 261.705 331.2 261.491L331.205 261.467Z" fill="black"/>
<path d="M333.216 267.885C345.754 268.413 346.594 292.2 332.871 291.82C320.332 291.292 319.492 267.505 333.216 267.885ZM327.229 275.12C328.745 275.862 331.922 278.949 332.556 275.517C332.486 274.177 334.033 269.518 331.422 269.768C329.402 270.081 324.687 272.781 327.229 275.12ZM334.799 271.943C334.765 273.563 333.331 278.418 336.305 278.113L339.59 277.492C343.347 276.51 335.621 267.395 334.799 271.943ZM341.517 281.465C341.66 278.489 338.2 280.153 336.667 280.285C333.813 281.014 336.578 285.073 337.157 286.636C339.319 289.778 341.369 283.414 341.517 281.465ZM335.53 287.65C334.769 286.378 333.549 281.213 331.309 283.587C330.463 284.851 327.205 287.429 329.381 288.923C331.119 290.082 336.515 291.293 335.526 287.674L335.53 287.65ZM327.676 284.842C328.795 283.33 331.991 280.689 329.464 278.928L326.423 277.093C322.749 275.287 324.803 287.895 327.652 284.837L327.676 284.842Z" fill="black"/>
<path d="M275.689 261.755L343.604 283.292C345.674 276.431 341.907 268.951 334.692 267.392L283.828 256.008C279.686 255.063 276.931 258.164 275.669 261.726L275.689 261.755Z" fill="#760046"/>
<path opacity="0.5" d="M343.011 281.927C344.238 275.53 340.129 269.311 333.743 267.886C332.418 267.982 278.961 254.524 279.116 256.856C280.188 253.232 332.163 267.608 334.692 267.392C341.883 268.946 345.674 276.431 343.604 283.292L342.798 283.038L343.011 281.927Z" fill="white"/>
<path d="M283.512 256.473C290.574 257.778 289.565 270.373 281.903 269.054C274.825 267.696 275.719 255.178 283.512 256.473Z" fill="black"/>
<path d="M277.245 262.028C276.563 267.153 283.616 269.032 284.526 263.5C285.26 258.235 278.134 256.342 277.245 262.028Z" fill="url(#paint1_linear_240_1137)"/>
<path d="M277.531 262.108C277.021 265.815 282.138 267.172 282.781 263.165C283.349 259.42 278.139 258.02 277.531 262.108Z" fill="url(#paint2_linear_240_1137)"/>
<path d="M281.317 223.766C325.64 217.902 336.795 294.55 292.229 300.767C247.906 306.631 236.751 229.983 281.317 223.766ZM255.568 265.904C262.461 309.748 320.286 302.27 314.788 257.968C307.895 214.123 250.069 221.601 255.568 265.904Z" fill="#231F20"/>
<path d="M314.788 257.968C311.83 236.051 290.325 221.615 271.727 231.187C272.686 229.068 273.903 227.049 275.29 225.188C305.091 213.936 331.513 253.968 317.548 281.047C315.241 281.28 312.866 281.35 310.454 281.213C314.274 274.663 315.989 266.507 314.764 257.963L314.788 257.968Z" fill="#414042"/>
<path d="M320.258 254.737C318.467 255.295 316.51 255.67 314.416 255.844C311.907 243.249 303.416 233.411 292.96 229.754C295.487 228.762 298.487 228.186 301.748 228.086C310.777 233.422 317.78 243.024 320.258 254.737Z" fill="#808285"/>
<path d="M282.319 227.062C323.126 221.575 332.445 292.99 292.022 298.701C251.215 304.187 241.895 232.772 282.319 227.062ZM258.665 266.398C264.982 307.479 317.709 299.724 312.767 258.806C306.45 217.725 253.723 225.48 258.665 266.398Z" fill="black"/>
<path d="M280.411 226.921C321.257 221.492 331.115 292.459 290.314 298.173C249.492 303.606 239.61 232.634 280.411 226.921ZM256.735 265.978C263.078 306.663 316.134 299.422 311.11 258.538C304.767 217.853 251.711 225.094 256.735 265.978Z" fill="url(#paint3_linear_240_1137)"/>
<path d="M280.464 224.678C323.945 218.879 334.452 294.451 291.017 300.535C247.536 306.335 237.029 230.762 280.464 224.678ZM255.247 266.268C261.991 309.583 318.478 301.873 313.131 258.351C306.388 215.035 249.901 222.745 255.247 266.268Z" fill="black"/>
<path d="M320.667 277.491C334.951 229.099 270.389 194.014 250.056 247.477C252.332 248.189 254.722 246.996 255.535 244.724C277.315 201.399 329.139 236.343 316.645 276.319L320.638 277.51L320.667 277.491Z" fill="#EC008C"/>
<g style="mix-blend-mode:multiply">
<path d="M279.484 221.012C308.654 216.846 329.413 251.288 320.667 277.491L316.674 276.299C326.159 248.21 298.166 212.307 269.075 229.026C268.402 227.821 267.844 226.537 267.43 225.157C271.129 223.038 275.196 221.616 279.484 221.012Z" fill="#BCBEC0"/>
</g>
<path d="M329.674 282.548C331.564 282.911 332.28 280.095 330.412 279.486C262.989 256.04 280.149 265.489 326.978 225.993C328.613 224.805 326.669 222.23 325.069 223.5L276.3 260.796C275.857 261.137 275.62 261.717 275.712 262.285C275.805 262.854 276.191 263.328 276.73 263.532C277.093 263.602 329.369 282.564 329.693 282.577L329.674 282.548Z" fill="#F466BA"/>
<g style="mix-blend-mode:multiply">
<path d="M275.965 262.934C276.21 262.18 324.672 225.701 325.16 225.119C325.867 224.578 326.894 224.725 327.409 225.45C277.903 267.635 262.032 256.182 331.337 281.74C330.979 282.422 330.14 282.737 329.441 282.453C328.715 281.913 276.356 263.91 275.97 262.91L275.965 262.934Z" fill="#BCBEC0"/>
</g>
<g style="mix-blend-mode:multiply">
<path d="M319.093 228.059L325.045 223.494C326.645 222.225 328.594 224.776 326.954 225.988L320.329 231.049C319.364 230.314 319.065 229.255 319.069 228.054L319.093 228.059Z" fill="#A7A9AC"/>
</g>
<path d="M279.067 264.055C280.295 263.94 281.191 262.81 280.948 261.587C280.479 258.919 276.073 259.751 276.643 262.413C276.856 263.53 277.946 264.265 279.067 264.055Z" fill="#BF8920"/>
<path d="M276.643 262.413C277.1 264.878 280.467 264.223 279.957 261.773C279.525 259.312 276.133 259.963 276.643 262.413Z" fill="#FFB72B"/>
<g style="mix-blend-mode:multiply">
<path d="M277.041 262.039C276.934 263.645 279.184 264.102 279.387 262.389C279.614 260.681 277.122 260.178 277.041 262.039Z" fill="black"/>
</g>
<path d="M329.552 283.05C365.844 284.731 347.806 243.178 388.125 238.924C389.276 238.82 390.148 237.81 390.042 236.664C389.935 235.517 388.921 234.647 387.77 234.751C371.806 236.094 358.183 246.72 353.092 261.862C350.759 271.801 342.273 279.358 331.908 279.022L327.345 214.125C327.262 212.983 326.277 212.093 325.102 212.193C323.956 212.273 323.059 213.278 323.166 214.425L327.857 281.148C327.923 282.111 328.631 282.873 329.552 283.05Z" fill="#F466BA"/>
<g style="mix-blend-mode:multiply">
<path d="M357.082 263.203C354.054 275.711 342.623 284.606 329.552 283.05C328.631 282.873 327.928 282.087 327.857 281.148L323.233 215.514C323.579 215.154 324.051 214.92 324.588 214.872C325.758 214.797 324.761 215.281 324.843 216.423L329.407 281.32C339.809 281.588 350.402 274.836 352.578 264.541C357.669 249.4 371.268 238.769 387.256 237.431C388.097 237.367 388.846 237.786 389.244 238.463C374.727 240.258 361.729 248.802 357.086 263.178L357.082 263.203Z" fill="#BCBEC0"/>
</g>
<g style="mix-blend-mode:multiply">
<path d="M378.64 236.629C381.564 235.663 384.627 235.024 387.79 234.78C390.502 234.525 390.868 238.774 388.145 238.953C384.876 239.227 381.722 239.948 378.721 241.049C377.371 239.314 377.785 237.942 378.64 236.629Z" fill="#A7A9AC"/>
</g>
<g style="mix-blend-mode:multiply">
<path d="M325.126 212.198C326.297 212.122 327.287 212.987 327.364 214.154L328.486 230.186C326.985 230.674 325.585 230.506 324.264 230.052L323.166 214.425C323.084 213.282 323.956 212.273 325.126 212.198Z" fill="#A7A9AC"/>
</g>
<path d="M329.356 258.66C357.655 264.013 361.681 232.024 388.476 233.56C390.457 233.715 390.671 230.502 388.647 230.44C361.072 228.253 357.046 260.117 329.944 255.594C327.99 255.169 327.359 258.327 329.351 258.684L329.356 258.66Z" fill="#F466BA"/>
<g style="mix-blend-mode:multiply">
<path d="M329.629 257.236C356.555 262.676 362.635 226.526 389.676 233.065C376.869 233.411 368.431 238.625 360.635 246.515C352.971 253.454 341.795 263.374 328.23 257.718C328.58 257.335 329.116 257.162 329.649 257.264L329.629 257.236Z" fill="#BCBEC0"/>
</g>
<g style="mix-blend-mode:multiply">
<path d="M379.12 231.24C380.623 231.003 390.355 228.74 390.094 232.069C390.053 232.937 389.323 233.598 388.451 233.556C384.917 233.378 381.804 233.757 378.965 234.539C378.369 233.323 378.379 232.224 379.091 231.259L379.12 231.24Z" fill="#A7A9AC"/>
</g>
<path d="M323.868 278.756C322.783 287.032 334.162 290.066 335.624 281.136C336.823 272.656 325.283 269.542 323.868 278.756Z" fill="url(#paint4_linear_240_1137)"/>
<path d="M324.372 278.877C323.553 284.852 331.799 287.06 332.837 280.601C333.679 274.506 325.389 272.265 324.372 278.877Z" fill="url(#paint5_linear_240_1137)"/>
<path d="M327.825 283.018C332.177 282.602 331.326 276.032 327.011 276.781C325.14 276.972 323.76 278.66 324.13 280.533C324.454 282.247 326.129 283.344 327.825 283.018Z" fill="#603913"/>
<path d="M324.13 280.533C324.889 284.307 329.899 283.341 329.193 279.552C328.435 275.777 323.425 276.743 324.13 280.533Z" fill="#8B5E3C"/>
<g style="mix-blend-mode:multiply">
<path d="M324.72 279.945C324.552 282.391 328.009 283.104 328.311 280.484C328.685 277.878 324.865 277.095 324.72 279.945Z" fill="black"/>
</g>
<path d="M328.32 298.906C328.999 299.036 329.666 298.439 329.549 297.74L326.985 279.404C326.814 278.069 324.701 278.34 324.897 279.679C325.298 280.206 326.83 299.471 328.296 298.901L328.32 298.906Z" fill="url(#paint6_linear_240_1137)"/>
<path d="M325.18 278.857C325.65 278.897 326.035 279.246 326.117 279.738L328.681 298.074C328.722 298.383 328.613 298.687 328.393 298.92C327.918 298.904 327.542 298.507 327.48 298.044L324.916 279.708C324.875 279.399 324.984 279.095 325.176 278.881L325.18 278.857Z" fill="black"/>
<path d="M331.435 297.601L325.1 295.911L315.418 295.03L321.592 298.742L331.435 297.601Z" fill="#414042"/>
<path d="M321.062 299.015L330.991 299.919L331.435 297.601L321.507 296.698L321.062 299.015Z" fill="#FFB617"/>
<path d="M314.974 297.347L321.062 299.015L321.507 296.698L315.419 295.03L314.974 297.347Z" fill="black"/>
<path d="M323.446 223.839L328.058 223.898C328.809 223.916 329.403 223.305 329.417 222.581C329.434 221.834 328.819 221.24 328.093 221.226L323.481 221.167C322.731 221.149 322.136 221.76 322.123 222.484C322.105 223.231 322.72 223.824 323.446 223.839Z" fill="black"/>
<path d="M310.031 212.681C307.824 218.289 340.149 227.418 341.191 221.461C343.398 215.853 311.068 206.748 310.031 212.681Z" fill="#3C2415"/>
<path d="M341.769 218.318C339.402 212.709 332.961 209.346 320.357 206.928C316.532 206.695 311.389 205.208 309.582 210.042C308.734 212.107 309.872 214.427 311.854 214.707C311.854 214.707 323.537 214.195 332.489 219.141L334.829 220.566C335.953 221.257 343.739 222.851 341.773 218.294L341.769 218.318Z" fill="#8B5644"/>
<path d="M310.173 208.929C312.165 205.356 317.143 206.787 320.357 206.928C329.567 208.044 337.002 212.774 337.002 212.774C339.138 213.559 344.619 219.966 340.681 221.238C333.544 203.426 317.688 215.601 310.168 208.953L310.173 208.929Z" fill="#A27869"/>
<path d="M334.669 220.485C329.946 217.202 323.258 215.518 318.525 215.036C315.596 210.92 335.747 212.508 334.669 220.485Z" fill="#684133"/>
<path d="M310.634 235.997C311.071 236.081 311.448 235.553 311.169 235.174L301.532 221.487C301.375 221.257 301.035 221.191 300.804 221.347C300.574 221.503 300.509 221.841 300.666 222.072C301.001 222.286 310.131 236.001 310.615 235.968L310.634 235.997Z" fill="black"/>
<path d="M278.102 262.668C278.417 262.729 278.715 262.485 278.722 262.186C278.228 261.616 281.458 215.959 279.944 215.994C279.644 215.987 279.399 216.215 279.396 216.49C279.798 217.017 276.814 262.571 278.102 262.668Z" fill="black"/>
<g style="mix-blend-mode:multiply">
<path d="M287.102 151.169C289.445 143.409 238.291 129.341 222.563 98.0177C220.344 93.3374 224.44 90.7193 227.901 88.53C230.869 93.7546 292.122 148.052 291.766 149.911C290.34 157.346 247.774 167.15 220.238 152.708L222.511 148.589C237.641 150.415 285.657 155.947 287.102 151.169Z" fill="#A7A9AC"/>
</g>
<path d="M286.883 148.774C287.434 147.078 239.376 109.928 224.271 97.4945C221.971 95.6016 221.796 92.1893 223.863 90.0581C225.864 88.0141 229.154 88.0197 231.151 90.0546C244.76 104.003 292.611 146.945 292.296 148.586C291.446 155.506 240.943 164.639 219.773 151.468C218.503 149.047 220.623 146.25 223.304 146.814C245.62 151.395 285.443 153.003 286.863 148.745L286.883 148.774Z" fill="#D7DF23"/>
<path d="M225.183 93.2645C224.546 96.3209 229.37 97.2462 229.909 94.1712C230.546 91.1147 225.723 90.1895 225.183 93.2645Z" fill="black"/>
<path d="M221.147 149.804C220.706 151.972 224.124 152.628 224.492 150.446C224.933 148.278 221.515 147.622 221.147 149.804Z" fill="black"/>
<g style="mix-blend-mode:multiply">
<path d="M285.558 147.819C286.42 147.91 287.051 148.681 286.962 149.54C284.54 173.302 290.63 190.939 307.956 202.146C288.436 200.279 280.989 169.543 283.837 149.191C283.927 148.332 284.7 147.705 285.563 147.795L285.558 147.819Z" fill="#D1D3D4"/>
</g>
<path d="M338.94 190.621C351.018 189.359 361.884 186.688 360.566 183.732C357.921 180.622 339.099 193.855 316.131 183.893C303.031 178.301 293.182 166.501 286.883 148.774C286.585 147.966 285.691 147.519 284.88 147.814C284.07 148.109 283.623 149 283.92 149.808C293.046 177.036 313.515 192.551 338.94 190.621Z" fill="black"/>
<path d="M397.462 295.576C398.685 296.011 413.843 247.912 414.435 247.575C414.539 247.295 414.391 247.016 414.11 246.912C412.716 246.319 397.709 294.547 397.069 294.875C396.96 295.179 397.151 295.491 397.466 295.552L397.462 295.576Z" fill="black"/>
<path d="M398.615 194.985L410.742 196.085C414.549 196.415 415.08 190.635 411.254 190.277L399.126 189.177C397.518 189.044 396.086 190.22 395.955 191.822C395.823 193.424 397.007 194.852 398.615 194.985Z" fill="#754C29"/>
<path d="M413.894 193.411C413.782 195.042 412.345 196.243 410.718 196.081L398.59 194.981C396.958 194.843 395.755 193.386 395.94 191.769L413.898 193.387L413.894 193.411Z" fill="#3C2415"/>
<path d="M395.955 191.822C395.625 195.638 401.432 196.151 401.786 192.34C402.111 188.548 396.309 188.011 395.955 191.822Z" fill="#603913"/>
<path d="M396.695 191.889C396.41 194.687 400.808 195.081 401.02 192.268C401.306 189.47 396.908 189.077 396.695 191.889Z" fill="black"/>
<path d="M388.327 206.302C394.599 205.703 398.486 201.943 396.789 195.461C396.589 192.444 400.113 194.772 400.445 192.258C400.251 188.291 392.576 191.224 393.677 195.965C394.926 200.985 392.744 202.269 388.209 203.25C386.629 203.623 386.738 206.072 388.327 206.302Z" fill="#F466BA"/>
<g style="mix-blend-mode:multiply">
<path d="M389.647 204.528C392.929 204.056 395.85 201.538 395.2 197.984C394.312 194.886 396.826 191.339 400.411 191.776C400.537 194.528 398.191 193.002 397.199 194.113C396.854 194.472 396.708 194.97 396.785 195.485C398.462 201.939 394.728 205.552 388.545 206.343C388.398 205.539 388.851 204.75 389.672 204.532L389.647 204.528Z" fill="#BCBEC0"/>
</g>
<path d="M397.412 297.143C398.959 297.465 400.373 295.859 399.779 294.369L397.136 287.054C395.313 275.993 395.433 266.981 395.521 259.714C395.397 248.829 396.27 242.314 388.541 238.854C385.915 238.525 385.34 242.569 387.947 242.995C391.785 246.308 391.296 250.82 391.31 259.657C391.21 267.121 391.111 276.413 393.025 287.917C393.051 288.047 393.076 288.177 393.13 288.288L395.837 295.79C396.1 296.516 396.709 297.009 397.412 297.143Z" fill="#3B0023"/>
<path d="M394.975 285.614C403.855 287.267 402.579 303.09 392.968 301.447C384.073 299.74 385.185 283.986 394.975 285.614Z" fill="black"/>
<path d="M387.075 292.607C386.216 299.05 395.088 301.403 396.218 294.462C397.158 287.859 388.17 285.459 387.075 292.607Z" fill="url(#paint7_linear_240_1137)"/>
<path d="M387.458 292.706C386.816 297.363 393.248 299.073 394.037 294.043C394.741 289.323 388.188 287.59 387.458 292.706Z" fill="url(#paint8_linear_240_1137)"/>
<path d="M392.48 252.248C439.354 246.048 451.167 327.127 404.024 333.676C357.15 339.876 345.337 258.797 392.48 252.248ZM365.251 296.856C372.539 343.229 433.69 335.312 427.874 288.471C420.587 242.098 359.436 250.014 365.251 296.856Z" fill="#231F20"/>
<path d="M427.874 288.471C424.756 265.297 401.98 250.016 382.322 260.135C383.333 257.877 384.617 255.77 386.1 253.802C417.609 241.902 445.574 284.232 430.805 312.884C428.344 313.138 425.847 313.185 423.306 313.072C427.321 306.159 429.158 297.501 427.874 288.471Z" fill="#414042"/>
<path d="M433.662 285.026C431.789 285.618 429.702 286.018 427.482 286.193C424.836 272.871 415.851 262.463 404.783 258.588C407.47 257.552 410.629 256.931 414.069 256.815C423.618 262.451 431.018 272.606 433.637 285.021L433.662 285.026Z" fill="#808285"/>
<path d="M393.541 255.756C436.722 249.948 446.58 325.496 403.807 331.532C360.627 337.339 350.768 261.791 393.541 255.756ZM368.522 297.358C375.189 340.809 430.99 332.617 425.752 289.315C419.085 245.864 363.279 254.08 368.522 297.358Z" fill="black"/>
<path d="M391.536 255.596C434.732 249.842 445.181 324.928 402.031 330.966C358.835 336.72 348.386 261.635 391.536 255.596ZM366.471 296.914C373.169 339.946 429.294 332.292 423.993 289.053C417.296 246.022 361.171 253.676 366.471 296.914Z" fill="url(#paint9_linear_240_1137)"/>
<path d="M391.583 253.253C437.564 247.131 448.694 327.053 402.755 333.482C356.775 339.604 345.645 259.682 391.583 253.253ZM364.902 297.239C372.044 343.058 431.785 334.897 426.14 288.864C418.998 243.044 359.257 251.206 364.902 297.239Z" fill="black"/>
<path d="M358.127 288.281C360.708 288.451 362.855 286.56 363.083 283.926C365.918 267.576 377.499 255.281 392.413 253.387C412.937 250.541 419.146 267.951 425.308 262.425C401.917 234.887 359.403 252.285 358.127 288.281Z" fill="#EC008C"/>
<path opacity="0.5" d="M391.557 249.068C403.966 247.393 416.276 252.258 425.331 262.429C424.875 262.842 424.34 263.14 423.776 263.332C408.471 245.655 380.869 245.966 366.859 263.977C372.854 255.916 381.517 250.445 391.528 249.087L391.557 249.068Z" fill="white"/>
<g style="mix-blend-mode:multiply">
<path d="M389.899 249.326C388.614 250.656 387.739 252.465 387.35 254.493C359.994 263.611 367.175 289.316 358.126 288.281C359.497 268.296 372.447 252.535 389.899 249.326Z" fill="#BCBEC0"/>
</g>
<path d="M386.325 204.291C386.292 201.581 390.585 201.604 390.517 204.319L390.499 208.47L386.293 208.389L386.301 204.286L386.325 204.291Z" fill="black"/>
<path d="M390.524 208.475L390.445 227.881L386.238 227.8L386.317 208.394L390.524 208.475Z" fill="#F466BA"/>
<path d="M383.481 241.913C383.983 240.607 384.976 239.621 386.22 239.159L386.263 227.805L390.469 227.886C390.193 229.059 391.114 242.075 389.724 242.51C388.981 243.368 387.896 242.609 387.414 243.418C381.92 259.483 384.446 278.013 392.542 293.056C393.363 294.54 391.899 296.411 390.284 296.051C379.514 282.372 377.91 258.113 383.505 241.917L383.481 241.913Z" fill="#F466BA"/>
<g style="mix-blend-mode:multiply">
<path d="M382.816 243.937C383.392 241.72 384.112 239.931 386.196 239.155C386.763 238.162 384.983 201.856 387.51 202.441C387.842 202.805 388.049 203.295 388.044 203.845L387.901 240.483C386.52 241.92 385.194 240.84 384.342 244.63C379.57 260.334 382.206 278.033 390.022 292.572C390.553 293.6 390.133 294.871 389.078 295.395C380.408 279.941 377.75 260.785 382.816 243.937Z" fill="#BCBEC0"/>
</g>
<path d="M389.292 295.461C390.52 295.346 391.415 294.216 391.172 292.993C390.704 290.325 386.298 291.157 386.867 293.819C387.08 294.936 388.171 295.671 389.292 295.461Z" fill="#BF8920"/>
<path d="M386.892 293.824C387.349 296.289 390.716 295.634 390.206 293.183C389.749 290.718 386.382 291.373 386.892 293.824Z" fill="#FFB72B"/>
<g style="mix-blend-mode:multiply">
<path d="M387.266 293.445C387.159 295.051 389.408 295.508 389.611 293.795C389.838 292.087 387.346 291.584 387.266 293.445Z" fill="black"/>
</g>
<path d="M383.382 205.353L387.212 206.088C389.195 206.493 389.821 203.36 387.805 202.998C382.007 202.436 376.341 199.747 375.444 193.419C374.987 190.428 372.558 188.16 369.541 187.906L363.211 187.368C362.344 187.302 361.594 187.934 361.505 188.792C361.44 189.656 362.075 190.404 362.938 190.494L369.268 191.032C374.688 191.597 370.43 202.393 383.387 205.329L383.382 205.353Z" fill="#F466BA"/>
<g style="mix-blend-mode:multiply">
<path d="M361.503 189.067C361.567 188.729 368.228 189.507 368.557 189.495C378.832 191.215 369.726 202.658 386.821 204.586C387.524 204.721 388.038 205.32 388.082 206.004C380.839 206.166 373.288 201.514 372.307 193.918C372.076 192.372 370.818 191.205 369.239 191.052L362.909 190.513C362.119 190.437 361.533 189.824 361.474 189.087L361.503 189.067Z" fill="#BCBEC0"/>
</g>
<path d="M355.534 191.226L367.662 192.326C369.27 192.459 370.702 191.283 370.833 189.681C370.964 188.079 369.781 186.651 368.173 186.518L356.045 185.418C354.438 185.284 353.006 186.461 352.874 188.063C352.743 189.665 353.926 191.093 355.534 191.226Z" fill="#754C29"/>
<path d="M370.838 189.657C370.727 191.287 369.29 192.488 367.662 192.326L355.535 191.226C353.903 191.088 352.7 189.631 352.884 188.015L370.843 189.633L370.838 189.657Z" fill="#3C2415"/>
<path d="M352.875 188.063C352.545 191.879 358.352 192.392 358.706 188.581C359.031 184.789 353.229 184.252 352.875 188.063Z" fill="#603913"/>
<path d="M353.96 188.171C353.709 190.526 357.438 190.866 357.616 188.497C357.867 186.142 354.138 185.802 353.96 188.171Z" fill="#8B5E3C"/>
<path d="M386.038 229.238L390.65 229.297C391.401 229.316 391.996 228.704 392.009 227.981C392.026 227.234 391.411 226.64 390.685 226.626L386.073 226.567C385.323 226.548 384.728 227.16 384.715 227.883C384.697 228.631 385.312 229.224 386.038 229.238Z" fill="black"/>
<path d="M385.997 209.934L390.609 209.993C391.359 210.012 391.954 209.4 391.967 208.677C391.985 207.929 391.37 207.336 390.644 207.322L386.032 207.263C385.281 207.244 384.686 207.856 384.673 208.579C384.656 209.326 385.271 209.92 385.997 209.934Z" fill="black"/>
<path d="M388.47 293.851C389.799 294.256 400.758 246.428 401.336 246.038C401.391 245.749 401.243 245.47 400.957 245.39C399.54 244.918 388.669 292.813 388.067 293.198C388.011 293.488 388.179 293.795 388.47 293.851Z" fill="black"/>
<path d="M400.024 242.658L404.486 219.662L376.899 216.097L376.721 240.34L398.333 245.838L421.262 248.534L400.024 242.658Z" fill="#1E120B"/>
<path d="M427.332 228.55L421.731 249.1L399.63 244.71L404.481 219.687L427.332 228.55ZM402.061 241.472L402.957 241.644L403.198 240.389L402.277 240.212C402.282 240.188 402.036 241.468 402.036 241.468L402.061 241.472ZM421.648 242.852L420.567 242.595L420.281 243.691L421.363 243.949L421.673 242.857L421.648 242.852ZM421.799 242.33L422.113 241.214L421.036 240.933L420.722 242.049L421.803 242.306L421.799 242.33ZM422.239 240.688L422.559 239.548L421.458 239.261L421.134 240.426L422.235 240.712L422.239 240.688ZM422.709 239.026L423.033 237.862L421.936 237.551L421.608 238.74L422.709 239.026ZM423.183 237.34L423.512 236.152L422.396 235.812L422.063 237.025L423.159 237.335L423.183 237.34ZM423.657 235.654L423.99 234.441L422.874 234.102L422.537 235.339L423.653 235.678L423.657 235.654ZM424.141 233.92L424.483 232.659L423.348 232.291L423.005 233.552L424.121 233.891L424.141 233.92ZM424.624 232.185L424.971 230.9L423.84 230.508L423.493 231.793L424.629 232.161L424.624 232.185ZM421.188 244.466L420.131 244.213L419.85 245.285L420.916 245.49L421.217 244.446L421.188 244.466ZM418.162 243.209L418.452 242.089L417.25 241.808L416.955 242.953L418.158 243.234L418.162 243.209ZM416.829 243.479L416.538 244.6L417.726 244.828C417.721 244.852 418.007 243.755 418.007 243.755L416.829 243.479ZM418.607 241.543L418.902 240.398L417.704 240.093L417.405 241.262L418.607 241.543ZM419.053 239.876L419.357 238.683L418.139 238.35L417.835 239.543L419.057 239.852L419.053 239.876ZM419.507 238.162L419.841 236.949L418.623 236.615L418.314 237.833L419.532 238.166L419.507 238.162ZM419.962 236.447L420.3 235.21L419.063 234.848L418.744 236.113L419.986 236.451L419.962 236.447ZM420.426 234.684L420.768 233.423L419.536 233.036L419.213 234.326L420.45 234.688L420.426 234.684ZM420.89 232.921L421.237 231.636L419.985 231.22L419.657 232.534L420.914 232.925L420.89 232.921ZM421.363 231.109L421.719 229.776L420.467 229.361L420.111 230.694L421.363 231.109ZM416.349 243.362L415.122 243.077L414.827 244.221L416.063 244.459C416.058 244.483 416.349 243.362 416.349 243.362ZM416.479 242.812L416.774 241.667L415.523 241.377L415.224 242.546L416.451 242.831L416.479 242.812ZM416.925 241.145L417.224 239.976L415.978 239.662L415.674 240.855L416.925 241.145ZM417.355 239.426L417.659 238.233L416.393 237.89L416.084 239.107L417.331 239.421L417.355 239.426ZM417.81 237.711L418.123 236.469L416.862 236.102L416.548 237.344L417.814 237.687L417.81 237.711ZM418.249 235.943L418.567 234.678L417.282 234.306L416.959 235.595L418.22 235.963L418.249 235.943ZM418.713 234.18L419.036 232.89L417.755 232.494L417.427 233.808L418.713 234.18ZM418.237 230.635L417.905 231.973L419.186 232.369L419.538 231.06L418.237 230.635ZM419.659 230.557L420.02 229.2L418.724 228.751L418.388 230.113L419.688 230.538L419.659 230.557ZM414.613 242.979L413.337 242.684L413.067 243.834L414.327 244.076C414.322 244.1 414.617 242.955 414.617 242.955L414.613 242.979ZM414.744 242.428L415.043 241.26L413.768 240.965L413.488 242.163L414.763 242.457L414.744 242.428ZM415.198 240.714L415.502 239.521L414.207 239.197L413.899 240.414L415.194 240.738L415.198 240.714ZM415.629 238.994L415.937 237.777L414.647 237.429L414.334 238.671L415.629 238.994ZM416.064 237.251L416.382 235.985L415.072 235.609L414.754 236.874L416.068 237.227L416.064 237.251ZM416.508 235.459L416.831 234.169L415.496 233.788L415.169 235.102L416.479 235.478L416.508 235.459ZM416.413 230.06L416.076 231.422L417.406 231.827L417.738 230.489L416.388 230.055L416.413 230.06ZM417.883 229.991L418.225 228.605L416.88 228.147L416.539 229.533L417.888 229.967L417.883 229.991ZM415.979 231.928L415.647 233.266L416.976 233.672L417.304 232.358L415.974 231.953L415.979 231.928ZM412.857 242.567L411.534 242.263L411.258 243.437L412.567 243.688C412.562 243.712 412.833 242.563 412.833 242.563L412.857 242.567ZM412.988 242.017L413.292 240.824L411.973 240.495L411.693 241.693L413.017 241.997L412.988 242.017ZM413.394 240.293L413.703 239.075L412.36 238.743L412.07 239.989L413.39 240.317L413.394 240.293ZM413.829 238.549L414.143 237.308L412.804 236.951L412.51 238.221L413.853 238.554L413.829 238.549ZM414.273 236.757L414.592 235.492L413.233 235.106L412.935 236.4L414.298 236.762L414.273 236.757ZM408.657 227.521L408.375 228.993C408.35 228.989 409.894 229.46 409.894 229.46L410.224 227.997L408.686 227.501L408.657 227.521ZM410.317 227.514L410.653 226.026L409.095 225.502L408.803 227.023C408.779 227.018 410.317 227.514 410.317 227.514ZM408.22 229.539L407.942 230.987C407.918 230.983 409.441 231.425 409.441 231.425L409.763 230.01L408.22 229.539ZM410.788 227.679L412.278 228.165L412.609 226.702L411.099 226.187L410.764 227.674L410.788 227.679ZM410.691 228.186L410.364 229.625L411.859 230.087L412.181 228.672L410.691 228.186ZM410.238 230.152L409.917 231.566L411.392 232L411.709 230.609L410.238 230.152ZM409.815 232.098L409.498 233.488L410.953 233.893L411.265 232.526L409.79 232.093L409.815 232.098ZM409.396 234.019L409.088 235.362L410.548 235.742L410.851 234.424L409.396 234.019ZM412.778 228.311L414.219 228.788L414.57 227.353L413.109 226.848L412.778 228.311ZM412.651 228.838L412.33 230.252L413.752 230.7L414.093 229.314L412.651 228.838ZM412.204 230.779L411.887 232.17L413.313 232.593L413.65 231.231L412.228 230.784L412.204 230.779ZM411.765 232.672L411.457 234.014L412.864 234.409L413.172 233.067L411.746 232.643L411.765 232.672ZM411.327 234.565L411.023 235.883L412.435 236.254L412.733 234.96L411.327 234.565ZM414.69 228.953L416.088 229.397L416.433 227.986L415.04 227.519L414.695 228.929L414.69 228.953ZM414.568 229.456L414.251 230.846L415.625 231.285L415.961 229.923L414.564 229.48L414.568 229.456ZM414.101 231.368L413.789 232.735L415.167 233.149L415.499 231.811L414.125 231.373L414.101 231.368ZM413.667 233.237L413.364 234.555L414.722 234.941L415.05 233.627L413.672 233.213L413.667 233.237ZM411.025 242.166L409.652 241.852L409.372 243.05L410.73 243.31C410.725 243.334 411 242.161 411 242.161L411.025 242.166ZM411.155 241.615L411.44 240.393L410.072 240.056L409.788 241.278L411.16 241.591L411.155 241.615ZM411.571 239.843L411.86 238.597L410.468 238.255L410.174 239.525L411.542 239.862L411.571 239.843ZM412.01 238.075L412.304 236.805L410.917 236.439L410.618 237.733L412.01 238.075ZM409.148 241.73L407.727 241.408L407.491 242.639C407.467 242.634 408.868 242.928 408.868 242.928L409.148 241.73ZM409.279 241.18L409.568 239.934L408.152 239.587L407.863 240.833L409.283 241.156L409.279 241.18ZM409.694 239.408L409.988 238.137L408.552 237.762L408.254 239.056L409.67 239.403L409.694 239.408ZM410.119 237.587L410.417 236.293L408.957 235.912L408.654 237.231L410.09 237.606L410.119 237.587ZM407.223 241.286L405.754 240.954L405.513 242.209C405.489 242.205 406.938 242.508 406.938 242.508L407.223 241.286ZM407.354 240.736L407.647 239.465L406.183 239.109L405.937 240.389C405.913 240.384 407.382 240.716 407.382 240.716L407.354 240.736ZM407.749 238.934L408.048 237.64L406.564 237.255L406.309 238.583C406.285 238.578 407.749 238.934 407.749 238.934ZM405.245 240.857L403.727 240.515L403.481 241.795L404.98 242.107L405.22 240.852L405.245 240.857ZM406.666 236.724L408.15 237.109L408.453 235.791L406.949 235.377L406.69 236.729L406.666 236.724ZM408.584 235.24L408.891 233.898L407.388 233.484L407.124 234.86C407.099 234.855 408.603 235.269 408.603 235.269L408.584 235.24ZM408.998 233.342L409.315 231.952L407.792 231.509L407.518 232.933C407.494 232.929 408.998 233.342 408.998 233.342ZM406.449 235.231L404.897 234.808L404.633 236.184L406.166 236.578L406.425 235.227L406.449 235.231ZM406.575 234.705L406.839 233.329C406.864 233.333 405.316 232.886 405.316 232.886L405.047 234.286L406.575 234.705ZM406.994 232.783L407.268 231.359C407.292 231.363 405.725 230.887 405.725 230.887L405.447 232.336L406.994 232.783ZM407.418 230.837L407.696 229.389C407.72 229.393 406.133 228.889 406.133 228.889L405.851 230.361L407.418 230.837ZM407.822 228.862L408.109 227.365C408.133 227.37 406.551 226.841 406.551 226.841L406.259 228.362L407.822 228.862ZM408.259 226.844L408.551 225.323C408.575 225.328 406.973 224.77 406.973 224.77L406.677 226.315L408.259 226.844ZM408.701 224.801L409.051 223.241L407.434 222.631L407.119 224.272L408.721 224.83L408.701 224.801ZM409.197 224.971L410.755 225.495L411.09 224.008L409.522 223.407L409.221 224.976L409.197 224.971ZM411.245 225.689L412.755 226.204L413.076 224.789L411.581 224.202L411.25 225.665L411.245 225.689ZM413.23 226.346L414.691 226.851L414.999 225.509L413.547 224.955L413.23 226.346ZM415.138 227.012L416.555 227.484L416.873 226.219L415.47 225.674L415.167 226.992L415.138 227.012ZM417.002 227.645L418.37 228.108L418.675 226.914L417.315 226.403L417.002 227.645ZM418.817 228.268L420.137 228.722L420.428 227.601L419.117 227.099L418.817 228.268ZM420.588 228.858L421.86 229.303L422.137 228.254L420.874 227.762L420.588 228.858ZM419.801 243.574L420.116 242.458L418.961 242.186L418.671 243.307L419.825 243.579L419.801 243.574ZM418.492 243.848L418.206 244.945L419.345 245.163C419.341 245.187 419.622 244.115 419.622 244.115L418.468 243.844L418.492 243.848ZM420.242 241.931L420.561 240.791L419.387 240.491L419.092 241.636L420.246 241.907L420.242 241.931ZM420.682 240.289L421.006 239.125L419.837 238.8L419.538 239.969L420.711 240.27L420.682 240.289ZM421.157 238.603L421.485 237.415L420.292 237.086L419.983 238.303L421.152 238.627L421.157 238.603ZM421.607 236.912L421.94 235.7L420.751 235.347L420.413 236.583L421.607 236.912ZM422.09 235.178L422.428 233.942L421.22 233.56L420.877 234.82L422.066 235.173L422.09 235.178ZM422.549 233.439L422.892 232.178L421.683 231.796L421.336 233.081L422.545 233.463L422.549 233.439ZM423.042 231.657L423.394 230.348L422.166 229.937L421.814 231.246L423.018 231.652L423.042 231.657ZM423.511 229.869L423.773 228.894L422.554 228.435L422.283 229.459L423.511 229.869ZM418.075 245.495L417.893 246.186L419.032 246.405L419.21 245.738L418.071 245.519L418.075 245.495ZM417.571 245.374L416.383 245.146C416.388 245.122 416.201 245.836 416.201 245.836L417.388 246.064L417.571 245.374ZM415.903 245.029L414.667 244.791C414.672 244.767 414.484 245.482 414.484 245.482L415.696 245.715L415.879 245.024L415.903 245.029ZM414.192 244.65L412.931 244.408C412.936 244.384 412.744 245.123 412.744 245.123L414.004 245.365L414.192 244.65ZM412.427 244.287L411.118 244.036C411.123 244.011 410.95 244.779 410.95 244.779L412.259 245.03L412.451 244.291L412.427 244.287ZM410.618 243.89L409.261 243.629C409.266 243.605 409.089 244.397 409.089 244.397L410.446 244.657L410.618 243.89ZM408.757 243.508L407.351 243.238C407.356 243.214 407.203 244.01 407.203 244.01L408.609 244.28L408.781 243.512L408.757 243.508ZM406.827 243.087L405.373 242.808C405.377 242.784 405.22 243.605 405.22 243.605L406.674 243.884L406.851 243.092L406.827 243.087ZM404.849 242.658L403.346 242.369C403.351 242.345 403.189 243.19 403.189 243.19L404.691 243.478L404.849 242.658ZM405.38 240.282L405.625 239.002C405.65 239.007 404.137 238.642 404.137 238.642L403.886 239.945L405.38 240.282ZM405.756 238.452L406.011 237.124C406.035 237.129 404.502 236.735 404.502 236.735L404.243 238.087L405.756 238.452ZM402.393 239.609L403.314 239.785C403.309 239.81 403.559 238.506 403.559 238.506L402.599 238.272L402.345 239.599L402.393 239.609ZM402.754 237.726L403.714 237.96L403.974 236.608L403.014 236.374L402.754 237.726ZM403.096 235.814L404.1 236.082L404.364 234.706L403.36 234.438L403.091 235.838L403.096 235.814ZM403.471 233.859L404.523 234.136L404.797 232.712L403.749 232.411L403.475 233.835L403.471 233.859ZM403.826 231.875L404.899 232.181L405.176 230.732L404.085 230.398L403.802 231.87L403.826 231.875ZM404.211 229.871L405.327 230.21L405.609 228.738L404.493 228.399L404.206 229.895L404.211 229.871ZM404.575 227.839L405.735 228.212L406.027 226.691L404.867 226.318L404.571 227.863L404.575 227.839ZM404.974 225.763L406.182 226.145L406.478 224.6L405.275 224.194L404.974 225.763ZM405.352 223.658L406.604 224.073L406.924 222.408C406.948 222.413 405.686 221.92 405.686 221.92L405.357 223.634L405.352 223.658ZM424.22 229.054L423.957 230.03L425.088 230.422L425.341 229.495L424.22 229.054ZM420.757 246.06L419.69 245.855L419.517 246.498L420.583 246.702L420.757 246.06ZM402.631 243.083L402.798 242.214L401.925 242.047L401.759 242.916L402.631 243.083Z" fill="#1E120B"/>
<path d="M402.168 225.85L398.194 246.562L375.999 240.828L376.874 216.093L402.168 225.85ZM377.809 237.946L378.667 238.186L378.749 236.975L377.842 236.726L377.809 237.946ZM397.483 240.444L396.314 240.12L396.11 241.182L397.28 241.506L397.483 240.444ZM397.581 239.937L397.794 238.827L396.629 238.478L396.416 239.588L397.585 239.913L397.581 239.937ZM397.891 238.32L398.109 237.185L396.92 236.832L396.698 237.991L397.886 238.344L397.891 238.32ZM398.21 236.654L398.437 235.471L397.229 235.089L397.002 236.272L398.215 236.63L398.21 236.654ZM398.535 234.964L398.766 233.757L397.533 233.371L397.297 234.602L398.53 234.988L398.535 234.964ZM398.868 233.226L399.109 231.971L397.857 231.556L397.611 232.835L398.868 233.226ZM399.206 231.464L399.456 230.16L398.18 229.74L397.925 231.068L399.201 231.488L399.206 231.464ZM399.558 229.629L399.817 228.278L398.521 227.829L398.262 229.181L399.563 229.605L399.558 229.629ZM397.182 242.013L396.037 241.693L395.838 242.731L396.988 243.027L397.187 241.989L397.182 242.013ZM393.889 240.58L394.097 239.494C394.073 239.489 392.812 239.122 392.812 239.122L392.647 240.242L393.889 240.58ZM392.55 240.749L392.394 241.82L393.636 242.159L393.84 241.097C393.816 241.092 392.574 240.754 392.574 240.754L392.55 240.749ZM394.151 238.954L394.368 237.819C394.344 237.814 393.058 237.443 393.058 237.443L392.889 238.586L394.151 238.954ZM394.441 237.307L394.664 236.149C394.639 236.144 393.334 235.744 393.334 235.744L393.156 236.936L394.441 237.307ZM394.717 235.608L394.948 234.401C394.924 234.397 393.595 233.992 393.595 233.992L393.407 235.232L394.712 235.633L394.717 235.608ZM394.997 233.885L395.238 232.63C395.214 232.625 393.865 232.191 393.865 232.191L393.672 233.456L395.002 233.861L394.997 233.885ZM395.291 232.09L395.541 230.786C395.517 230.781 394.144 230.343 394.144 230.343L393.942 231.656L395.291 232.09ZM395.614 230.274L395.869 228.947C395.845 228.942 394.452 228.475 394.452 228.475L394.241 229.836L395.614 230.274ZM395.923 228.406L396.187 227.03C396.162 227.026 394.75 226.53 394.75 226.53L394.53 227.939L395.923 228.406ZM392.05 240.603L390.76 240.255L390.6 241.351L391.866 241.694L392.021 240.622L392.05 240.603ZM392.123 240.091L392.288 238.972L391.002 238.6L390.837 239.72L392.128 240.067L392.123 240.091ZM392.385 238.465L392.554 237.321L391.244 236.944L391.07 238.112L392.38 238.489L392.385 238.465ZM392.632 236.785L392.81 235.593L391.48 235.188L391.297 236.404L392.632 236.785ZM392.912 235.062L393.1 233.822L391.746 233.412L391.582 234.657L392.936 235.067L392.912 235.062ZM393.173 233.31L393.37 232.021L391.996 231.583L391.823 232.876L393.201 233.29L393.173 233.31ZM393.443 231.51L393.644 230.197L392.251 229.729L392.069 231.071L393.467 231.514L393.443 231.51ZM392.515 227.828L392.324 229.218L393.741 229.69L393.952 228.329L392.535 227.857L392.515 227.828ZM394.01 227.764L394.23 226.355L392.794 225.854L392.593 227.292L394.034 227.769L394.01 227.764ZM390.255 240.134L388.941 239.781L388.805 240.881L390.095 241.229L390.255 240.134ZM390.333 239.598L390.498 238.478L389.163 238.097L389.018 239.246L390.333 239.598ZM390.575 237.942L390.749 236.774L389.391 236.389L389.236 237.585L390.571 237.967L390.575 237.942ZM390.798 236.258L390.981 235.042L389.603 234.627L389.444 235.848L390.802 236.234L390.798 236.258ZM391.03 234.526L391.193 233.281L389.791 232.861L389.623 234.131L391.001 234.545L391.03 234.526ZM391.295 232.75L391.468 231.456L390.046 231.008L389.868 232.326L391.266 232.769L391.295 232.75ZM390.535 227.148L390.363 228.566L391.805 229.043L391.996 227.653L390.53 227.172L390.535 227.148ZM392.074 227.118L392.274 225.679L390.789 225.169L390.608 226.636L392.074 227.118ZM390.286 229.102L390.123 230.473L391.545 230.92L391.727 229.579L390.286 229.102ZM388.441 239.635L387.078 239.274L386.938 240.398L388.277 240.755L388.412 239.655L388.441 239.635ZM388.494 239.095L388.639 237.946L387.281 237.561L387.156 238.738L388.519 239.1L388.494 239.095ZM388.712 237.435L388.867 236.238L387.484 235.848L387.354 237.049L388.737 237.44L388.712 237.435ZM388.92 235.698L389.079 234.477L387.677 234.058L387.537 235.307L388.94 235.727L388.92 235.698ZM389.156 233.941L389.325 232.672L387.903 232.224L387.754 233.522L389.181 233.946L389.156 233.941ZM382.226 224.352L382.113 225.857L383.719 226.391L383.856 224.89L382.226 224.352ZM383.905 224.374L384.027 222.821L382.377 222.254L382.25 223.831L383.881 224.37L383.905 224.374ZM382.079 226.427L381.975 227.883L383.562 228.388L383.69 226.936L382.084 226.402L382.079 226.427ZM384.424 224.549L386.031 225.082L386.173 223.558L384.547 222.996L384.4 224.544L384.424 224.549ZM384.371 225.089L384.239 226.566L385.801 227.066L385.958 225.594L384.376 225.065L384.371 225.089ZM384.209 227.111L384.086 228.539L385.625 229.034L385.772 227.611L384.209 227.111ZM384.033 229.079L383.919 230.459L385.438 230.925L385.576 229.55L384.038 229.055L384.033 229.079ZM383.866 230.999L383.761 232.33L385.26 232.768L385.389 231.441L383.87 230.975L383.866 230.999ZM386.526 225.252L388.084 225.777L388.245 224.281L386.668 223.728L386.526 225.252ZM386.473 225.793L386.316 227.264L387.854 227.76L388.031 226.317L386.497 225.797L386.473 225.793ZM386.291 227.785L386.149 229.184L387.663 229.675L387.83 228.281L386.316 227.79L386.291 227.785ZM386.095 229.725L385.962 231.076L387.432 231.533L387.59 230.187L386.1 229.701L386.095 229.725ZM385.908 231.616L385.78 232.943L387.23 233.371L387.379 232.073L385.908 231.616ZM388.603 225.951L390.113 226.466L390.294 224.999L388.76 224.48L388.599 225.975L388.603 225.951ZM388.526 226.487L388.349 227.93L389.839 228.416L390.011 226.997L388.502 226.482L388.526 226.487ZM388.301 228.446L388.134 229.841L389.604 230.298L389.766 228.927L388.276 228.441L388.301 228.446ZM388.085 230.357L387.927 231.703L389.373 232.156L389.551 230.838L388.08 230.381L388.085 230.357ZM386.578 239.128L385.196 238.737L385.075 239.891L386.438 240.252L386.554 239.123L386.578 239.128ZM386.632 238.587L386.757 237.41L385.35 237.015L385.225 238.192L386.607 238.583L386.632 238.587ZM386.83 236.899L386.96 235.697L385.534 235.273L385.399 236.499L386.806 236.894L386.83 236.899ZM387.013 235.157L387.153 233.907L385.702 233.479L385.582 234.757L387.009 235.181L387.013 235.157ZM384.672 238.587L383.241 238.187L383.144 239.345L384.556 239.716L384.676 238.563L384.672 238.587ZM384.72 238.071L384.846 236.893L383.39 236.489L383.285 237.695L384.716 238.095L384.72 238.071ZM384.899 236.353L385.034 235.127L383.559 234.694L383.444 235.949L384.899 236.353ZM385.063 234.582L385.183 233.304L383.683 232.866L383.564 234.145L385.039 234.578L385.063 234.582ZM382.736 238.065L381.281 237.661L381.204 238.848L382.64 239.223L382.736 238.065ZM382.79 237.525L382.895 236.319L381.416 235.91L381.33 237.145L382.785 237.549L382.79 237.525ZM382.92 235.798L383.035 234.544L381.536 234.106L381.445 235.365L382.925 235.774L382.92 235.798ZM380.752 237.535L379.248 237.121L379.167 238.332L380.651 238.717L380.728 237.53L380.752 237.535ZM381.565 233.561L383.088 234.003L383.213 232.701L381.694 232.234L381.594 233.541L381.565 233.561ZM383.237 232.18L383.346 230.824L381.779 230.348L381.67 231.704L383.213 232.175L383.237 232.18ZM383.395 230.308L383.514 228.904L381.927 228.4L381.832 229.808L383.4 230.284L383.395 230.308ZM381.141 232.103L379.574 231.627L379.493 232.963L381.041 233.41L381.141 232.103ZM381.194 231.563L381.279 230.203L379.688 229.722L379.598 231.106L381.165 231.582L381.194 231.563ZM381.333 229.662L381.427 228.254L379.792 227.74L379.717 229.177L381.333 229.662ZM381.456 227.709L381.56 226.252L379.905 225.709L379.821 227.195L381.456 227.709ZM381.613 225.711L381.731 224.182L380.056 223.611L379.963 225.145L381.618 225.687L381.613 225.711ZM381.755 223.661L381.858 222.079L380.163 221.479L380.08 223.09L381.755 223.661ZM381.911 221.539L382.027 219.884L380.294 219.227L380.193 220.934L381.911 221.539ZM382.43 221.714L384.105 222.285L384.232 220.708L382.547 220.059L382.435 221.689L382.43 221.714ZM384.595 222.479L386.221 223.042L386.378 221.57L384.737 220.955L384.615 222.508L384.595 222.479ZM386.741 223.216L388.318 223.769L388.485 222.375L386.893 221.769L386.736 223.24L386.741 223.216ZM388.813 223.939L390.347 224.459L390.525 223.141L388.98 222.545L388.813 223.939ZM390.867 224.633L392.352 225.144L392.52 223.874L391.02 223.311L390.842 224.629L390.867 224.633ZM392.871 225.318L394.332 225.824L394.511 224.632L393.059 224.078L392.895 225.323L392.871 225.318ZM394.827 225.994L396.24 226.49L396.453 225.38C396.429 225.375 395.001 224.826 395.001 224.826L394.827 225.994ZM395.611 241.036L395.819 239.949L394.577 239.611L394.369 240.697C394.393 240.702 395.611 241.036 395.611 241.036ZM394.316 241.238L394.112 242.3C394.136 242.305 395.329 242.634 395.329 242.634L395.528 241.596L394.311 241.262L394.316 241.238ZM395.912 239.467L396.125 238.356L394.863 237.989L394.646 239.124C394.67 239.128 395.912 239.467 395.912 239.467ZM396.202 237.821L396.425 236.662L395.139 236.29L394.917 237.449C394.941 237.453 396.202 237.821 396.202 237.821ZM396.498 236.15L396.725 234.967L395.419 234.567L395.188 235.774C395.212 235.778 396.498 236.15 396.498 236.15ZM396.802 234.432L397.038 233.201L395.713 232.771L395.473 234.026C395.497 234.031 396.802 234.432 396.802 234.432ZM397.111 232.689L397.357 231.41L396.008 230.976L395.762 232.255C395.787 232.26 397.111 232.689 397.111 232.689ZM397.434 230.874L397.689 229.546L396.32 229.083L396.066 230.411C396.09 230.416 397.439 230.85 397.439 230.85L397.434 230.874ZM397.786 229.039L398.05 227.663L396.657 227.196L396.393 228.572C396.418 228.576 397.786 229.039 397.786 229.039ZM398.123 227.152L398.322 226.114L396.939 225.598L396.73 226.684C396.755 226.689 398.123 227.152 398.123 227.152ZM394.039 242.811L393.914 243.463L395.112 243.768L395.237 243.116L394.043 242.787L394.039 242.811ZM393.539 242.666L392.321 242.332L392.192 243.008C392.216 243.012 393.438 243.322 393.438 243.322L393.563 242.67L393.539 242.666ZM391.793 242.205L390.527 241.862L390.397 242.538C390.421 242.543 391.692 242.862 391.692 242.862L391.822 242.186L391.793 242.205ZM390.022 241.741L388.732 241.393L388.646 242.102L389.941 242.426L390.071 241.75L390.022 241.741ZM388.228 241.271L386.889 240.914L386.799 241.648L388.118 241.976L388.204 241.267L388.228 241.271ZM386.389 240.768L385.026 240.407L384.96 241.145L386.323 241.507L386.413 240.773L386.389 240.768ZM384.498 240.28L383.086 239.91L383.015 240.672L384.403 241.038L384.469 240.3L384.498 240.28ZM382.586 239.764L381.151 239.388L381.099 240.179L382.535 240.555L382.606 239.792L382.586 239.764ZM380.627 239.238L379.142 238.853L379.091 239.644L380.551 240.024L380.602 239.233L380.627 239.238ZM380.806 236.994L380.892 235.759L379.364 235.341L379.302 236.581L380.806 236.994ZM380.916 235.239L381.012 233.955L379.464 233.508L379.393 234.796L380.916 235.239ZM377.871 236.181L378.778 236.43L378.844 235.166L377.913 234.913L377.871 236.181ZM377.913 234.387L378.869 234.646L378.94 233.358L377.965 233.071L377.913 234.387ZM377.994 232.526L378.993 232.817L379.074 231.481L378.05 231.185L378.014 232.554L377.994 232.526ZM378.055 230.635L379.103 230.936L379.193 229.552L378.101 229.217L378.055 230.635ZM378.106 228.668L379.198 229.002L379.272 227.565L378.137 227.197L378.082 228.663L378.106 228.668ZM378.161 226.676L379.297 227.044L379.381 225.559L378.197 225.181L378.157 226.7L378.161 226.676ZM378.23 224.612L379.439 224.994L379.537 223.436L378.309 223.025L378.259 224.593L378.23 224.612ZM378.309 222.5L379.561 222.915L379.644 221.304L378.348 220.855L378.285 222.495L378.309 222.5ZM378.377 220.31L379.673 220.759L379.779 219.028L378.444 218.521L378.377 220.31ZM398.793 226.279L398.599 227.293L399.895 227.742L400.085 226.752L398.798 226.255L398.793 226.279ZM396.886 243.558L395.761 243.267L395.64 243.895L396.766 244.186L396.886 243.558ZM378.587 239.522L378.638 238.731L377.779 238.491L377.748 239.311L378.587 239.522Z" fill="#635044"/>
<path d="M427.332 228.55L421.857 249.099L398.19 246.586L402.163 225.874L427.308 228.546L427.332 228.55ZM404.099 242.639L404.325 241.456L402.824 241.293L402.597 242.476L404.099 242.639ZM402.524 242.988L402.297 244.17L403.774 244.329L404.001 243.146L402.524 242.988ZM404.427 240.925L404.654 239.742L403.153 239.579L402.926 240.762L404.427 240.925ZM404.727 239.231L404.954 238.048L403.428 237.88L403.201 239.063L404.727 239.231ZM405.051 237.541L405.278 236.358L403.728 236.186L403.501 237.369L405.051 237.541ZM405.38 235.827L405.607 234.644L404.057 234.472L403.83 235.655L405.38 235.827ZM405.704 234.137L405.931 232.954L404.357 232.777L404.13 233.96L405.704 234.137ZM406.009 232.419L406.236 231.236L404.661 231.059L404.434 232.242L406.009 232.419ZM406.333 230.729L406.56 229.546L404.961 229.364L404.734 230.547L406.333 230.729ZM406.099 242.822L406.326 241.64L404.848 241.481L404.621 242.664L406.099 242.822ZM404.52 243.195L404.293 244.378L405.746 244.532L405.973 243.349L404.52 243.195ZM406.423 241.133L406.65 239.95L405.148 239.787L404.921 240.97L406.423 241.133ZM406.771 239.448L406.998 238.265L405.497 238.102L405.27 239.285L406.771 239.448ZM407.096 237.758L407.322 236.575L405.797 236.407L405.57 237.59L407.096 237.758ZM407.424 236.044L407.651 234.861L406.125 234.693L405.898 235.876L407.424 236.044ZM407.773 234.359L408 233.176L406.449 233.004L406.223 234.187L407.773 234.359ZM408.097 232.669L408.324 231.486L406.749 231.309L406.522 232.492L408.097 232.669ZM408.426 230.955L408.653 229.772L407.078 229.595L406.851 230.778L408.426 230.955ZM408.779 229.246L409.001 228.087L407.402 227.906L407.185 229.04L408.783 229.222L408.779 229.246ZM408.866 231.54L408.639 232.723L410.189 232.895L410.416 231.712L408.866 231.54ZM410.518 231.181L410.745 229.998L409.195 229.826L408.968 231.009L410.518 231.181ZM408.518 233.225L408.291 234.408L409.817 234.576L410.044 233.393L408.518 233.225ZM408.189 234.939L407.962 236.122L409.464 236.285L409.691 235.102L408.189 234.939ZM407.865 236.629L407.638 237.812L409.14 237.975L409.367 236.792L407.865 236.629ZM407.517 238.314L407.29 239.497L408.767 239.655L408.994 238.472L407.517 238.314ZM407.188 240.028L406.961 241.211L408.438 241.369L408.665 240.186L407.188 240.028ZM406.839 241.713L406.612 242.896L408.066 243.05L408.293 241.867L406.839 241.713ZM406.515 243.403L406.288 244.586L407.741 244.739L407.968 243.556L406.515 243.403ZM409.292 229.319L410.867 229.496L411.089 228.337L409.515 228.161L409.292 229.319ZM410.935 231.762L410.708 232.945L412.234 233.112L412.46 231.929C412.485 231.934 410.935 231.762 410.935 231.762ZM412.582 231.427L412.809 230.244C412.833 230.249 411.283 230.077 411.283 230.077L411.056 231.259L412.582 231.427ZM410.586 233.447L410.359 234.63L411.861 234.793L412.088 233.61C412.112 233.614 410.586 233.447 410.586 233.447ZM410.233 235.156L410.006 236.339L411.508 236.502L411.735 235.319C411.759 235.324 410.233 235.156 410.233 235.156ZM409.885 236.841L409.658 238.024L411.135 238.182L411.362 236.999C411.386 237.004 409.885 236.841 409.885 236.841ZM409.536 238.526L409.31 239.709L410.763 239.863L410.99 238.68C411.014 238.685 409.536 238.526 409.536 238.526ZM409.183 240.236L408.957 241.418L410.41 241.572L410.637 240.389C410.661 240.394 409.183 240.236 409.183 240.236ZM408.859 241.925L408.632 243.108L410.061 243.257L410.288 242.074C410.312 242.079 408.859 241.925 408.859 241.925ZM408.511 243.61L408.284 244.793L409.713 244.942L409.94 243.759C409.964 243.764 408.511 243.61 408.511 243.61ZM411.385 229.546L412.959 229.722L413.186 228.54C413.21 228.544 411.636 228.367 411.636 228.367L411.409 229.55L411.385 229.546ZM413.003 231.983L412.776 233.166C412.752 233.161 414.278 233.329 414.278 233.329L414.505 232.146C414.529 232.151 413.003 231.983 413.003 231.983ZM414.65 231.649L414.877 230.466C414.901 230.47 413.376 230.303 413.376 230.303L413.149 231.486C413.124 231.481 414.65 231.649 414.65 231.649ZM412.65 233.693L412.423 234.875C412.399 234.871 413.9 235.034 413.9 235.034L414.127 233.851C414.152 233.855 412.65 233.693 412.65 233.693ZM412.277 235.373L412.05 236.556C412.026 236.551 413.528 236.714 413.528 236.714L413.755 235.531C413.779 235.536 412.277 235.373 412.277 235.373ZM411.929 237.058L411.702 238.241C411.678 238.236 413.155 238.395 413.155 238.395L413.382 237.212C413.406 237.216 411.929 237.058 411.929 237.058ZM411.556 238.739L411.329 239.921C411.305 239.917 412.783 240.075 412.783 240.075L413.009 238.892C413.034 238.897 411.556 238.739 411.556 238.739ZM411.203 240.448L410.976 241.631C410.952 241.626 412.405 241.78 412.405 241.78L412.632 240.597C412.656 240.601 411.203 240.448 411.203 240.448ZM410.831 242.128L410.604 243.311C410.58 243.307 412.008 243.456 412.008 243.456L412.235 242.273C412.26 242.277 410.831 242.128 410.831 242.128ZM410.482 243.813L410.26 244.972C410.236 244.968 411.665 245.116 411.665 245.116L411.887 243.958C411.911 243.962 410.482 243.813 410.482 243.813ZM413.473 229.796L415.023 229.968L415.255 228.761C415.279 228.766 413.729 228.594 413.729 228.594L413.502 229.776L413.473 229.796ZM420.352 234.019L420.652 232.85L419.15 232.687L418.875 233.861L420.377 234.023L420.352 234.019ZM418.754 234.363L418.478 235.536L419.956 235.695L420.255 234.526L418.778 234.368L418.754 234.363ZM420.774 232.348L421.073 231.179L419.571 231.016L419.296 232.189L420.798 232.352L420.774 232.348ZM419.21 240.758L420.639 240.906L420.934 239.762L419.505 239.613L419.21 240.758ZM419.089 241.26L418.794 242.405L420.199 242.549L420.494 241.404L419.065 241.255L419.089 241.26ZM418.668 242.931L418.373 244.076L419.778 244.22L420.073 243.075L418.668 242.931ZM418.247 244.602L417.952 245.747L419.332 245.887L419.627 244.742L418.223 244.597L418.247 244.602ZM419.81 236.192L418.332 236.034L418.057 237.208L419.51 237.361L419.805 236.216L419.81 236.192ZM417.936 237.71L417.665 238.859L419.118 239.013L419.413 237.868L417.96 237.714L417.936 237.71ZM417.539 239.386L417.268 240.535L418.697 240.684L418.992 239.539L417.539 239.386ZM417.142 241.061L416.871 242.211L418.3 242.36L418.595 241.215L417.166 241.066L417.142 241.061ZM418.734 232.107L419.009 230.933L417.483 230.765L417.208 231.939L418.734 232.107ZM417.111 232.446L416.835 233.62L418.337 233.782L418.613 232.609L417.111 232.446ZM416.721 242.733L416.45 243.882L417.855 244.026L418.15 242.882L416.721 242.733ZM416.328 244.384L416.058 245.534L417.462 245.678L417.757 244.533L416.353 244.389L416.328 244.384ZM418.211 234.309L416.709 234.146L416.434 235.319L417.911 235.478L418.187 234.304L418.211 234.309ZM416.337 235.826L416.061 237L417.539 237.158L417.814 235.985L416.337 235.826ZM415.94 237.502L415.665 238.676L417.118 238.829L417.393 237.656L415.916 237.498L415.94 237.502ZM415.543 239.178L415.268 240.352L416.721 240.505L416.992 239.356L415.538 239.202L415.543 239.178ZM415.17 240.858L414.9 242.008L416.329 242.157L416.599 241.007L415.146 240.854L415.17 240.858ZM414.774 242.534L414.503 243.684L415.932 243.833L416.202 242.683L414.774 242.534ZM414.381 244.186L414.111 245.335L415.515 245.48L415.786 244.33L414.381 244.186ZM416.714 231.894L416.989 230.721L415.464 230.553L415.237 231.736C415.212 231.731 416.738 231.899 416.738 231.899L416.714 231.894ZM415.067 232.229L414.84 233.412C414.816 233.407 416.317 233.57 416.317 233.57L416.593 232.397L415.067 232.229ZM414.694 233.909L414.467 235.092C414.443 235.088 415.92 235.246 415.92 235.246L416.196 234.072L414.694 233.909ZM414.321 235.59L414.095 236.773C414.07 236.768 415.548 236.926 415.548 236.926L415.823 235.753L414.321 235.59ZM413.944 237.295L413.717 238.477C413.693 238.473 415.146 238.626 415.146 238.626L415.422 237.453L413.944 237.295ZM413.572 238.975L413.345 240.158C413.32 240.153 414.774 240.307 414.774 240.307L415.049 239.133L413.572 238.975ZM413.175 240.651L412.948 241.834C412.924 241.829 414.353 241.978 414.353 241.978L414.623 240.829L413.17 240.675L413.175 240.651ZM412.802 242.331L412.58 243.49C412.556 243.485 413.985 243.634 413.985 243.634L414.255 242.485L412.826 242.336L412.802 242.331ZM412.434 243.988L412.212 245.146C412.188 245.142 413.592 245.286 413.592 245.286L413.863 244.137L412.434 243.988ZM415.565 230.022L417.116 230.194L417.396 228.997L415.845 228.824L415.614 230.031L415.565 230.022ZM417.629 230.268L419.155 230.435L419.44 229.214L417.89 229.041L417.605 230.263L417.629 230.268ZM419.673 230.485L421.199 230.652L421.513 229.411L419.987 229.243L419.702 230.465L419.673 230.485ZM422.372 234.231L422.667 233.086L421.19 232.928L420.89 234.097L422.368 234.255L422.372 234.231ZM420.737 242.627L421.797 242.73L422.092 241.586L421.007 241.478L420.712 242.622L420.737 242.627ZM422.793 232.56L423.093 231.391L421.591 231.228L421.292 232.397L422.793 232.56ZM421.453 239.811L421.158 240.956L422.243 241.064L422.538 239.919L421.453 239.811ZM422.688 239.397L422.983 238.253L421.874 238.14L421.579 239.285L422.664 239.393L422.688 239.397ZM423.129 237.755L423.424 236.61L422.314 236.498L422.019 237.642L423.129 237.755ZM423.574 236.088L423.869 234.944L422.736 234.826L422.441 235.971L423.55 236.084L423.574 236.088ZM424.019 234.422L424.314 233.277L423.181 233.16L422.886 234.305L424.019 234.422ZM421.676 243.233L420.615 243.129L420.32 244.274L421.381 244.377L421.676 243.233ZM421.927 235.898L422.222 234.753L420.745 234.595L420.445 235.764L421.898 235.917L421.927 235.898ZM421.713 230.726L423.214 230.889L423.528 229.647L422.002 229.48L421.689 230.721L421.713 230.726ZM423.307 232.633L424.44 232.751L424.735 231.606L423.578 231.484L423.278 232.653L423.307 232.633ZM421.231 244.899L420.17 244.796L419.875 245.941L420.911 246.039L421.206 244.895L421.231 244.899ZM421.506 237.569L421.801 236.424L420.348 236.27L420.053 237.415L421.506 237.569ZM419.931 237.917L419.636 239.062L421.065 239.211L421.36 238.066L419.907 237.913L419.931 237.917ZM419.235 246.393L417.855 246.254L417.635 247.138L419.015 247.277L419.235 246.393ZM417.312 246.2L415.932 246.06L415.716 246.92L417.097 247.06L417.312 246.2ZM415.413 246.011L414.009 245.866L413.847 246.711C413.822 246.707 415.203 246.846 415.203 246.846L415.418 245.987L415.413 246.011ZM413.466 245.812L412.061 245.668L411.899 246.513C411.875 246.508 413.28 246.653 413.28 246.653L413.442 245.808L413.466 245.812ZM411.543 245.619L410.114 245.47L409.957 246.291L411.362 246.435L411.524 245.59L411.543 245.619ZM409.596 245.42L408.167 245.271L408.01 246.092L409.414 246.237L409.572 245.416L409.596 245.42ZM407.62 245.242L406.167 245.088L406.014 245.885L407.443 246.034L407.6 245.213L407.62 245.242ZM405.649 245.039L404.195 244.885L404.043 245.682L405.496 245.835L405.649 245.039ZM403.677 244.836L402.224 244.682L402.076 245.454L403.553 245.613L403.706 244.816L403.677 244.836ZM406.662 229.015L406.879 227.88L405.257 227.694L405.039 228.829L406.662 229.015ZM402.831 232.084L403.94 232.197L404.167 231.014L403.063 230.877L402.836 232.06L402.831 232.084ZM402.734 232.591L402.507 233.774L403.616 233.887L403.843 232.704L402.734 232.591ZM402.405 234.305L402.178 235.488L403.312 235.605L403.539 234.422L402.405 234.305ZM402.081 235.995L401.854 237.178L403.012 237.3L403.239 236.117L402.081 235.995ZM401.752 237.709L401.525 238.892L402.707 239.018L402.934 237.835L401.752 237.709ZM401.424 239.423L401.197 240.606L402.403 240.737L402.63 239.554L401.424 239.423ZM401.099 241.113L400.872 242.295L402.103 242.431L402.33 241.248L401.099 241.113ZM403.16 230.37L404.24 230.503L404.467 229.32L403.387 229.188L403.155 230.395L403.16 230.37ZM402.006 242.938L400.775 242.802L400.548 243.985L401.783 244.097L402.01 242.914L402.006 242.938ZM403.489 228.657L404.545 228.784L404.758 227.674L403.697 227.57L403.484 228.681L403.489 228.657ZM424.07 229.701L423.752 230.967L424.91 231.089L425.252 229.828L424.095 229.706L424.07 229.701ZM420.79 246.542L419.753 246.443L419.533 247.327L420.565 247.45L420.809 246.57L420.79 246.542ZM401.558 245.405L401.706 244.633L400.446 244.516L400.298 245.289L401.553 245.429L401.558 245.405Z" fill="#8A7C73"/>
<path d="M363.063 181.458C363.063 181.458 367.551 181.643 369.595 188.017C370.003 189.296 369.429 191.764 368.468 192.055C364.221 193.368 359.217 189.98 361.03 188.126C361.721 187.407 360.255 185.749 357.198 185.438C356.234 185.354 357.643 182.595 359.452 181.941C361.666 181.14 363.043 181.429 363.043 181.429L363.063 181.458Z" fill="#FBB09E"/>
<path d="M406.23 185.284C406.23 185.284 410.718 185.469 412.762 191.843C413.17 193.122 412.596 195.59 411.636 195.881C407.389 197.194 402.384 193.806 404.197 191.952C404.888 191.233 403.422 189.575 400.366 189.264C399.402 189.18 400.81 186.421 402.62 185.767C404.834 184.966 406.211 185.255 406.211 185.255L406.23 185.284Z" fill="#FBB09E"/>
<path d="M404.074 142.948C402.967 148.718 416.516 151.317 417.598 145.543C418.705 139.773 405.156 137.174 404.074 142.948Z" fill="#F6A8AD"/>
<path d="M347.867 132.166C346.76 137.935 360.309 140.534 361.391 134.76C362.498 128.991 348.949 126.392 347.867 132.166Z" fill="#F6A8AD"/>
<path d="M397.868 129.319C396.836 134.827 403.259 136.06 404.363 130.565C405.395 125.057 398.972 123.824 397.868 129.319Z" fill="#3C2415"/>
<path d="M395.733 123.153C395.15 126.195 398.618 123.706 402.205 124.395C405.792 125.083 408.093 128.678 408.676 125.636C410.052 118.467 397.157 115.993 395.758 123.158L395.733 123.153Z" fill="#3C2415"/>
<path d="M370.988 124.163C369.957 129.671 376.38 130.903 377.484 125.409C378.515 119.9 372.092 118.668 370.988 124.163Z" fill="#3C2415"/>
<path d="M368.83 117.992C368.246 121.034 371.714 118.545 375.301 119.234C378.888 119.922 381.189 123.517 381.772 120.475C383.148 113.306 370.253 110.832 368.854 117.997L368.83 117.992Z" fill="#3C2415"/>
<path d="M383.877 140.551C386.937 141.889 389.548 142.164 392.366 140.577C386.263 161.256 369.559 151.92 376.675 133.688C377.894 137.025 380.797 139.184 383.857 140.522L383.877 140.551Z" fill="#3C2415"/>
<path d="M387.263 149.885C381.573 155.576 375.467 151.251 375.13 143.703C379.448 144.907 383.914 147.04 387.263 149.885Z" fill="#ED1C24"/>
<g style="mix-blend-mode:multiply">
<path d="M370.567 91.6457C375.123 92.5198 379.162 93.3446 381.647 94.7974L394.081 97.1826C399.586 96.9122 421.408 99.2212 419.137 106.344C414.907 119.748 394.552 120.799 390.356 105.203C389.867 103.432 388.351 102.165 386.534 101.942C384.862 101.621 383.198 102.303 382.164 103.631C372.316 116.584 354.086 108.131 355.004 94.0413C355.972 88.9962 362.52 90.1021 370.567 91.6457Z" fill="#D1D3D4"/>
</g>
<path d="M376.21 87.2473C380.888 88.1446 385.048 88.9926 387.601 90.4836L400.35 92.9292C406.083 92.6523 428.665 95.0572 426.034 102.486C421.415 116.216 400.737 116.98 396.501 101.076C395.967 99.2714 394.403 97.9952 392.533 97.7867C390.788 97.4519 389.024 98.2648 388.029 99.6507C377.801 112.881 359.096 103.886 360.289 89.549C361.378 84.5271 368.066 85.685 376.234 87.2519L376.21 87.2473Z" fill="black"/>
<path d="M398.033 98.0658C397.172 102.556 401.565 110.832 408.666 112.194C415.768 113.556 422.912 107.494 423.773 103.004C424.635 98.5136 418.889 97.2864 411.788 95.9241C404.686 94.5617 398.894 93.5759 398.033 98.0658Z" fill="#F7941D"/>
<path opacity="0.5" d="M403.771 98.4157C401.783 98.0345 399.866 97.942 398.013 98.0371C398.87 93.5713 404.662 94.5571 411.763 95.9195C425.082 97.6234 427.829 103.081 417.868 110.205C417.3 104.915 411.527 99.9036 403.746 98.4111L403.771 98.4157Z" fill="white"/>
<path d="M362.113 91.1753C361.251 95.6653 365.645 103.941 372.746 105.304C379.848 106.666 386.992 100.603 387.853 96.1131C388.714 91.6231 382.969 90.3959 375.867 89.0336C368.766 87.6712 362.974 86.6854 362.113 91.1753Z" fill="#F7941D"/>
<path opacity="0.5" d="M367.85 91.5252C365.863 91.144 363.946 91.0515 362.093 91.1466C362.95 86.6808 368.741 87.6666 375.843 89.0289C389.162 90.7329 391.909 96.1905 381.948 103.315C381.38 98.0249 375.606 93.0131 367.826 91.5206L367.85 91.5252Z" fill="white"/>
<path d="M413.422 99.191C412.947 100.752 422.036 102.495 422.172 100.87C422.648 99.3088 413.558 97.5653 413.422 99.191Z" fill="white"/>
<path d="M377.26 92.254C376.785 93.8147 385.874 95.5582 386.01 93.9325C386.485 92.3718 377.396 90.6283 377.26 92.254Z" fill="white"/>
</g>
<path d="M1317.93 302.344L1315 337.829L1388.81 297.248L1391.22 291.601L1354.3 292.846L1317.93 302.344Z" fill="url(#paint10_linear_240_1137)"/>
<path d="M1315 337.829L1381.86 313.484L1391.22 291.601L1363.83 307.943L1329.31 313.892L1315 337.829Z" fill="url(#paint11_linear_240_1137)"/>
<path d="M1303.88 277.924C1299.38 277.706 1297.07 283.248 1300.4 286.296L1317.92 302.343L1391.22 291.6L1329.31 313.892L1354.3 357.611C1356.06 360.696 1360.44 360.879 1362.46 357.951L1408.94 290.367C1411.08 287.255 1408.97 283.002 1405.2 282.82L1303.88 277.924Z" fill="url(#paint12_linear_240_1137)"/>
<defs>
<linearGradient id="paint0_linear_240_1137" x1="331.383" y1="280.973" x2="335.079" y2="261.71" gradientUnits="userSpaceOnUse">
<stop stop-color="#E6E7E8"/>
<stop offset="0.1" stop-color="#E0E1E2"/>
<stop offset="0.2" stop-color="#D1D2D3"/>
<stop offset="0.4" stop-color="#B7B8B9"/>
<stop offset="0.5" stop-color="#949595"/>
<stop offset="0.7" stop-color="#666767"/>
<stop offset="0.9" stop-color="#303030"/>
<stop offset="1"/>
</linearGradient>
<linearGradient id="paint1_linear_240_1137" x1="280.112" y1="266.733" x2="281.654" y2="258.694" gradientUnits="userSpaceOnUse">
<stop/>
<stop offset="1" stop-color="#E6E7E8"/>
</linearGradient>
<linearGradient id="paint2_linear_240_1137" x1="279.617" y1="265.512" x2="280.728" y2="259.718" gradientUnits="userSpaceOnUse">
<stop stop-color="#E6E7E8"/>
<stop offset="1"/>
</linearGradient>
<linearGradient id="paint3_linear_240_1137" x1="278.636" y1="297.609" x2="292.093" y2="227.46" gradientUnits="userSpaceOnUse">
<stop stop-color="#E6E7E8"/>
<stop offset="1"/>
</linearGradient>
<linearGradient id="paint4_linear_240_1137" x1="328.516" y1="286.355" x2="331.008" y2="273.368" gradientUnits="userSpaceOnUse">
<stop/>
<stop offset="1" stop-color="#E6E7E8"/>
</linearGradient>
<linearGradient id="paint5_linear_240_1137" x1="327.72" y1="284.35" x2="329.512" y2="275.008" gradientUnits="userSpaceOnUse">
<stop stop-color="#E6E7E8"/>
<stop offset="1"/>
</linearGradient>
<linearGradient id="paint6_linear_240_1137" x1="325.383" y1="298.368" x2="329.078" y2="279.104" gradientUnits="userSpaceOnUse">
<stop stop-color="#E6E7E8"/>
<stop offset="0.1" stop-color="#E0E1E2"/>
<stop offset="0.2" stop-color="#D1D2D3"/>
<stop offset="0.4" stop-color="#B7B8B9"/>
<stop offset="0.5" stop-color="#949595"/>
<stop offset="0.7" stop-color="#666767"/>
<stop offset="0.9" stop-color="#303030"/>
<stop offset="1"/>
</linearGradient>
<linearGradient id="paint7_linear_240_1137" x1="390.693" y1="298.507" x2="392.628" y2="288.417" gradientUnits="userSpaceOnUse">
<stop/>
<stop offset="1" stop-color="#E6E7E8"/>
</linearGradient>
<linearGradient id="paint8_linear_240_1137" x1="390.06" y1="296.959" x2="391.454" y2="289.693" gradientUnits="userSpaceOnUse">
<stop stop-color="#E6E7E8"/>
<stop offset="1"/>
</linearGradient>
<linearGradient id="paint9_linear_240_1137" x1="389.656" y1="330.369" x2="403.887" y2="256.188" gradientUnits="userSpaceOnUse">
<stop stop-color="#E6E7E8"/>
<stop offset="1"/>
</linearGradient>
<linearGradient id="paint10_linear_240_1137" x1="1362.18" y1="279.184" x2="1333.69" y2="345.82" gradientUnits="userSpaceOnUse">
<stop stop-color="#FAC227"/>
<stop offset="1" stop-color="#FAA627"/>
</linearGradient>
<linearGradient id="paint11_linear_240_1137" x1="1357.47" y1="304.525" x2="1338.86" y2="348.033" gradientUnits="userSpaceOnUse">
<stop stop-color="#FA7F27"/>
<stop offset="1" stop-color="#FA9427"/>
</linearGradient>
<linearGradient id="paint12_linear_240_1137" x1="1363.15" y1="264.507" x2="1327.74" y2="347.324" gradientUnits="userSpaceOnUse">
<stop stop-color="#FCE4B1"/>
<stop offset="1" stop-color="#FFD272"/>
</linearGradient>
<clipPath id="clip0_240_1137">
<rect width="310" height="307" fill="white" transform="matrix(-0.989171 -0.146767 -0.146767 0.989171 502.7 45.4977)"/>
</clipPath>
</defs>
</svg>
