<?xml version="1.0" encoding="UTF-8"?>
<svg id="Layer_2" data-name="Layer 2" xmlns="http://www.w3.org/2000/svg" viewBox="0 0 44.6 37">
  <defs>
    <style>
      .cls-1 {
        fill: #e30e00;
      }
    </style>
  </defs>
  <g id="Layer_1-2" data-name="Layer 1">
    <path class="cls-1" d="M.5,0h12.3c.3,0,.5.1.7.3l14.8,17.4c.3.3.3.8,0,1.1l-15.5,17.8c-.2.3-.6.4-.9.4H0s14.4-18.5,14.4-18.5L.5,0Z"/>
    <path class="cls-1" d="M26,11.1l3.9,4.4c.2.3.7.3.9,0L44.6,0h-10.5c-.4.2-.8.3-1.1.6l-7,8.1c-.6.7-.6,1.7,0,2.4Z"/>
    <path class="cls-1" d="M30,20.9l-4.4,5.2c-.3.4-.3,1,0,1.4l8,9.1c.3.3.6.5,1,.5h10.1l-13.7-16.2c-.2-.3-.7-.3-.9,0Z"/>
  </g>
</svg>