<svg width="509" height="534" viewBox="0 0 509 534" fill="none" xmlns="http://www.w3.org/2000/svg">
<g clip-path="url(#clip0_114_77)" filter="url(#filter0_d_114_77)">
<path d="M344.584 115.507L413.849 75.4465L483.246 115.507L413.849 155.567L344.584 115.507Z" fill="#F5F9FF"/>
<path d="M413.849 155.567L344.584 115.507V534H413.849V155.567Z" fill="url(#paint0_linear_114_77)"/>
<path d="M413.848 155.567L483.246 115.507V534H413.848V155.567Z" fill="url(#paint1_linear_114_77)"/>
<path d="M252.098 222.333L321.496 182.273L390.76 222.333L321.496 262.393L252.098 222.333Z" fill="#F5F9FF"/>
<path d="M321.496 262.393L252.098 222.333V534H321.496V262.393Z" fill="url(#paint2_linear_114_77)"/>
<path d="M321.496 262.393L390.76 222.333V534H321.496V262.393Z" fill="url(#paint3_linear_114_77)"/>
<path d="M159.745 329.026L229.01 289.1L298.408 329.026L229.01 369.086L159.745 329.026Z" fill="#F5F9FF"/>
<path d="M229.01 369.086L159.745 329.026V534H229.01V369.086Z" fill="url(#paint4_linear_114_77)"/>
<path d="M229.01 369.086L298.408 329.026V534H229.01V369.086Z" fill="url(#paint5_linear_114_77)"/>
<path d="M67.2588 409.146L136.657 369.086L205.921 409.146L136.657 449.206L67.2588 409.146Z" fill="#F5F9FF"/>
<path d="M136.657 449.206L67.2588 409.146V534H136.657V449.206Z" fill="url(#paint6_linear_114_77)"/>
<path d="M136.657 449.206L205.921 409.146V534H136.657V449.206Z" fill="url(#paint7_linear_114_77)"/>
<path d="M420.788 111.501C417.051 109.364 410.912 109.364 407.176 111.501C403.439 113.637 403.439 117.243 407.176 119.379C410.912 121.516 417.051 121.516 420.788 119.379C424.525 117.243 424.525 113.637 420.788 111.501Z" fill="#E3EBF6"/>
<path d="M455.354 75.3129C455.354 75.3129 455.354 75.0459 455.354 74.9123C455.354 74.6453 455.354 74.3782 455.354 74.1111C455.354 73.8441 455.354 73.577 455.354 73.1764C455.354 72.9093 455.354 72.7758 455.354 72.5087C455.354 72.2417 455.354 71.9746 455.354 71.7075C455.354 71.574 455.354 71.3069 455.354 71.1734C455.354 70.7728 455.354 70.3722 455.354 69.9716C455.354 69.7045 455.354 69.571 455.354 69.3039C455.354 69.3039 455.354 69.1704 455.354 69.0369C455.354 68.3692 455.22 67.7015 455.087 66.9003V66.6333C455.087 66.0991 454.953 65.4315 454.82 64.8973V64.6303C454.82 64.3632 454.82 64.0961 454.687 63.8291C454.687 63.4285 454.687 63.1614 454.42 62.7608C454.42 62.6273 454.42 62.3602 454.42 62.2267C454.42 61.9596 454.286 61.559 454.153 61.2919C454.153 61.0249 454.153 60.8913 454.019 60.6243C454.019 60.3572 453.886 60.0901 453.752 59.8231C453.752 59.556 453.619 59.1554 453.485 58.8883C453.485 58.7548 453.485 58.6213 453.485 58.4877C453.485 58.0871 453.219 57.6865 453.085 57.2859C453.085 57.0189 452.952 56.7518 452.818 56.4847C452.818 56.4847 452.818 56.3512 452.818 56.2177C452.551 55.55 452.418 54.7488 452.151 54.0811C452.151 54.0811 452.151 54.0811 452.151 53.9476C451.884 53.2799 451.751 52.7458 451.484 52.0781C451.484 52.0781 451.484 51.9446 451.484 51.8111C451.484 51.544 451.35 51.2769 451.217 51.1434C451.217 50.7428 450.95 50.4757 450.816 50.0751C450.816 49.8081 450.683 49.6745 450.549 49.4075C450.549 49.1404 450.282 48.8733 450.282 48.6063C450.282 48.4727 450.149 48.2057 450.016 48.0721C449.882 47.6715 449.749 47.2709 449.482 46.8703C449.482 46.6033 449.348 46.4697 449.215 46.2027C449.215 46.2027 449.215 46.0691 449.215 45.9356C448.948 45.2679 448.681 44.6003 448.281 43.9326C448.281 43.7991 448.147 43.532 448.014 43.3985C447.747 42.8643 447.48 42.3302 447.213 41.9296C447.213 41.9296 447.213 41.7961 447.213 41.6625C446.946 41.2619 446.813 40.8613 446.546 40.4607C446.412 40.1937 446.145 39.7931 446.012 39.526C446.012 39.526 446.012 39.526 446.012 39.3925C445.478 38.3242 444.811 37.2559 444.277 36.1877C444.277 36.1877 444.277 36.0541 444.143 35.9206C444.143 35.9206 444.143 35.7871 444.01 35.6535C443.076 34.1847 442.275 32.7158 441.341 31.2469C441.341 31.2469 441.341 31.1134 441.207 30.9799C441.207 30.9799 441.074 30.7128 440.94 30.5793C440.14 29.511 439.339 28.3092 438.538 27.2409C438.004 26.4397 437.337 25.7721 436.803 24.9709C436.403 24.4367 436.003 23.9026 435.469 23.3685C435.469 23.3685 435.335 23.1014 435.202 22.9679C434.668 22.3002 434.134 21.7661 433.6 21.0984C433.467 20.9649 433.333 20.6978 433.066 20.5643C432.666 20.1637 432.399 19.7631 431.999 19.3625C431.999 19.3625 431.999 19.2289 431.865 19.0954C431.598 18.8283 431.332 18.5613 431.198 18.2942C430.931 18.0271 430.664 17.7601 430.397 17.493C430.397 17.493 430.264 17.3595 430.13 17.2259C429.863 16.9589 429.597 16.6918 429.33 16.4247C429.063 16.1577 428.929 16.0241 428.662 15.7571C428.662 15.7571 428.395 15.49 428.262 15.3565C427.995 15.0894 427.728 14.8223 427.461 14.5553C427.328 14.4217 427.061 14.1547 426.927 14.0211C426.794 13.8876 426.66 13.7541 426.527 13.6205C426.26 13.3535 425.993 13.0864 425.726 12.8193C425.593 12.6858 425.326 12.5523 425.192 12.4187C425.059 12.2852 424.792 12.1517 424.659 12.0181C424.392 11.7511 424.125 11.6175 423.858 11.3505C423.724 11.3505 423.591 11.0834 423.457 10.9499C423.191 10.8163 422.924 10.5493 422.79 10.4157C422.523 10.2822 422.256 10.0151 421.989 9.88159C421.989 9.88159 421.723 9.74805 421.723 9.61452C421.456 9.34745 421.055 9.21392 420.788 8.94685C420.521 8.81332 420.388 8.67979 420.121 8.54625C420.121 8.54625 420.121 8.54625 419.988 8.54625C419.454 8.14565 418.786 7.74505 418.253 7.34445C417.719 6.94385 417.185 6.67678 416.651 6.40972C416.518 6.40972 416.384 6.27618 416.251 6.14265C415.85 5.87558 415.317 5.60852 414.916 5.34145C414.783 5.34145 414.649 5.20792 414.382 5.07438C414.115 5.07438 413.982 4.80732 413.715 4.67378C413.582 4.67378 413.315 4.54025 413.181 4.40672C412.914 4.27318 412.647 4.13965 412.381 4.00612C412.247 4.00612 411.98 3.87258 411.847 3.73905C411.847 3.73905 411.713 3.73905 411.58 3.73905C411.046 3.47198 410.512 3.20492 409.978 3.07138C409.444 2.80432 408.911 2.67078 408.377 2.40372C408.377 2.40372 408.243 2.40372 408.11 2.40372C407.976 2.40372 407.709 2.40372 407.576 2.27018C407.309 2.27018 407.042 2.13665 406.775 2.00312C406.642 2.00312 406.508 2.00312 406.375 2.00312C406.108 2.00312 405.841 1.86958 405.708 1.73605C405.574 1.73605 405.307 1.73605 405.174 1.60252C405.04 1.60252 404.773 1.60252 404.64 1.60252C404.373 1.60252 404.106 1.60252 403.973 1.46898C403.973 1.46898 403.706 1.46898 403.572 1.46898C403.305 1.46898 403.172 1.46898 402.905 1.46898C402.638 1.46898 402.371 1.46898 402.104 1.33545C402.104 1.33545 401.971 1.33545 401.837 1.33545C401.57 1.33545 401.437 1.33545 401.17 1.33545C400.903 1.33545 400.636 1.33545 400.236 1.33545C400.236 1.33545 400.102 1.33545 399.969 1.33545C399.702 1.33545 399.569 1.33545 399.435 1.33545C399.035 1.33545 398.768 1.33545 398.367 1.33545C398.367 1.33545 398.234 1.33545 398.101 1.33545C397.967 1.33545 397.834 1.33545 397.7 1.33545C397.3 1.33545 396.766 1.33545 396.366 1.33545C396.366 1.33545 396.099 1.33545 395.965 1.33545C395.965 1.33545 395.832 1.33545 395.698 1.33545C395.031 1.33545 394.364 1.46898 393.696 1.60252C393.696 1.60252 393.696 1.60252 393.563 1.60252C393.563 1.60252 393.296 1.60252 393.163 1.60252C392.762 1.60252 392.362 1.73605 391.962 1.86958C391.828 1.86958 391.561 1.86958 391.428 2.00312C391.161 2.00312 390.894 2.13665 390.627 2.27018C390.627 2.27018 390.627 2.27018 390.493 2.27018C390.093 2.40372 389.826 2.53725 389.426 2.67078C389.292 2.67078 389.025 2.80432 388.892 2.93785C388.358 3.20492 387.824 3.47198 387.29 3.73905L377.148 9.61452C377.682 9.34745 378.215 9.08039 378.749 8.81332C378.883 8.81332 379.15 8.67979 379.283 8.54625C379.683 8.41272 379.95 8.27918 380.351 8.14565C380.618 8.14565 381.018 7.87858 381.285 7.87858C381.418 7.87858 381.685 7.87859 381.819 7.74505C382.219 7.74505 382.619 7.47798 383.02 7.47798C383.02 7.47798 383.287 7.47798 383.42 7.47798C383.42 7.47798 383.554 7.47798 383.687 7.47798C384.354 7.47798 385.022 7.21092 385.689 7.21092C385.956 7.21092 386.089 7.21092 386.356 7.21092C386.757 7.21092 387.157 7.21092 387.691 7.21092C387.958 7.21092 388.225 7.21092 388.492 7.21092C388.892 7.21092 389.159 7.21092 389.559 7.21092C389.826 7.21092 390.093 7.21092 390.36 7.21092C390.627 7.21092 390.894 7.21092 391.294 7.21092C391.561 7.21092 391.961 7.21092 392.228 7.21092C392.495 7.21092 392.762 7.21092 393.029 7.34445C393.43 7.34445 393.696 7.34445 394.097 7.47798C394.364 7.47798 394.631 7.47798 394.764 7.61152C395.164 7.61152 395.565 7.74505 395.965 7.87858C396.232 7.87858 396.499 7.87858 396.633 8.14565C397.033 8.14565 397.433 8.41272 397.834 8.54625C397.967 8.54625 398.234 8.54625 398.367 8.67979C399.569 9.08039 400.903 9.61452 402.104 10.1487C402.238 10.1487 402.505 10.2822 402.638 10.4157C403.038 10.6828 403.572 10.8163 403.973 11.0834C404.24 11.0834 404.373 11.3505 404.64 11.484C405.307 11.7511 405.841 12.1517 406.508 12.4187C407.176 12.8193 407.843 13.2199 408.51 13.6205C409.178 14.0211 409.845 14.4217 410.512 14.9559C410.779 15.0894 410.912 15.2229 411.179 15.49C411.58 15.7571 411.98 16.1577 412.514 16.4247C412.781 16.5583 413.048 16.8253 413.315 16.9589C413.715 17.2259 414.115 17.493 414.516 17.8936C414.783 18.1607 415.05 18.2942 415.317 18.5613C415.717 18.8283 415.984 19.2289 416.384 19.496C416.651 19.7631 416.918 20.0301 417.185 20.2972C417.585 20.5643 417.852 20.9649 418.253 21.2319C418.52 21.499 418.786 21.7661 419.053 22.0331C419.454 22.4337 419.721 22.7008 420.121 23.1014C420.388 23.3685 420.655 23.6355 420.922 23.9026C421.322 24.3032 421.589 24.7038 421.989 24.9709C422.256 25.2379 422.523 25.505 422.657 25.7721C423.057 26.1727 423.458 26.7068 423.858 27.1074C423.991 27.2409 424.258 27.508 424.392 27.6415C424.926 28.3092 425.593 28.9769 426.127 29.6445C426.127 29.6445 426.26 29.9116 426.394 30.0451C426.794 30.5793 427.328 31.2469 427.728 31.7811C428.262 32.5823 428.929 33.2499 429.463 34.0511C430.264 35.1194 431.065 36.3212 431.865 37.3895C431.999 37.6565 432.132 37.7901 432.266 38.0571C433.2 39.526 434.134 40.9949 434.935 42.4637C434.935 42.5973 435.202 42.8643 435.335 42.9979C436.003 44.0661 436.536 45.1344 437.07 46.2027C437.337 46.6033 437.471 47.0039 437.737 47.4045C438.004 47.8051 438.138 48.2057 438.405 48.6063C438.672 49.1404 438.939 49.8081 439.206 50.3422C439.206 50.4757 439.339 50.7428 439.472 50.8763C439.873 51.6775 440.14 52.3452 440.54 53.1464C440.54 53.4135 440.674 53.547 440.807 53.8141C441.074 54.3482 441.341 55.0159 441.474 55.55C441.474 55.8171 441.741 56.0841 441.741 56.3512C442.008 56.8853 442.142 57.4195 442.408 57.9536C442.408 58.2207 442.542 58.4877 442.675 58.6213C442.942 59.2889 443.209 60.0901 443.476 60.7578C443.476 60.7578 443.476 60.7578 443.476 60.8913C443.743 61.6925 444.01 62.4937 444.277 63.2949C444.277 63.562 444.41 63.8291 444.544 64.0961C444.677 64.6303 444.811 65.1644 444.944 65.6985C444.944 65.9656 445.078 66.3662 445.211 66.6333C445.211 67.1674 445.478 67.7015 445.611 68.1021C445.611 68.3692 445.745 68.7698 445.878 69.0369C445.878 69.571 446.145 70.1051 446.279 70.6393C446.279 70.9063 446.279 71.1734 446.412 71.4405C446.412 72.1081 446.679 72.7758 446.813 73.4435V73.7105C446.813 74.5117 447.08 75.3129 447.08 76.1141C447.08 76.3812 447.08 76.5147 447.08 76.7818C447.08 77.3159 447.08 77.8501 447.213 78.5177C447.213 78.7848 447.213 79.0519 447.213 79.3189C447.213 79.8531 447.213 80.3872 447.213 80.9213C447.213 81.1884 447.213 81.4555 447.213 81.7225C447.213 82.5238 447.213 83.1914 447.213 83.9926C447.213 84.7938 447.213 85.4615 447.213 86.2627C447.213 86.5297 447.213 86.6633 447.213 86.9303C447.213 87.4645 447.213 87.9986 447.213 88.3992C447.213 88.6663 447.213 88.9333 447.213 89.2004C447.213 89.601 447.213 90.0016 447.08 90.4022C447.08 90.6693 447.079 91.0699 446.946 91.337C446.946 91.7375 446.946 92.1381 446.813 92.4052C446.813 92.6723 446.813 93.0729 446.679 93.34C446.679 93.7406 446.546 94.0076 446.412 94.2747C446.412 94.6753 446.279 95.0759 446.145 95.3429C446.145 95.61 446.012 95.8771 445.878 96.1441C445.745 96.5448 445.611 97.0789 445.478 97.4795C445.478 97.7466 445.345 98.0136 445.211 98.1471C444.944 98.8148 444.677 99.616 444.277 100.284C444.01 100.818 443.743 101.352 443.476 101.753C443.209 102.287 442.942 102.687 442.675 103.221C442.275 103.889 441.741 104.557 441.341 105.091C441.341 105.224 441.074 105.358 440.94 105.491C440.54 106.026 440.006 106.56 439.472 107.094C438.939 107.628 438.405 108.029 437.871 108.563C437.737 108.563 437.604 108.83 437.471 108.83C436.937 109.23 436.269 109.631 435.602 110.032L445.745 104.156C446.412 103.756 446.946 103.355 447.613 102.954C447.747 102.954 447.88 102.687 448.014 102.687C448.548 102.287 449.081 101.753 449.615 101.218C450.149 100.684 450.549 100.15 451.083 99.616C451.083 99.4825 451.35 99.349 451.484 99.2154C452.017 98.6813 452.418 98.0136 452.818 97.346C453.085 96.9454 453.352 96.4112 453.619 96.0106C453.886 95.4765 454.153 95.0759 454.42 94.5418C454.687 93.8741 455.087 93.2064 455.354 92.4052C455.354 92.4052 455.354 92.4052 455.354 92.2717C455.354 92.1381 455.354 91.8711 455.487 91.7375C455.621 91.3369 455.754 90.9363 455.888 90.4022C455.888 90.4022 455.888 90.1351 455.888 90.0016C455.888 89.8681 455.888 89.601 456.021 89.4675C456.021 89.0669 456.288 88.6663 456.288 88.3992C456.288 88.2657 456.288 88.1321 456.288 87.9986C456.288 87.8651 456.288 87.598 456.288 87.4645C456.288 87.1974 456.422 86.7968 456.422 86.5298C456.422 86.3962 456.422 86.1292 456.422 85.9956C456.422 85.7285 456.422 85.595 456.422 85.3279C456.422 85.0609 456.422 84.7938 456.555 84.3932C456.555 84.2597 456.555 84.1262 456.555 83.9926C456.555 83.7255 456.555 83.4585 456.555 83.1914C456.555 82.9243 456.555 82.6573 456.555 82.3902C456.555 82.3902 456.555 82.1231 456.555 81.9896C456.555 81.589 456.555 81.1884 456.555 80.7878C456.555 80.5207 456.555 80.3872 456.555 80.1201C456.555 80.1201 456.555 80.1201 456.555 79.9866C456.555 79.3189 456.555 78.6513 456.555 77.9836C456.555 77.3159 456.555 76.7818 456.555 76.1141L455.354 75.3129Z" fill="#002055"/>
<path d="M403.973 11.6176C426.794 24.8374 445.344 56.7519 445.211 83.058C445.211 109.364 426.527 119.913 403.706 106.693C380.884 93.4736 362.334 61.5591 362.467 35.253C362.467 8.94695 381.151 -1.60219 403.973 11.6176Z" fill="#CA0006" fill-opacity="0.8"/>
<path d="M403.839 89.2004C389.559 80.9214 378.082 60.7578 378.082 44.1997C378.082 27.6416 389.826 20.8314 403.973 28.9769C418.253 37.256 429.73 57.4195 429.73 73.9776C429.73 90.5358 417.986 97.346 403.839 89.2004ZM403.973 18.2942C384.621 7.07742 368.873 16.2912 368.873 38.8584C368.873 61.4255 384.488 88.6663 403.706 99.8831C423.057 111.1 438.805 101.886 438.805 79.319C438.805 56.7518 423.191 29.511 403.973 18.2942Z" fill="#FFFEFF"/>
<path d="M403.839 66.0993C400.503 64.0963 397.7 59.4226 397.7 55.4166C397.7 51.5441 400.503 49.8082 403.839 51.8112C407.176 53.8142 409.978 58.4879 409.978 62.4939C409.978 66.3663 407.176 68.1023 403.839 66.0993ZM403.973 41.2621C395.565 36.4549 388.625 40.4609 388.625 50.2088C388.625 59.9567 395.431 71.9748 403.839 76.782C412.247 81.5892 419.187 77.5832 419.187 67.8352C419.187 58.0873 412.38 46.0693 403.973 41.2621Z" fill="#FFFEFF"/>
<path d="M235.816 321.816C232.079 319.679 225.94 319.679 222.203 321.816C218.466 323.952 218.466 327.558 222.203 329.694C225.94 331.831 232.079 331.831 235.816 329.694C239.553 327.558 239.553 323.952 235.816 321.816Z" fill="#E3EBF6"/>
<path d="M227.942 214.722C222.737 216.191 216.465 214.722 210.059 211.117C207.656 209.781 205.254 208.045 202.985 206.042L200.45 203.906L188.705 210.716L191.241 212.852C193.643 214.855 196.046 216.591 198.314 217.927C204.72 221.666 210.993 222.867 216.198 221.532L221.402 220.063L233.147 213.253L227.942 214.722Z" fill="#262E8A"/>
<path d="M263.575 241.028C263.041 240.895 262.508 240.628 261.974 240.494C261.974 240.494 261.707 240.494 261.573 240.36C261.173 240.227 260.639 239.96 260.239 239.826H259.972C259.438 239.559 258.904 239.292 258.37 239.025C258.37 239.025 258.103 239.025 257.97 238.892C257.436 238.625 256.902 238.357 256.369 238.09C255.701 237.69 254.9 237.156 254.233 236.755C254.233 236.755 253.966 236.622 253.966 236.488C253.299 236.087 252.632 235.553 251.964 235.019C251.964 235.019 251.697 234.886 251.564 234.752C250.897 234.218 250.229 233.684 249.562 233.15C249.562 233.15 249.429 233.016 249.295 232.883C248.628 232.348 247.961 231.814 247.427 231.147C247.427 231.147 247.293 231.013 247.16 230.88C246.493 230.212 245.825 229.544 245.158 228.877C245.158 228.877 244.891 228.61 244.891 228.476C244.224 227.808 243.69 227.141 243.023 226.339C243.023 226.339 242.756 226.072 242.756 225.939C242.089 225.271 241.555 224.47 240.887 223.669C240.887 223.669 240.754 223.402 240.621 223.268C239.953 222.467 239.419 221.666 238.886 220.865L233.547 213.253L221.803 220.063L227.141 227.675C227.408 228.209 227.809 228.61 228.209 229.01C228.476 229.411 228.743 229.678 229.01 230.078C229.01 230.078 229.277 230.345 229.277 230.479C229.277 230.479 229.277 230.613 229.41 230.746C229.81 231.28 230.211 231.681 230.611 232.215C230.745 232.348 230.878 232.616 231.145 232.749C231.145 232.749 231.412 233.016 231.412 233.15C231.412 233.283 231.679 233.417 231.812 233.55C232.213 233.951 232.613 234.485 233.013 234.886C233.013 234.886 233.28 235.153 233.28 235.286C233.28 235.286 233.547 235.553 233.681 235.687C233.814 235.82 234.081 236.087 234.215 236.221C234.615 236.622 235.015 237.022 235.549 237.556C235.549 237.556 235.683 237.69 235.816 237.823C236.083 238.09 236.483 238.491 236.75 238.758C237.017 239.025 237.418 239.292 237.684 239.559C237.684 239.559 237.818 239.693 237.951 239.826C237.951 239.826 237.951 239.826 238.085 239.96C238.485 240.36 239.019 240.761 239.419 241.028C239.553 241.162 239.82 241.295 239.953 241.429C239.953 241.429 240.22 241.562 240.354 241.696C240.487 241.696 240.621 241.963 240.754 241.963C241.154 242.23 241.555 242.631 242.089 242.898C242.089 242.898 242.355 243.031 242.355 243.165C242.355 243.165 242.622 243.298 242.622 243.432C242.889 243.565 243.023 243.699 243.29 243.832C243.69 244.099 244.09 244.366 244.491 244.634C244.491 244.634 244.624 244.634 244.758 244.767C245.025 244.901 245.425 245.168 245.692 245.301C245.959 245.301 246.092 245.568 246.359 245.568C246.359 245.568 246.626 245.568 246.76 245.702C246.76 245.702 246.893 245.702 247.026 245.702C247.427 245.835 247.827 246.102 248.228 246.236C248.228 246.236 248.228 246.236 248.361 246.236H248.628C248.895 246.236 249.162 246.503 249.429 246.503C249.696 246.503 249.829 246.637 250.096 246.77C250.096 246.77 250.363 246.77 250.496 246.904C250.496 246.904 250.63 246.904 250.763 246.904C251.164 247.037 251.564 247.171 251.964 247.304C251.964 247.304 252.098 247.304 252.231 247.304L254.634 247.972L266.378 241.162L263.976 240.494L263.575 241.028Z" fill="#474EB8"/>
<path d="M254.233 248.64C254.233 249.441 254.233 264.53 254.233 292.171C254.233 292.839 254.233 293.373 254.233 294.041C254.233 294.174 254.233 294.308 254.233 294.442C254.233 295.643 253.966 296.712 253.833 297.913C253.833 298.047 253.833 298.18 253.833 298.448C253.833 298.848 253.699 299.115 253.566 299.516C253.566 299.783 253.566 299.916 253.432 300.183C253.432 300.451 253.299 300.718 253.166 300.985C253.166 301.252 253.032 301.519 252.899 301.786C252.899 302.053 252.765 302.186 252.632 302.454C252.498 302.854 252.231 303.255 252.098 303.655C252.098 303.789 251.964 303.922 251.831 304.189C251.431 304.857 251.164 305.525 250.763 306.192C250.763 306.326 250.496 306.593 250.363 306.727C250.363 306.86 250.096 307.127 249.963 307.261C249.829 307.528 249.696 307.661 249.429 307.928C249.429 308.062 249.162 308.329 249.028 308.463C248.895 308.73 248.628 308.863 248.495 308.997C248.361 309.13 248.228 309.264 248.094 309.397C247.961 309.531 247.694 309.798 247.56 309.931C247.427 310.065 247.293 310.198 247.16 310.332C247.027 310.466 246.76 310.733 246.626 310.866C246.493 310.866 246.359 311.133 246.226 311.267C245.959 311.4 245.825 311.667 245.558 311.801C245.425 311.801 245.292 312.068 245.158 312.068C244.891 312.201 244.624 312.469 244.357 312.602C244.357 312.602 244.09 312.736 243.957 312.869C243.557 313.136 243.156 313.403 242.756 313.537L254.5 306.727C254.901 306.46 255.301 306.326 255.568 306.059C255.568 306.059 255.835 305.925 255.968 305.792C256.235 305.658 256.502 305.391 256.769 305.258C256.902 305.258 257.036 304.991 257.169 304.991C257.436 304.857 257.57 304.724 257.837 304.457C257.97 304.457 258.103 304.189 258.237 304.056C258.504 303.922 258.637 303.655 258.771 303.522C258.904 303.388 259.038 303.255 259.171 303.121C259.305 302.988 259.572 302.721 259.705 302.587C259.838 302.454 259.972 302.32 260.105 302.186C260.239 302.053 260.506 301.786 260.639 301.652C260.773 301.519 260.906 301.252 261.04 301.118C261.173 300.851 261.306 300.718 261.573 300.451C261.573 300.317 261.84 300.05 261.974 299.916C261.974 299.916 262.107 299.649 262.241 299.516C262.241 299.516 262.241 299.516 262.241 299.382C262.641 298.715 263.041 298.047 263.308 297.379C263.308 297.379 263.308 297.112 263.442 296.979C263.575 296.578 263.842 296.177 263.976 295.777C263.976 295.777 263.976 295.51 264.109 295.51C264.109 295.51 264.109 295.243 264.109 295.109C264.109 294.842 264.243 294.575 264.376 294.308C264.376 294.174 264.376 294.041 264.509 293.907C264.509 293.907 264.509 293.64 264.509 293.507C264.509 293.24 264.509 293.106 264.643 292.839C264.643 292.706 264.643 292.572 264.643 292.439C264.643 292.171 264.643 292.038 264.643 291.771C264.643 291.637 264.643 291.504 264.643 291.237C264.643 291.237 264.643 291.103 264.643 290.97C264.643 290.569 264.776 290.035 264.91 289.501C264.91 289.1 264.91 288.7 264.91 288.165C264.91 288.032 264.91 287.898 264.91 287.765C264.91 287.631 264.91 287.498 264.91 287.364C264.91 287.231 264.91 287.097 264.91 286.964C264.91 286.563 264.91 286.029 264.91 285.628C264.91 257.987 264.91 242.898 264.91 242.096L253.166 248.907L254.233 248.64Z" fill="#474EB8"/>
<path d="M251.697 247.972L254.1 248.64C254.1 249.441 254.1 264.53 254.1 292.171C254.1 319.813 222.871 318.344 221.136 318.21C219.534 316.341 188.438 281.889 188.438 254.248C188.438 226.607 188.438 211.517 188.438 210.716L190.974 212.853C193.376 214.856 195.779 216.592 198.047 217.927C204.453 221.666 210.726 222.868 215.931 221.532L221.136 220.063L226.474 227.675C231.679 235.019 237.951 240.895 244.224 244.634C246.626 245.969 249.028 247.037 251.43 247.838L251.697 247.972Z" fill="url(#paint8_linear_114_77)"/>
<path d="M221.402 245.568C231.545 251.444 239.686 265.598 239.686 277.216C239.686 288.833 231.412 293.507 221.269 287.765C211.126 282.023 202.985 267.735 202.985 256.117C202.985 244.5 211.26 239.826 221.402 245.568Z" fill="#FFFEFF"/>
<path d="M228.609 261.726L232.346 268.135L218.199 276.281L210.325 262.527L214.062 260.39L218.199 267.601L228.609 261.726Z" fill="#CA0006" fill-opacity="0.8"/>
<path d="M143.33 403.004C139.593 400.867 133.454 400.867 129.717 403.004C125.98 405.14 125.98 408.746 129.717 410.882C133.454 413.019 139.593 413.019 143.33 410.882C147.067 408.746 147.067 405.14 143.33 403.004Z" fill="#E3EBF6"/>
<path d="M146.666 396.194C146.666 396.194 146.666 396.194 146.666 396.06C146.666 396.06 146.666 396.06 146.666 395.926C146.666 395.926 146.666 395.926 146.666 395.793C146.666 395.793 146.666 395.793 146.533 395.793C146.533 395.793 146.533 395.793 146.399 395.659C146.399 395.659 146.399 395.659 146.266 395.659C146.266 395.659 146.132 395.659 145.999 395.526C145.999 395.526 145.999 395.526 145.865 395.526C145.865 395.526 145.732 395.526 145.598 395.392C145.598 395.392 145.332 395.392 145.332 395.259C145.332 395.259 145.198 395.259 145.065 395.125C145.065 395.125 145.065 395.125 144.931 395.125C144.931 395.125 144.931 395.125 144.798 395.125C144.798 395.125 144.798 395.125 144.664 395.125C144.664 395.125 144.664 395.125 144.531 395.125C144.531 395.125 144.531 395.125 144.397 395.125C144.397 395.125 144.397 395.125 144.264 395.125C144.264 395.125 144.264 395.125 144.13 395.125C144.13 395.125 143.997 395.125 143.863 395.125C143.863 395.125 143.73 395.125 143.597 395.125C143.597 395.125 143.463 395.125 143.33 395.125C143.33 395.125 143.196 395.125 143.063 395.125C142.929 395.125 142.929 395.125 142.796 395.125C142.796 395.125 142.796 395.125 142.662 395.125C142.662 395.125 142.662 395.125 142.529 395.125C142.529 395.125 142.529 395.125 142.395 395.125C142.395 395.125 142.262 395.125 142.129 395.125C142.129 395.125 142.129 395.125 141.995 395.125C141.862 395.125 141.728 395.125 141.461 395.125C141.461 395.125 141.461 395.125 141.328 395.125C141.194 395.125 141.061 395.125 140.927 395.125H140.661C140.661 395.125 140.527 395.125 140.394 395.125C140.394 395.125 140.26 395.125 140.127 395.125C140.127 395.125 139.993 395.125 139.86 395.125C139.593 395.125 139.459 395.125 139.192 395.259C139.192 395.259 139.192 395.259 139.059 395.259C138.125 395.526 137.324 395.793 136.657 396.327C136.39 396.327 136.256 396.594 136.123 396.728C135.989 396.728 135.723 396.995 135.589 397.128C135.589 397.128 135.589 397.128 135.456 397.128C135.456 397.128 135.322 397.262 135.189 397.395C135.189 397.395 135.055 397.529 134.922 397.662C134.922 397.662 134.922 397.662 134.788 397.796C133.988 396.861 133.721 395.926 133.721 394.992C133.721 394.992 133.721 395.125 133.721 395.259V395.526C133.721 397.128 133.988 398.33 134.121 399.131C134.121 399.131 134.121 399.265 134.121 399.398V399.665C134.121 399.665 134.121 399.799 134.121 399.932V400.066C134.121 400.6 134.255 400.6 134.388 400.867C134.388 400.867 134.388 400.867 134.388 401.001C134.388 401.001 134.521 401.134 134.655 401.268L134.922 401.535H135.055C135.055 401.802 135.055 401.802 135.189 401.802H135.322C135.322 401.935 135.322 401.935 135.322 402.069C135.322 402.069 135.322 402.069 135.456 402.069C135.456 402.069 135.589 402.069 135.723 402.203C135.723 402.203 135.723 402.336 135.856 402.336C135.856 402.336 135.856 402.336 135.989 402.336C135.989 402.336 135.989 402.336 136.123 402.336C136.123 402.336 136.256 402.336 136.39 402.47C138.392 403.404 140.527 403.671 142.662 403.671C142.796 403.671 142.929 403.671 143.063 403.671C143.063 403.671 143.196 403.671 143.33 403.671C143.33 403.671 143.463 403.671 143.597 403.671C143.73 403.671 143.863 403.671 144.13 403.671C144.664 403.671 145.065 403.538 145.332 403.404C145.332 403.404 145.465 403.404 145.598 403.404C145.598 403.404 145.732 403.404 145.865 403.404H145.999C145.999 403.404 146.132 403.404 146.266 403.404C146.266 403.404 146.266 403.404 146.399 403.404C146.399 403.404 146.666 403.404 146.666 403.271C146.666 403.271 146.933 403.271 147.066 403.137C147.066 403.137 147.333 403.137 147.333 403.004C147.333 403.004 147.6 403.004 147.6 402.87C147.734 402.87 148.001 402.603 148.134 402.47C148.134 402.47 148.134 402.336 148.268 402.336C148.268 402.336 148.401 402.336 148.535 402.203L148.801 401.935C148.801 401.935 149.068 401.668 149.202 401.535C149.202 401.535 149.335 401.268 149.469 401.134C149.469 401.134 149.469 401.134 149.469 401.001C149.469 401.001 149.469 401.001 149.469 400.867L146.666 396.194Z" fill="#474EB8"/>
<path d="M153.206 388.716C153.206 386.846 152.805 385.11 151.738 383.508C149.602 380.17 145.198 378.033 140.26 377.232C139.993 377.232 139.593 377.232 139.326 377.232C139.326 377.232 139.193 377.232 139.059 377.232C138.792 377.232 138.392 377.232 138.125 377.232C138.125 377.232 137.992 377.232 137.858 377.232C137.725 377.232 137.591 377.232 137.458 377.232C137.458 377.232 137.324 377.232 137.191 377.232H136.924C136.924 377.232 136.924 377.232 136.79 377.232C136.657 377.232 136.39 377.232 136.257 377.232C136.257 377.232 136.123 377.232 135.99 377.232C135.723 377.232 135.456 377.232 135.189 377.232C135.189 377.232 135.055 377.232 134.922 377.232C134.655 377.232 134.388 377.232 134.255 377.232C134.255 377.232 133.988 377.232 133.854 377.232C133.854 377.232 133.721 377.232 133.587 377.232C133.587 377.232 133.587 377.232 133.454 377.232C133.321 377.232 133.054 377.232 132.92 377.232C132.92 377.232 132.787 377.232 132.653 377.232C132.653 377.232 132.52 377.232 132.386 377.232C132.386 377.232 132.119 377.232 131.986 377.232C131.986 377.232 131.852 377.232 131.719 377.232H131.852H131.452C131.452 377.232 131.319 377.232 131.185 377.232C131.185 377.232 131.052 377.232 130.918 377.232C130.918 377.232 130.651 377.232 130.518 377.232C130.518 377.232 130.384 377.232 130.251 377.232C129.584 377.365 129.05 377.633 128.516 377.9C128.516 377.9 128.249 377.9 128.116 378.033C128.116 378.033 127.849 378.033 127.715 378.167C127.715 378.167 127.715 378.167 127.582 378.167C127.582 378.167 127.582 378.167 127.448 378.167H127.048C127.048 378.434 127.048 378.434 127.048 378.434C127.048 378.434 127.315 378.434 127.315 378.3C127.315 378.3 127.048 378.3 127.048 378.434C127.048 378.434 127.048 378.434 126.915 378.434C126.915 378.434 126.915 378.434 127.048 378.434H126.915C126.915 378.434 126.648 378.434 126.514 378.701C126.514 378.701 126.247 378.834 126.114 378.968C125.98 378.968 125.847 379.101 125.713 379.235C125.447 379.502 125.313 379.636 125.046 379.769C125.046 379.769 124.779 379.903 124.779 380.036C124.646 380.17 124.379 380.303 124.245 380.437C124.245 380.437 124.245 380.437 124.112 380.437C123.978 380.704 123.845 380.837 123.712 380.971C123.311 381.371 123.044 381.772 122.911 382.039L122.51 382.707C122.377 382.974 122.244 383.107 122.11 383.508C121.71 384.176 121.576 384.71 121.576 385.11C121.576 385.511 121.576 385.778 121.309 386.312V386.98V387.38C121.309 387.514 121.309 387.648 121.309 387.781V388.182V388.449C121.309 388.582 121.309 388.582 121.309 388.716C121.309 388.983 121.309 388.983 121.309 388.983C121.309 388.983 121.309 389.116 121.309 389.25C121.443 389.784 121.71 390.318 121.843 390.585C121.843 390.585 121.977 390.852 121.977 390.986L122.244 391.386C122.244 391.52 122.51 391.787 122.644 391.921L122.911 392.321C122.911 392.455 123.178 392.722 123.311 392.855H123.445C123.445 393.122 123.445 393.122 123.445 393.122C123.445 393.389 123.712 393.389 123.845 393.523C123.845 393.523 123.845 393.523 123.978 393.657L124.512 394.057C124.779 394.324 125.18 394.591 125.447 394.725C125.847 394.992 126.247 395.259 126.648 395.526C132.52 398.731 141.862 398.731 147.734 395.526C147.734 395.526 148.001 395.526 148.001 395.392C148.001 395.392 148.268 395.259 148.401 395.125C148.401 395.125 148.668 395.125 148.668 394.992C148.668 394.992 148.668 394.992 148.802 394.992C148.802 394.992 148.802 394.992 148.935 394.992H149.069C149.069 394.858 149.202 394.725 149.335 394.725H149.469C149.469 394.591 149.469 394.458 149.602 394.458C149.602 394.458 149.869 394.324 149.869 394.191C149.869 394.191 150.003 394.191 150.136 394.057C150.136 393.924 150.27 393.79 150.403 393.79C150.403 393.657 150.537 393.523 150.67 393.389C150.67 393.389 150.803 393.256 150.937 393.122L151.337 392.722C151.337 392.722 151.471 392.588 151.604 392.455L151.871 392.054C151.871 392.054 151.871 391.921 152.005 391.787C152.005 391.654 152.005 391.52 152.138 391.386C152.138 391.386 152.138 391.253 152.138 391.119C152.538 390.452 152.672 389.784 152.805 389.116C152.805 388.983 152.805 388.849 152.805 388.849C152.805 388.849 152.805 388.716 152.805 388.582C152.805 388.582 152.805 388.449 152.805 388.315C152.805 388.315 152.805 388.315 152.805 388.182V388.048L153.206 388.716Z" fill="url(#paint9_linear_114_77)"/>
<path d="M153.206 381.772V381.505V381.371C153.206 381.371 153.206 381.238 153.206 381.104C153.206 381.104 153.206 381.104 153.206 380.971C152.538 375.095 146.266 371.356 139.059 370.689C138.525 370.689 137.858 370.689 137.324 370.689C137.324 370.689 137.191 370.689 137.057 370.689C136.924 370.689 136.79 370.689 136.657 370.689C136.523 370.689 136.257 370.689 136.123 370.689C136.123 370.689 135.99 370.689 135.856 370.689C135.589 370.689 135.322 370.689 135.055 370.689C135.055 370.689 134.922 370.689 134.788 370.689C134.522 370.689 134.255 370.689 134.121 370.689C134.121 370.689 133.854 370.689 133.721 370.689C133.721 370.689 133.587 370.689 133.454 370.689C133.454 370.689 133.454 370.689 133.32 370.689C133.187 370.689 132.92 370.689 132.787 370.689C132.787 370.689 132.653 370.689 132.52 370.689C132.52 370.689 132.386 370.689 132.253 370.689C132.253 370.689 131.986 370.689 131.852 370.689C131.852 370.689 131.719 370.689 131.585 370.689H131.719H131.319C131.319 370.689 131.185 370.689 131.052 370.689C131.052 370.689 130.918 370.689 130.785 370.689H130.518C130.518 370.689 130.518 370.689 130.384 370.689C130.117 370.689 129.851 370.822 129.584 370.956C129.317 370.956 129.05 371.089 128.783 371.223C128.783 371.223 128.783 371.223 128.649 371.223C128.649 371.223 128.383 371.223 128.249 371.356C128.249 371.356 127.982 371.356 127.849 371.49C127.849 371.49 127.582 371.49 127.582 371.623C127.582 371.623 127.582 371.623 127.448 371.623H127.315C127.315 371.623 127.181 371.757 127.048 371.891C127.048 371.891 127.315 371.757 127.448 371.757C127.448 371.757 127.181 371.757 127.048 371.891C127.048 371.891 127.048 371.891 126.914 371.891C126.914 371.891 126.914 371.891 126.781 371.891C126.781 371.891 126.781 371.891 126.914 371.891H126.781C126.781 371.891 126.514 371.891 126.514 372.024C126.381 372.024 126.114 372.291 125.98 372.291H125.847C125.713 372.558 125.446 372.692 125.313 372.825C125.313 372.825 125.313 372.959 125.18 372.959C125.18 372.959 125.046 372.959 124.913 373.092C124.779 373.226 124.512 373.359 124.379 373.493C124.245 373.76 124.112 373.894 123.978 374.027C123.578 374.428 123.311 374.828 123.178 375.095L122.777 375.763C122.644 376.03 122.51 376.164 122.377 376.564C121.977 377.232 121.843 377.9 121.843 378.167C121.843 378.567 121.843 378.834 121.576 379.368V380.036V380.437C121.576 380.57 121.576 380.704 121.576 380.837V381.238V381.505C121.576 381.638 121.576 381.638 121.576 381.772C121.576 382.039 121.576 382.039 121.576 382.039C121.576 382.039 121.576 382.173 121.576 382.306C121.71 382.84 121.977 383.374 122.11 383.641C122.11 383.641 122.243 383.909 122.243 384.042L122.51 384.443C122.51 384.576 122.777 384.843 122.911 384.977L123.178 385.377C123.178 385.511 123.445 385.778 123.578 385.912H123.711C123.711 386.179 123.711 386.179 123.711 386.179C123.711 386.446 123.978 386.446 124.112 386.579C124.112 386.579 124.112 386.579 124.245 386.713L124.779 387.113C125.046 387.38 125.446 387.647 125.713 387.781C126.114 388.048 126.514 388.315 126.914 388.582C132.787 391.787 142.129 391.787 148.001 388.582C148.001 388.582 148.268 388.582 148.268 388.449C148.268 388.449 148.535 388.315 148.668 388.182C148.668 388.182 148.935 388.182 148.935 388.048C148.935 388.048 148.935 388.048 149.068 388.048C149.068 388.048 149.068 388.048 149.202 388.048H149.335C149.335 387.915 149.469 387.781 149.602 387.781H149.736C149.736 387.647 149.736 387.514 149.869 387.514C149.869 387.514 150.136 387.38 150.136 387.247C150.136 387.247 150.27 387.247 150.403 387.113C150.403 386.98 150.536 386.846 150.67 386.846C150.67 386.713 150.803 386.579 150.937 386.446C150.937 386.446 151.07 386.312 151.204 386.179L151.604 385.778C151.604 385.778 151.738 385.644 151.871 385.511L152.138 385.11C152.138 385.11 152.138 384.977 152.271 384.843C152.271 384.71 152.271 384.576 152.405 384.443C152.405 384.443 152.405 384.309 152.405 384.176C152.805 383.508 152.939 382.84 153.072 382.173C153.072 382.039 153.072 381.906 153.072 381.906C153.072 381.906 153.072 381.772 153.072 381.638C153.072 381.638 153.072 381.505 153.072 381.371C153.072 381.238 153.072 381.238 153.072 381.238V380.971L153.206 381.772Z" fill="url(#paint10_linear_114_77)"/>
<path d="M175.226 336.905C175.226 336.905 175.226 336.638 175.226 336.504C175.226 336.237 175.226 335.837 175.226 335.569C175.226 335.436 175.226 335.302 175.226 335.169C175.226 335.169 175.226 334.902 175.226 334.768C175.226 334.768 175.226 334.635 175.226 334.501C174.959 330.095 173.758 325.688 171.89 321.682C171.089 319.812 170.021 318.077 168.82 316.207C168.82 316.074 168.82 315.94 168.687 315.94C168.153 315.272 167.753 314.605 167.352 314.071C166.952 313.536 166.551 313.002 166.018 312.468C165.884 312.335 165.751 312.068 165.617 311.934L164.683 310.866C164.416 310.465 164.016 310.198 163.749 309.931C162.948 309.13 161.747 308.062 160.813 307.394C160.546 307.127 160.145 306.86 159.745 306.593C159.478 306.326 159.078 306.192 158.677 305.792L157.076 304.857C156.942 304.857 156.676 304.59 156.542 304.456C156.542 304.456 156.275 304.323 156.142 304.189C149.068 299.783 137.191 296.845 124.913 300.851C124.913 300.851 124.913 300.851 124.779 300.851C124.379 300.984 123.978 301.118 123.445 301.251H123.178C122.911 301.251 122.777 301.385 122.51 301.518C122.51 301.518 122.377 301.518 122.243 301.518H121.977C121.977 301.518 121.71 301.518 121.576 301.652C121.042 301.919 120.509 302.053 120.108 302.32C119.841 302.32 119.574 302.587 119.307 302.72C119.307 302.72 119.041 302.72 118.907 302.987C118.907 302.987 118.64 303.121 118.507 303.254C118.507 303.254 118.24 303.388 118.106 303.521C118.106 303.521 118.106 303.521 117.973 303.655C117.439 303.922 116.905 304.323 116.371 304.59C116.104 304.723 115.838 304.857 115.571 305.124C115.571 305.124 115.571 305.124 115.437 305.124C115.437 305.124 115.437 305.124 115.304 305.124H115.17C115.17 305.257 115.037 305.391 114.903 305.391C114.636 305.658 114.236 305.791 113.969 306.059C113.969 306.059 114.236 305.925 114.236 305.792C114.236 305.792 113.969 305.925 113.836 306.059C113.702 306.059 113.569 306.326 113.302 306.459C113.302 306.459 113.302 306.459 113.168 306.593C108.898 309.931 104.36 314.738 101.424 321.816C101.157 322.35 101.024 322.884 100.757 323.284C99.8226 325.955 99.4222 327.691 99.4222 327.825C99.4222 327.825 99.4222 328.092 99.4222 328.225C99.1553 329.293 99.0219 330.095 98.8884 331.163C98.7549 332.098 98.6215 333.032 98.488 333.834C98.3546 335.97 98.3546 337.439 98.488 338.908C98.488 339.575 98.488 340.11 98.488 340.777C98.488 340.777 98.488 340.911 98.488 341.044C98.7549 346.519 100.223 354.398 105.294 361.608C105.561 361.876 105.695 362.276 105.962 362.543C106.362 363.077 106.762 363.611 107.163 364.012C107.83 364.947 108.631 365.614 109.298 366.416C109.832 366.95 110.232 367.35 110.633 367.751C111.3 368.419 111.7 368.686 112.368 369.22C113.035 369.754 113.569 370.155 114.103 370.422C114.503 370.689 115.17 371.089 115.838 371.49C115.838 371.49 115.838 371.49 115.838 371.623V371.891C115.838 371.891 115.838 371.757 115.838 371.623C115.838 371.623 115.838 371.757 115.838 371.891C115.838 371.891 115.838 372.158 115.838 372.291C115.838 372.291 115.838 372.425 115.838 372.558C115.838 372.558 115.838 372.692 115.838 372.825C115.838 372.959 115.838 373.092 115.838 373.359C115.838 373.359 115.838 373.359 115.838 373.493C115.838 373.76 115.838 373.894 115.971 374.161C115.971 374.294 115.971 374.428 115.971 374.561C115.971 374.695 115.971 374.828 115.971 374.962C116.104 375.362 116.371 375.897 116.505 376.164V376.297C116.505 376.297 116.505 376.431 116.505 376.564C116.505 376.564 116.505 376.564 116.505 376.698C116.638 377.098 116.772 377.365 116.905 377.632C117.172 378.033 117.572 378.567 118.106 379.101C118.373 379.368 118.507 379.635 118.774 379.769C118.774 379.769 118.774 379.903 118.907 379.903C118.907 379.903 119.041 380.036 119.174 380.17C119.307 380.303 119.574 380.437 119.708 380.57C119.708 380.57 119.841 380.704 119.975 380.837C120.909 381.505 121.843 382.173 122.777 382.707C122.777 382.707 123.044 382.707 123.178 382.84C123.311 382.84 123.578 382.974 123.712 383.107C123.712 383.107 123.845 383.107 123.978 383.107C124.245 383.107 124.379 383.374 124.646 383.374C124.646 383.374 124.913 383.374 124.913 383.508C125.18 383.508 125.446 383.775 125.713 383.775C125.713 383.775 125.713 383.775 125.847 383.775C125.98 383.775 126.114 383.775 126.247 383.909C126.781 384.042 127.315 384.176 127.982 384.443C128.249 384.443 128.516 384.443 128.783 384.576C128.783 384.576 129.05 384.576 129.183 384.576C129.584 384.576 129.851 384.576 130.117 384.71C133.054 385.244 136.39 385.244 139.993 384.71C140.127 384.71 140.394 384.71 140.661 384.71C140.661 384.71 140.794 384.71 140.928 384.71C140.928 384.71 141.061 384.71 141.194 384.71C141.194 384.71 141.194 384.71 141.328 384.71C143.597 384.176 145.732 383.508 147.6 382.44C147.6 382.44 147.6 382.44 147.734 382.44L147.867 382.306C148.001 382.306 148.134 382.173 148.401 382.039C148.401 382.039 148.668 381.906 148.802 381.772C148.802 381.772 148.802 381.772 148.935 381.772C149.602 381.238 150.136 380.837 150.403 380.704C150.403 380.704 150.403 380.704 150.537 380.57C150.67 380.57 150.803 380.303 150.937 380.17C150.937 380.17 151.07 380.17 151.204 380.036C151.204 380.036 151.471 379.769 151.604 379.635C151.604 379.635 151.738 379.502 151.871 379.368C151.871 379.368 151.871 379.235 152.005 379.101C152.005 379.101 152.005 378.968 152.138 378.834C152.138 378.701 152.405 378.567 152.538 378.434C152.538 378.434 152.538 378.3 152.672 378.167C152.672 378.167 152.672 378.167 152.672 378.033C152.672 378.033 152.805 377.766 152.939 377.632C152.939 377.632 153.072 377.365 153.206 377.232C153.206 376.965 153.473 376.831 153.606 376.564C153.606 376.564 153.606 376.431 153.606 376.297C153.606 376.164 153.74 376.03 153.873 375.897C153.873 375.897 153.873 375.897 153.873 375.763C153.873 375.763 153.873 375.763 153.873 375.629C153.873 375.629 153.873 375.496 153.873 375.362C153.873 375.362 153.873 375.229 153.873 375.095C153.873 374.962 153.873 374.828 154.006 374.695C154.006 374.695 154.006 374.561 154.006 374.428C154.006 374.428 154.006 374.428 154.006 374.294C154.006 374.027 154.006 373.894 154.14 373.626C154.14 373.493 154.14 373.359 154.14 373.092C154.14 372.825 154.14 372.692 154.14 372.425C154.14 372.425 154.14 372.425 154.14 372.291C154.14 372.291 154.14 372.024 154.14 371.891C154.14 371.891 154.14 371.891 154.14 371.757V371.49C154.14 371.49 154.14 371.49 154.14 371.356C154.407 371.356 154.54 371.089 154.807 370.956C154.941 370.956 155.208 370.689 155.474 370.555C156.142 370.155 156.676 369.754 157.209 369.353C157.743 368.819 158.277 368.419 158.811 368.018C160.012 367.083 160.813 366.282 161.347 365.748C161.613 365.481 161.88 365.214 162.147 364.813C162.281 364.68 162.414 364.546 162.548 364.279C166.685 359.605 170.555 352.662 171.623 341.979V341.712C171.623 341.311 171.623 340.911 171.623 340.51C171.623 340.11 171.623 339.575 171.623 339.175C171.623 339.041 171.623 338.908 171.623 338.774C171.623 338.107 171.623 337.439 171.623 336.771C171.623 336.371 171.623 336.104 171.623 335.703L175.226 336.905Z" fill="#CA0006" fill-opacity="0.8"/>
<path d="M328.302 218.194C324.565 216.057 318.426 216.057 314.689 218.194C310.953 220.33 310.953 223.936 314.689 226.072C318.426 228.209 324.565 228.209 328.302 226.072C332.039 223.936 332.039 220.33 328.302 218.194Z" fill="#E3EBF6"/>
<path d="M336.31 226.74L328.169 178.534L319.627 180.003L311.086 168.786L302.678 207.244L295.205 209.247L319.494 202.837L343.783 237.289L336.31 226.74Z" fill="#7EC8FF"/>
<path d="M332.706 160.774L330.971 161.843L343.783 237.289L345.518 236.354L332.706 160.774Z" fill="#474EB8"/>
<path d="M330.971 161.843L319.627 163.579L308.417 148.756L295.205 209.247L302.678 207.244L311.086 168.786L319.627 180.003L328.169 178.534L336.31 226.74L343.783 237.289L330.971 161.843Z" fill="url(#paint11_linear_114_77)"/>
<path d="M285.462 136.605L291.601 133C291.334 133 291.201 133 290.934 133.133C290.667 133.133 290.4 133.267 290.267 133.4L284.128 137.006C284.395 137.006 284.528 136.738 284.795 136.738C285.062 136.738 285.329 136.605 285.596 136.605H285.462Z" fill="#474EB8"/>
<path d="M319.894 185.211C319.894 185.611 319.627 185.879 319.494 186.146C319.494 186.413 319.227 186.68 319.094 186.947C319.094 187.08 318.827 187.347 318.693 187.481C318.693 187.481 318.693 187.615 318.426 187.748C318.159 188.015 318.026 188.149 317.759 188.282L323.898 184.677C324.165 184.543 324.432 184.41 324.565 184.143C324.565 184.143 324.699 184.009 324.832 183.876C324.966 183.742 325.099 183.609 325.233 183.341C325.233 183.208 325.5 182.941 325.5 182.807C325.5 182.807 325.5 182.54 325.633 182.407C325.633 182.273 325.633 182.14 325.766 181.873L319.627 185.478L319.894 185.211Z" fill="#474EB8"/>
<path d="M296.406 117.91C296.406 117.91 296.272 117.91 296.139 117.777C296.139 117.777 295.872 117.777 295.738 117.643C295.738 117.643 295.605 117.643 295.472 117.643C295.472 117.643 295.205 117.643 295.071 117.51C295.071 117.51 294.804 117.51 294.671 117.51C294.671 117.51 294.537 117.51 294.404 117.51C294.404 117.51 294.137 117.51 294.004 117.51C294.004 117.51 294.004 117.51 293.87 117.51C293.87 117.51 293.87 117.51 293.737 117.51C293.737 117.51 293.47 117.51 293.336 117.51C293.336 117.51 293.336 117.51 293.203 117.51C293.069 117.51 292.936 117.51 292.802 117.51C292.802 117.51 292.802 117.51 292.669 117.51C292.535 117.51 292.402 117.51 292.135 117.51C292.002 117.51 291.735 117.51 291.601 117.643C291.334 117.643 291.201 117.777 290.934 117.91L284.795 121.516C284.928 121.516 285.195 121.248 285.462 121.248C285.596 121.248 285.863 121.248 285.996 121.115C286.13 121.115 286.396 121.115 286.663 121.115C286.93 121.115 287.064 121.115 287.331 121.115C287.598 121.115 287.731 121.115 287.998 121.115C288.265 121.115 288.532 121.115 288.799 121.382C289.066 121.382 289.332 121.649 289.599 121.649C289.866 121.649 290.133 121.916 290.4 122.05C290.534 122.05 290.667 122.183 290.801 122.317L296.94 118.711C296.94 118.711 296.673 118.578 296.539 118.444L296.406 117.91Z" fill="#474EB8"/>
<path d="M339.78 182.54C339.78 182.54 339.78 182.273 339.78 182.14C339.78 182.14 339.78 181.873 339.78 181.739C339.78 181.739 339.78 181.606 339.78 181.472C339.78 181.472 339.78 181.205 339.78 181.072C339.78 180.938 339.78 180.804 339.78 180.671C339.78 180.537 339.78 180.404 339.78 180.27C339.78 180.27 339.78 180.27 339.78 180.137C339.78 180.137 339.78 180.003 339.78 179.87C339.78 179.736 339.78 179.603 339.78 179.336C339.78 179.202 339.78 179.069 339.78 178.801C339.78 178.668 339.78 178.534 339.78 178.267L333.64 181.873C333.774 182.407 333.907 183.075 334.041 183.609C334.041 184.143 334.174 184.677 334.174 185.078C334.174 185.612 334.174 186.012 334.174 186.413C334.174 186.813 334.174 187.214 334.041 187.615C334.041 188.015 333.907 188.282 333.774 188.549C333.774 188.816 333.507 189.084 333.374 189.351C333.374 189.484 333.107 189.751 332.973 189.885C332.973 189.885 332.84 190.018 332.706 190.152C332.439 190.419 332.172 190.552 331.906 190.686L338.045 187.081C338.311 186.947 338.578 186.68 338.845 186.546C338.845 186.546 338.979 186.413 339.112 186.279C339.246 186.146 339.379 186.012 339.513 185.745C339.513 185.612 339.78 185.345 339.78 185.211C339.78 185.211 339.78 185.211 339.78 185.078C339.78 185.078 339.78 184.944 339.78 184.81C339.78 184.677 339.78 184.543 339.913 184.41C339.913 184.41 339.913 184.143 339.913 184.009C339.913 184.009 339.913 183.742 339.913 183.609C339.913 183.609 339.913 183.342 339.913 183.208C339.913 183.208 339.913 182.941 339.913 182.807V182.54H339.78Z" fill="#474EB8"/>
<path d="M301.21 115.106C301.61 115.507 302.011 116.041 302.411 116.441C302.812 116.975 303.212 117.51 303.612 118.177L309.751 114.572C309.751 114.572 309.751 114.572 309.751 114.438C309.618 114.171 309.351 113.904 309.218 113.637C309.218 113.504 308.951 113.236 308.817 113.103C308.817 113.103 308.684 112.969 308.55 112.836C308.55 112.836 308.283 112.569 308.283 112.435C308.283 112.435 308.016 112.168 308.016 112.035C308.016 112.035 307.75 111.768 307.616 111.634C307.616 111.634 307.616 111.634 307.483 111.501C307.483 111.501 307.216 111.233 307.082 111.233C307.082 111.233 306.815 110.966 306.682 110.966C306.682 110.966 306.415 110.833 306.282 110.699C306.282 110.699 306.148 110.699 306.015 110.566C306.015 110.566 305.748 110.432 305.614 110.299C305.614 110.299 305.347 110.165 305.214 110.032C305.214 110.032 304.947 109.898 304.947 109.765C304.947 109.765 304.813 109.765 304.68 109.631C304.68 109.631 304.413 109.631 304.413 109.498C304.413 109.498 304.28 109.498 304.146 109.498C304.146 109.498 303.879 109.498 303.879 109.364H303.612C303.612 109.364 303.612 109.364 303.479 109.364C303.479 109.364 303.212 109.364 303.079 109.364C303.079 109.364 302.945 109.364 302.812 109.364C302.812 109.364 302.545 109.364 302.411 109.364C302.411 109.364 302.278 109.364 302.144 109.364C302.011 109.364 301.877 109.364 301.744 109.364C301.744 109.364 301.744 109.364 301.61 109.364C301.61 109.364 301.61 109.364 301.477 109.364C301.344 109.364 301.077 109.364 300.943 109.364C300.943 109.364 300.943 109.364 300.81 109.364C300.676 109.364 300.543 109.364 300.409 109.364C300.142 109.364 300.009 109.498 299.742 109.631L293.603 113.236C293.87 113.236 294.003 112.969 294.27 112.969C294.404 112.969 294.537 112.969 294.804 112.836C294.804 112.836 294.804 112.836 294.938 112.836C295.205 112.836 295.338 112.836 295.605 112.836C295.605 112.836 295.605 112.836 295.738 112.836C296.005 112.836 296.139 112.836 296.406 112.836C296.673 112.836 296.939 112.836 297.073 112.836C297.34 112.836 297.607 112.836 297.874 113.103C298.141 113.103 298.408 113.236 298.674 113.37C298.941 113.37 299.208 113.637 299.475 113.771C299.876 114.038 300.409 114.305 300.81 114.705C301.21 114.972 301.61 115.373 302.144 115.774L301.21 115.106Z" fill="#474EB8"/>
<path d="M348.054 173.593C348.054 173.46 348.054 173.326 348.054 173.193C348.054 173.193 348.054 173.193 348.054 173.059C348.054 173.059 348.054 173.059 348.054 172.926C348.054 172.926 348.054 172.659 348.054 172.525C348.054 172.392 348.054 172.258 348.054 172.125C348.054 172.125 348.054 171.991 348.054 171.858C348.054 171.724 348.054 171.59 348.054 171.457C348.054 171.457 348.054 171.19 348.054 171.056C348.054 170.923 348.054 170.789 348.054 170.656C348.054 170.522 348.054 170.389 348.054 170.255C348.054 170.255 348.054 170.122 348.054 169.988C348.054 169.855 348.054 169.721 347.921 169.587C347.921 169.587 347.921 169.32 347.787 169.187C347.787 169.187 347.787 169.053 347.787 168.92C347.787 168.92 347.787 168.653 347.654 168.519C347.654 168.386 347.654 168.252 347.52 168.119C347.52 168.119 347.52 167.852 347.387 167.852C347.387 167.718 347.253 167.584 347.12 167.451C347.12 167.317 346.986 167.184 346.853 167.05C346.853 167.05 346.853 167.05 346.853 166.917C346.853 166.783 346.719 166.65 346.586 166.516C346.586 166.383 346.452 166.249 346.319 166.116C346.319 165.982 346.186 165.849 346.052 165.715C345.785 165.448 345.652 165.047 345.385 164.78C345.385 164.78 345.385 164.78 345.251 164.647L339.112 168.252C339.379 168.653 339.646 169.053 339.913 169.454C340.046 169.721 340.313 169.988 340.447 170.389C340.447 170.522 340.58 170.656 340.714 170.789C340.847 171.19 341.114 171.457 341.248 171.858C341.381 172.258 341.648 172.659 341.781 173.059C341.915 173.46 342.048 173.861 342.182 174.261C342.182 174.662 342.449 175.062 342.449 175.463C342.449 175.864 342.582 176.264 342.582 176.531C342.582 176.932 342.582 177.199 342.582 177.599C342.582 178 342.582 178.267 342.582 178.534C342.582 178.801 342.582 179.202 342.582 179.469C342.582 179.736 342.582 180.003 342.449 180.27C342.449 180.537 342.315 180.804 342.182 180.938C342.182 180.938 342.182 180.938 342.182 181.071C342.182 181.205 342.048 181.338 341.915 181.605C341.915 181.605 341.915 181.739 341.781 181.873C341.781 181.873 341.781 182.006 341.648 182.14C341.515 182.273 341.381 182.54 341.248 182.674C341.248 182.674 341.248 182.674 341.114 182.807C340.847 183.074 340.714 183.208 340.447 183.341L346.586 179.736C346.853 179.602 347.12 179.335 347.253 179.202C347.253 179.202 347.253 179.202 347.387 179.068C347.52 178.935 347.654 178.668 347.787 178.534C347.787 178.534 347.787 178.401 347.921 178.267C347.921 178.267 347.921 178.134 347.921 178C347.921 178 347.921 177.867 347.921 177.733C347.921 177.733 347.921 177.733 347.921 177.599C347.921 177.466 347.92 177.332 348.054 177.065C348.054 177.065 348.054 177.065 348.054 176.932C348.054 176.932 348.054 176.932 348.054 176.798C348.054 176.665 348.054 176.531 348.054 176.398C348.054 176.398 348.054 176.398 348.054 176.264C348.054 176.264 348.054 176.264 348.054 176.131C348.054 175.997 348.054 175.864 348.054 175.73C348.054 175.73 348.054 175.463 348.054 175.329C348.054 175.329 348.054 175.062 348.054 174.929V173.593Z" fill="#474EB8"/>
<path d="M314.423 117.777C314.823 118.177 315.223 118.578 315.624 118.978C316.024 119.379 316.424 119.913 316.691 120.314C316.691 120.314 316.691 120.314 316.691 120.447C316.958 120.981 317.359 121.382 317.626 121.916C317.893 122.45 318.159 122.984 318.426 123.519C318.693 124.053 318.96 124.72 319.094 125.388C319.361 126.056 319.494 126.723 319.627 127.391L325.767 123.786C325.767 123.786 325.767 123.652 325.767 123.519C325.767 123.385 325.767 123.118 325.767 122.984C325.767 122.851 325.767 122.717 325.767 122.45C325.767 122.317 325.767 122.183 325.633 121.916C325.633 121.916 325.633 121.783 325.633 121.649C325.633 121.516 325.633 121.382 325.5 121.248C325.5 121.115 325.5 120.981 325.366 120.848C325.366 120.714 325.366 120.581 325.233 120.447C325.233 120.447 325.233 120.18 325.099 120.047C325.099 120.047 325.099 119.78 324.966 119.78C324.966 119.78 324.966 119.513 324.832 119.379C324.832 119.245 324.699 119.112 324.565 118.845C324.565 118.711 324.432 118.578 324.298 118.311C324.032 117.91 323.898 117.643 323.631 117.376C323.631 117.376 323.498 117.109 323.364 116.975C323.364 116.975 323.364 116.975 323.364 116.842C323.364 116.842 323.364 116.842 323.364 116.708C323.364 116.575 323.097 116.441 322.964 116.308C322.964 116.308 322.697 116.041 322.697 115.907C322.697 115.907 322.564 115.64 322.43 115.507C322.43 115.507 322.163 115.239 322.163 115.106C322.163 115.106 321.896 114.839 321.763 114.705C321.763 114.705 321.496 114.438 321.362 114.305C321.362 114.305 321.362 114.305 321.229 114.305C321.229 114.305 321.229 114.305 321.096 114.171C321.096 114.171 320.829 113.904 320.695 113.771C320.695 113.771 320.428 113.504 320.295 113.504C320.295 113.504 320.161 113.37 320.028 113.37C320.028 113.37 319.761 113.236 319.627 113.103C319.627 113.103 319.361 112.969 319.227 112.836C319.227 112.836 318.96 112.702 318.827 112.569C318.827 112.569 318.693 112.569 318.56 112.435C318.56 112.435 318.293 112.435 318.159 112.302C318.159 112.302 318.159 112.302 318.026 112.302C318.026 112.302 317.759 112.302 317.626 112.168C317.626 112.168 317.492 112.168 317.359 112.168C317.359 112.168 317.092 112.168 316.958 112.168C316.958 112.168 316.691 112.168 316.558 112.168H316.291C316.291 112.168 316.024 112.168 315.891 112.168C315.891 112.168 315.757 112.168 315.624 112.168C315.49 112.168 315.357 112.168 315.223 112.168H314.956C314.956 112.168 314.823 112.168 314.69 112.168C314.556 112.168 314.289 112.168 314.156 112.302C313.889 112.302 313.755 112.435 313.488 112.569L307.349 116.174C307.616 116.174 307.75 115.907 308.017 115.907C308.284 115.907 308.417 115.907 308.684 115.774C308.817 115.774 309.084 115.774 309.218 115.774C309.485 115.774 309.618 115.774 309.885 115.774C310.152 115.774 310.419 115.774 310.552 115.907C310.819 115.907 311.086 116.041 311.353 116.174C311.62 116.174 311.887 116.308 312.154 116.441C312.421 116.441 312.688 116.708 312.955 116.842C313.355 117.109 313.755 117.376 314.289 117.643C314.69 117.91 315.09 118.311 315.49 118.711L314.423 117.777Z" fill="#474EB8"/>
<path d="M348.054 157.837C348.054 157.837 348.054 157.837 348.054 157.703C348.054 157.57 348.054 157.436 348.054 157.303C348.054 157.169 348.054 157.035 348.054 156.902C348.054 156.902 348.054 156.635 348.054 156.501C348.054 156.368 348.054 156.234 348.054 156.101C348.054 155.967 348.054 155.834 348.054 155.7C348.054 155.567 348.054 155.433 348.054 155.3V155.032C348.054 154.899 348.054 154.765 348.054 154.498C348.054 154.365 348.054 154.231 348.054 153.964C348.054 153.964 348.054 153.964 348.054 153.831C348.054 153.831 348.054 153.697 348.054 153.564C348.054 153.43 348.054 153.297 347.921 153.163C347.921 153.029 347.92 152.896 347.787 152.762C347.787 152.762 347.787 152.495 347.787 152.362C347.787 152.228 347.787 152.095 347.654 151.961C347.654 151.828 347.654 151.694 347.52 151.561C347.52 151.427 347.52 151.294 347.387 151.16C347.387 151.16 347.387 151.16 347.387 151.026C347.387 151.026 347.387 150.893 347.387 150.759C347.387 150.626 347.253 150.359 347.12 150.225C347.12 150.225 346.986 149.958 346.853 149.825C346.853 149.691 346.586 149.424 346.586 149.291C346.586 149.291 346.586 149.023 346.452 149.023C346.452 148.89 346.319 148.756 346.186 148.623C346.186 148.623 346.052 148.356 345.919 148.222C345.785 148.089 345.652 147.822 345.518 147.688C345.518 147.688 345.385 147.421 345.251 147.288C345.251 147.288 345.251 147.154 345.118 147.02C345.118 147.02 344.851 146.753 344.851 146.62C344.851 146.62 344.584 146.353 344.451 146.219C344.451 146.219 344.184 145.952 344.05 145.819C344.05 145.819 343.917 145.685 343.783 145.552C343.783 145.552 343.516 145.285 343.383 145.285C343.249 145.285 343.116 145.017 342.983 145.017C342.983 145.017 342.849 145.017 342.716 144.884C342.716 144.884 342.449 144.75 342.315 144.617C342.315 144.617 342.048 144.483 341.915 144.35C341.915 144.35 341.648 144.216 341.515 144.083C341.515 144.083 341.381 144.083 341.248 143.949C341.248 143.949 341.248 143.949 341.114 143.949L334.975 147.555C335.109 147.555 335.242 147.688 335.375 147.822C335.776 148.089 336.31 148.356 336.71 148.756C337.11 149.023 337.511 149.424 337.911 149.825C338.312 150.225 338.712 150.626 338.979 151.026C339.379 151.427 339.646 151.828 339.913 152.228C340.18 152.629 340.447 153.029 340.58 153.297C340.58 153.43 340.847 153.697 340.847 153.831C341.114 154.231 341.248 154.632 341.515 155.032C341.781 155.567 341.915 155.967 342.182 156.501C342.315 157.035 342.582 157.436 342.716 157.97C342.849 158.504 342.983 158.905 343.116 159.439C343.116 159.973 343.249 160.374 343.383 160.908C343.383 161.309 343.383 161.843 343.383 162.243C343.383 162.644 343.383 163.044 343.383 163.445C343.383 163.846 343.249 164.246 343.116 164.513C343.116 164.78 342.849 165.181 342.716 165.448C342.716 165.448 342.716 165.448 342.716 165.582C342.716 165.849 342.449 165.982 342.315 166.116C342.315 166.116 342.182 166.249 342.048 166.383C341.781 166.65 341.515 166.783 341.248 167.05L347.387 163.445C347.654 163.312 347.92 163.044 348.187 162.777C348.187 162.777 348.321 162.644 348.454 162.51C348.454 162.377 348.721 162.243 348.855 162.11C348.855 162.11 348.855 162.11 348.855 161.976C348.855 161.976 348.855 161.976 348.855 161.843C348.855 161.843 348.855 161.709 348.988 161.576C348.988 161.442 349.122 161.309 349.255 161.041C349.255 161.041 349.255 161.041 349.255 160.908C349.255 160.908 349.255 160.774 349.255 160.641C349.255 160.507 349.255 160.374 349.255 160.24C349.255 160.107 349.255 159.973 349.255 159.84C349.255 159.84 349.255 159.706 349.255 159.573C349.255 159.573 349.255 159.306 349.255 159.172C349.255 159.172 349.255 158.905 349.255 158.771C349.255 158.771 349.255 158.771 349.255 158.638L348.054 157.837Z" fill="#474EB8"/>
<path d="M338.178 166.917C345.251 176.264 341.781 186.813 333.507 182.006C333.374 182.006 333.24 181.873 333.107 181.739C335.375 190.018 330.571 193.49 325.099 190.285C323.364 189.217 321.496 187.614 319.894 185.077C318.693 189.217 315.223 189.484 311.753 187.481C308.284 185.478 304.814 181.071 303.612 175.596C302.011 176.131 300.143 175.73 298.408 174.795C293.069 171.724 288.265 162.644 290.534 157.035C290.4 157.035 290.267 156.902 290.133 156.768C281.859 151.961 278.522 137.539 285.596 136.338C278.522 126.99 281.992 116.441 290.267 121.248C290.4 121.248 290.534 121.382 290.667 121.515C288.398 113.236 293.203 109.764 298.675 112.969C300.41 114.038 302.278 115.64 303.879 118.177C305.081 114.038 308.55 113.77 312.02 115.773C315.49 117.776 318.96 122.183 320.161 127.658C321.763 127.124 323.631 127.524 325.366 128.459C330.704 131.53 335.509 140.611 333.24 146.219C333.374 146.219 333.507 146.353 333.64 146.486C341.915 151.293 345.251 165.715 338.178 166.917Z" fill="#CA0006" fill-opacity="0.8"/>
<path d="M339.913 139.275C339.913 139.275 339.913 139.008 339.913 138.875C339.913 138.875 339.913 138.608 339.913 138.474C339.913 138.474 339.913 138.207 339.913 138.074C339.913 137.94 339.913 137.807 339.913 137.673C339.913 137.539 339.913 137.406 339.913 137.272C339.913 137.139 339.913 137.005 339.913 136.872C339.913 136.738 339.913 136.605 339.913 136.471C339.913 136.338 339.913 136.204 339.913 136.071C339.913 135.937 339.913 135.804 339.913 135.67C339.913 135.536 339.913 135.403 339.913 135.269C339.913 135.136 339.913 135.002 339.779 134.869C339.779 134.735 339.779 134.602 339.646 134.468C339.646 134.468 339.646 134.201 339.512 134.068C339.512 133.934 339.512 133.801 339.379 133.667C339.379 133.533 339.379 133.4 339.246 133.266C339.246 133.266 339.246 132.999 339.112 132.866C339.112 132.732 338.979 132.599 338.845 132.332C338.845 132.332 338.845 132.198 338.845 132.065C338.845 132.065 338.845 131.931 338.712 131.798C338.712 131.798 338.712 131.53 338.578 131.53C338.578 131.397 338.445 131.263 338.311 131.13C338.311 131.13 338.178 130.863 338.044 130.729C338.044 130.729 338.044 130.729 338.044 130.596C337.911 130.329 337.644 130.062 337.511 129.795C337.511 129.795 337.377 129.527 337.244 129.394C337.244 129.26 336.977 129.127 336.843 128.993C336.843 128.993 336.843 128.993 336.71 128.86C336.71 128.86 336.71 128.86 336.71 128.726C336.71 128.726 336.443 128.459 336.309 128.326C336.309 128.326 336.043 128.059 335.909 127.925C335.909 127.925 335.776 127.658 335.642 127.658C335.642 127.658 335.375 127.391 335.242 127.257C335.242 127.257 335.108 127.257 334.975 127.124C334.975 127.124 334.708 126.857 334.574 126.857C334.574 126.857 334.308 126.723 334.174 126.59C334.174 126.59 334.041 126.59 333.907 126.456C333.907 126.456 333.64 126.323 333.507 126.189C333.507 126.189 333.24 126.056 333.106 125.922C333.106 125.922 332.973 125.922 332.84 125.789C332.84 125.789 332.573 125.789 332.573 125.655C332.573 125.655 332.573 125.655 332.439 125.655C332.439 125.655 332.172 125.655 332.172 125.521C332.172 125.521 332.172 125.521 332.039 125.521H331.772C331.772 125.521 331.772 125.521 331.638 125.521C331.638 125.521 331.372 125.521 331.238 125.521C331.238 125.521 331.238 125.521 331.105 125.521C331.105 125.521 330.838 125.521 330.704 125.521C330.704 125.521 330.571 125.521 330.437 125.521C330.437 125.521 330.304 125.521 330.17 125.521C330.17 125.521 330.17 125.521 330.037 125.521C329.903 125.521 329.637 125.521 329.503 125.521C329.236 125.521 329.103 125.521 328.836 125.655L322.697 129.26C322.964 129.26 323.097 129.26 323.364 129.127C323.498 129.127 323.764 129.127 323.898 129.127C323.898 129.127 323.898 129.127 324.031 129.127C324.165 129.127 324.432 129.127 324.565 129.127C324.699 129.127 324.966 129.127 325.099 129.127C325.232 129.127 325.499 129.127 325.633 129.127C325.766 129.127 326.033 129.127 326.167 129.26C326.3 129.26 326.567 129.394 326.701 129.527C326.967 129.527 327.101 129.795 327.368 129.928C327.635 130.062 328.035 130.329 328.302 130.596C328.569 130.863 328.969 131.13 329.236 131.263C329.503 131.53 329.77 131.798 330.17 132.065C330.437 132.332 330.704 132.732 330.971 132.999C331.238 133.266 331.505 133.667 331.772 133.934C332.039 134.201 332.306 134.602 332.439 134.869C332.439 134.869 332.573 135.136 332.706 135.269C332.84 135.536 332.973 135.804 333.24 136.071C333.24 136.071 333.24 136.204 333.373 136.338C333.507 136.738 333.774 137.005 333.907 137.406C334.041 137.807 334.308 138.207 334.441 138.608C334.575 139.008 334.708 139.409 334.841 139.943C334.841 140.344 335.108 140.744 335.242 141.278C335.242 141.679 335.375 142.08 335.509 142.48C335.509 142.881 335.509 143.281 335.509 143.682C335.509 144.083 335.509 144.483 335.509 144.884C335.509 145.284 335.509 145.685 335.375 145.952C335.375 146.353 335.108 146.62 334.975 147.02L341.114 143.415C341.114 143.415 341.114 143.281 341.114 143.148C341.114 143.014 341.114 142.747 341.247 142.614V142.347C341.247 142.213 341.247 142.08 341.247 141.946C341.247 141.813 341.247 141.679 341.247 141.545C341.247 141.545 341.247 141.545 341.247 141.412C341.247 141.412 341.247 141.412 341.247 141.278C341.247 141.278 341.247 141.011 341.247 140.878C341.247 140.878 341.247 140.611 341.247 140.477C341.247 140.477 341.247 140.344 341.247 140.21L339.913 139.275Z" fill="#474EB8"/>
<path d="M311.887 127.391C300.143 120.581 290.667 126.056 290.534 139.543C290.534 153.03 300.009 169.454 311.753 176.264C323.498 183.075 332.973 177.6 333.107 164.113C333.107 150.626 323.631 134.201 311.887 127.391ZM311.753 172.525C301.744 166.783 293.737 152.762 293.737 141.412C293.737 129.928 301.878 125.388 311.887 131.13C321.896 136.872 329.904 150.893 329.904 162.243C329.904 173.727 321.763 178.267 311.753 172.525Z" fill="white"/>
<path d="M311.887 140.344L314.556 148.89L321.229 153.564L316.291 155.967L317.626 164.246L311.753 157.169L306.015 157.57L307.349 150.759L302.411 142.747L309.084 145.685L311.887 140.344Z" fill="white"/>
<path d="M440.14 280.821L457.489 270.806L474.839 280.821L457.489 290.836L440.14 280.821Z" fill="#F5F9FF"/>
<path d="M457.489 290.836L440.14 280.821V507.56L457.489 517.709V290.836Z" fill="url(#paint12_linear_114_77)"/>
<path d="M457.489 290.836L474.839 280.821V507.56L457.489 517.709V290.836Z" fill="url(#paint13_linear_114_77)"/>
<path d="M4 402.47L10.5394 398.731L17.0788 402.47L10.5394 406.209L4 402.47Z" fill="#F5F9FF"/>
<path d="M10.5394 406.209L4 402.47V494.474L10.5394 498.347V406.209Z" fill="url(#paint14_linear_114_77)"/>
<path d="M10.5393 406.209L17.0787 402.47V494.474L10.5393 498.347V406.209Z" fill="url(#paint15_linear_114_77)"/>
<path d="M351.791 425.571L358.33 421.832L364.869 425.571L358.33 429.31L351.791 425.571Z" fill="#F5F9FF"/>
<path d="M358.33 429.31L351.791 425.571V517.576L358.33 521.314V429.31Z" fill="url(#paint16_linear_114_77)"/>
<path d="M358.33 429.31L364.869 425.571V517.576L358.33 521.314V429.31Z" fill="url(#paint17_linear_114_77)"/>
<path d="M496.592 372.291L500.863 369.888L505 372.291L500.863 374.695L496.592 372.291Z" fill="#F5F9FF"/>
<path d="M500.863 374.695L496.592 372.291V498.747L500.863 501.151V374.695Z" fill="url(#paint18_linear_114_77)"/>
<path d="M500.863 374.695L505 372.291V498.747L500.863 501.151V374.695Z" fill="url(#paint19_linear_114_77)"/>
<path d="M396.899 71.1733C397.7 69.9715 397.433 67.3008 396.099 64.6301C394.497 61.5589 392.095 59.5559 390.227 59.6894L401.17 58.8882C401.17 58.8882 401.17 58.8882 401.304 58.8882C401.304 58.8882 401.304 58.8882 401.17 58.8882C402.905 58.8882 403.973 60.6241 403.039 61.9595L396.899 71.0397V71.1733Z" fill="#5C74EF"/>
<path d="M389.693 67.0338C387.958 63.6955 387.958 60.4907 389.693 59.823C391.428 59.1553 394.364 61.2919 395.965 64.6302C397.567 67.9685 397.7 71.1733 395.965 71.841C394.23 72.5087 391.294 70.3721 389.693 67.0338Z" fill="#FFFEFF"/>
<path d="M393.563 64.6301L391.027 67.3008C391.027 67.3008 393.296 69.9715 395.031 71.8409C395.431 71.8409 395.832 71.8409 396.099 71.8409C396.899 71.5739 397.433 70.6391 397.433 69.3038L393.563 64.6301Z" fill="#E2F1FF"/>
<path d="M350.856 97.3457C352.591 99.0816 355.661 100.016 359.932 96.678C365.537 92.405 365.937 83.7253 366.071 83.3247L349.388 93.2062C348.988 94.0074 349.388 95.8768 350.856 97.3457Z" fill="#5C74EF"/>
<path d="M343.783 85.9955C344.717 87.9985 346.586 89.7345 347.654 89.868L363.935 80.3871C363.402 80.12 353.926 75.3128 347.52 77.9835C342.582 79.9865 342.449 83.4584 343.783 86.129V85.9955Z" fill="#5C74EF"/>
<path d="M343.783 91.6038L348.721 88.6661C349.388 88.2655 350.189 87.8649 350.856 87.3307L355.261 84.7936C356.195 84.2595 356.996 83.7253 357.93 83.3247L359.798 82.2564C364.469 79.5858 369.274 76.7816 374.212 73.8438L376.347 72.642C384.755 67.8348 378.215 71.5738 385.822 67.1672L386.757 66.633C388.492 65.6983 390.093 64.63 391.695 63.6953C391.695 63.6953 391.828 63.6953 391.961 63.6953C391.961 63.6953 391.961 63.6953 392.095 63.6953C392.095 63.6953 392.095 63.6953 392.228 63.6953C392.228 63.6953 392.228 63.6953 392.362 63.6953C392.362 63.6953 392.495 63.8288 392.629 63.9624C392.629 63.9624 392.762 64.0959 392.896 64.2294C392.896 64.2294 393.029 64.363 393.163 64.4965C393.163 64.4965 393.163 64.4965 393.163 64.63C393.163 64.63 393.163 64.63 393.163 64.7636C393.163 64.7636 393.163 64.8971 393.163 65.0306C393.163 65.0306 393.163 65.0306 393.163 65.1642C393.163 65.1642 393.163 65.2977 393.163 65.4312C393.163 65.4312 393.163 65.4312 393.163 65.5648C393.163 65.5648 393.163 65.6983 393.163 65.8318C393.163 65.8318 393.163 65.8318 393.163 65.9654C393.163 65.9654 393.163 65.9654 393.163 66.0989C393.163 66.0989 393.163 66.0989 393.029 66.2324L345.118 94.0074L342.716 89.8679L343.783 91.6038Z" fill="#7EC8FF"/>
<path d="M343.917 94.0075C343.249 92.8057 343.383 91.7375 343.917 91.4704C344.584 91.2033 345.518 92.0045 346.185 93.2063C346.853 94.4081 346.719 95.4764 346.185 95.7435C345.518 96.0105 344.584 95.2093 343.917 94.0075Z" fill="url(#paint20_linear_114_77)"/>
<path d="M346.186 95.7433C346.853 95.4762 346.853 94.408 346.186 93.2062C345.518 92.0044 344.584 91.3367 343.917 91.4702C343.249 91.7373 343.249 92.8056 343.917 94.0074C344.584 95.2092 345.518 95.8768 346.186 95.7433ZM344.05 94.0074C343.65 93.2062 343.516 92.2714 343.783 91.8708C343.783 91.8708 343.917 91.7373 344.05 91.6037C344.584 91.3367 345.518 92.1379 346.186 93.2062C346.586 94.0074 346.719 94.9421 346.452 95.3427C346.452 95.3427 346.319 95.4762 346.186 95.6098C345.652 95.8768 344.717 95.0756 344.05 94.0074Z" fill="#FFFEFF"/>
</g>
<defs>
<filter id="filter0_d_114_77" x="0" y="0" width="509" height="542" filterUnits="userSpaceOnUse" color-interpolation-filters="sRGB">
<feFlood flood-opacity="0" result="BackgroundImageFix"/>
<feColorMatrix in="SourceAlpha" type="matrix" values="0 0 0 0 0 0 0 0 0 0 0 0 0 0 0 0 0 0 127 0" result="hardAlpha"/>
<feOffset dy="4"/>
<feGaussianBlur stdDeviation="2"/>
<feComposite in2="hardAlpha" operator="out"/>
<feColorMatrix type="matrix" values="0 0 0 0 0 0 0 0 0 0 0 0 0 0 0 0 0 0 0.25 0"/>
<feBlend mode="normal" in2="BackgroundImageFix" result="effect1_dropShadow_114_77"/>
<feBlend mode="normal" in="SourceGraphic" in2="effect1_dropShadow_114_77" result="shape"/>
</filter>
<linearGradient id="paint0_linear_114_77" x1="387.157" y1="135.002" x2="371.124" y2="518.777" gradientUnits="userSpaceOnUse">
<stop stop-color="#97B2E3"/>
<stop offset="1" stop-color="#E2F1FF"/>
</linearGradient>
<linearGradient id="paint1_linear_114_77" x1="412.781" y1="67.301" x2="452.729" y2="354.392" gradientUnits="userSpaceOnUse">
<stop stop-color="#97B2E3"/>
<stop offset="0.4" stop-color="#BDD2F1"/>
<stop offset="0.8" stop-color="#D8E8FB"/>
<stop offset="1" stop-color="#E2F1FF"/>
</linearGradient>
<linearGradient id="paint2_linear_114_77" x1="286.797" y1="222.333" x2="286.797" y2="534" gradientUnits="userSpaceOnUse">
<stop stop-color="#97B2E3"/>
<stop offset="1" stop-color="#E2F1FF"/>
</linearGradient>
<linearGradient id="paint3_linear_114_77" x1="314.556" y1="142.48" x2="367.864" y2="444.656" gradientUnits="userSpaceOnUse">
<stop stop-color="#97B2E3"/>
<stop offset="0.1" stop-color="#A2BBE7"/>
<stop offset="0.7" stop-color="#D0E2F8"/>
<stop offset="1" stop-color="#E2F1FF"/>
</linearGradient>
<linearGradient id="paint4_linear_114_77" x1="194.444" y1="329.026" x2="194.444" y2="534" gradientUnits="userSpaceOnUse">
<stop stop-color="#97B2E3"/>
<stop offset="1" stop-color="#E2F1FF"/>
</linearGradient>
<linearGradient id="paint5_linear_114_77" x1="237.151" y1="281.088" x2="272.289" y2="479.779" gradientUnits="userSpaceOnUse">
<stop stop-color="#9DB7E5"/>
<stop offset="0.5" stop-color="#C2D6F3"/>
<stop offset="0.8" stop-color="#D9E9FB"/>
<stop offset="1" stop-color="#E2F1FF"/>
</linearGradient>
<linearGradient id="paint6_linear_114_77" x1="101.958" y1="409.146" x2="101.958" y2="534" gradientUnits="userSpaceOnUse">
<stop stop-color="#97B2E3"/>
<stop offset="1" stop-color="#E2F1FF"/>
</linearGradient>
<linearGradient id="paint7_linear_114_77" x1="155.608" y1="382.306" x2="176.851" y2="503.283" gradientUnits="userSpaceOnUse">
<stop stop-color="#97B2E3"/>
<stop offset="0.2" stop-color="#A8C0E9"/>
<stop offset="0.5" stop-color="#C4D7F3"/>
<stop offset="0.8" stop-color="#DAEAFB"/>
<stop offset="1" stop-color="#E2F1FF"/>
</linearGradient>
<linearGradient id="paint8_linear_114_77" x1="228.476" y1="226.473" x2="208.837" y2="301.246" gradientUnits="userSpaceOnUse">
<stop stop-color="#3162DE"/>
<stop offset="1" stop-color="#6376F2"/>
</linearGradient>
<linearGradient id="paint9_linear_114_77" x1="119.708" y1="388.315" x2="153.206" y2="388.315" gradientUnits="userSpaceOnUse">
<stop stop-color="#3162DE"/>
<stop offset="1" stop-color="#6376F2"/>
</linearGradient>
<linearGradient id="paint10_linear_114_77" x1="119.708" y1="381.772" x2="153.206" y2="381.772" gradientUnits="userSpaceOnUse">
<stop stop-color="#3162DE"/>
<stop offset="1" stop-color="#6376F2"/>
</linearGradient>
<linearGradient id="paint11_linear_114_77" x1="330.838" y1="177.466" x2="320.818" y2="210.312" gradientUnits="userSpaceOnUse">
<stop stop-color="#3162DE"/>
<stop offset="1" stop-color="#6376F2"/>
</linearGradient>
<linearGradient id="paint12_linear_114_77" x1="454.553" y1="284.96" x2="444.399" y2="484.725" gradientUnits="userSpaceOnUse">
<stop stop-color="#97B2E3"/>
<stop offset="1" stop-color="#E2F1FF"/>
</linearGradient>
<linearGradient id="paint13_linear_114_77" x1="431.999" y1="250.776" x2="454.176" y2="346.914" gradientUnits="userSpaceOnUse">
<stop stop-color="#97B2E3"/>
<stop offset="1" stop-color="#E2F1FF"/>
</linearGradient>
<linearGradient id="paint14_linear_114_77" x1="9.60522" y1="404.206" x2="5.46335" y2="484.993" gradientUnits="userSpaceOnUse">
<stop stop-color="#97B2E3"/>
<stop offset="1" stop-color="#E2F1FF"/>
</linearGradient>
<linearGradient id="paint15_linear_114_77" x1="-0.137305" y1="390.318" x2="8.94759" y2="429.174" gradientUnits="userSpaceOnUse">
<stop stop-color="#97B2E3"/>
<stop offset="1" stop-color="#E2F1FF"/>
</linearGradient>
<linearGradient id="paint16_linear_114_77" x1="357.396" y1="427.173" x2="353.254" y2="508.094" gradientUnits="userSpaceOnUse">
<stop stop-color="#97B2E3"/>
<stop offset="1" stop-color="#E2F1FF"/>
</linearGradient>
<linearGradient id="paint17_linear_114_77" x1="347.653" y1="413.286" x2="356.738" y2="452.275" gradientUnits="userSpaceOnUse">
<stop stop-color="#97B2E3"/>
<stop offset="1" stop-color="#E2F1FF"/>
</linearGradient>
<linearGradient id="paint18_linear_114_77" x1="501.931" y1="374.428" x2="496.319" y2="483.391" gradientUnits="userSpaceOnUse">
<stop stop-color="#97B2E3"/>
<stop offset="1" stop-color="#E2F1FF"/>
</linearGradient>
<linearGradient id="paint19_linear_114_77" x1="484.181" y1="355.199" x2="496.338" y2="407.942" gradientUnits="userSpaceOnUse">
<stop stop-color="#97B2E3"/>
<stop offset="1" stop-color="#E2F1FF"/>
</linearGradient>
<linearGradient id="paint20_linear_114_77" x1="348.691" y1="92.1539" x2="342.998" y2="92.4535" gradientUnits="userSpaceOnUse">
<stop offset="0.2" stop-color="#005BC3"/>
<stop offset="0.5" stop-color="#147ADB"/>
<stop offset="0.6" stop-color="#208BE8"/>
<stop offset="1" stop-color="#32A5FC"/>
</linearGradient>
<clipPath id="clip0_114_77">
<rect width="501" height="534" fill="white" transform="translate(4)"/>
</clipPath>
</defs>
</svg>
