<svg width="312" height="398" viewBox="0 0 312 398" fill="none" xmlns="http://www.w3.org/2000/svg">
<g clip-path="url(#clip0_297_962)">
<g filter="url(#filter0_d_297_962)">
<path opacity="0.7" d="M165.406 384.546C199.537 384.546 227.206 380.024 227.206 374.446C227.206 368.868 199.537 364.346 165.406 364.346C131.275 364.346 103.606 368.868 103.606 374.446C103.606 380.024 131.275 384.546 165.406 384.546Z" fill="#B0E8F4"/>
<path d="M0.00582149 58.4459L23.1058 351.046C23.2058 352.646 24.6058 353.846 26.2058 353.746L308.906 331.446C310.506 331.346 311.706 329.946 311.606 328.346L288.506 35.7459C288.406 34.1459 287.006 32.9459 285.406 33.0459L2.70582 55.3459C1.10582 55.4459 -0.0941785 56.8459 0.00582149 58.4459ZM281.106 267.346L43.7058 286.146C42.1058 286.246 40.7058 285.046 40.6058 283.446L26.3058 102.346C26.2058 100.746 27.4058 99.3459 29.0058 99.2459L266.406 80.4459C268.006 80.3459 269.406 81.5459 269.506 83.1459L283.806 264.246C283.906 265.846 282.706 267.246 281.106 267.346Z" fill="white"/>
<path d="M68.8059 314.646C68.2059 310.846 65.2059 307.946 61.5059 308.246C58.7059 308.446 56.5059 310.346 55.7059 312.946C54.5059 310.546 52.1059 309.046 49.4059 309.246C45.7059 309.546 43.3059 312.946 43.2059 316.746C43.2059 316.746 43.1059 317.746 43.6059 319.346C44.3059 321.646 45.8059 323.546 47.6059 324.946L56.5059 331.846C56.9059 332.146 57.4059 332.146 57.8059 331.846L65.7059 323.646C67.3059 321.946 68.4059 319.846 68.8059 317.446C69.1059 315.746 68.8059 314.846 68.8059 314.846V314.646Z" fill="#EF3974"/>
<path d="M75.0809 317.263C75.5355 317.227 75.943 317.255 76.3033 317.347C76.663 317.431 76.9743 317.563 77.2372 317.743C77.5002 317.923 77.7061 318.144 77.855 318.405C78.004 318.666 78.0907 318.952 78.1152 319.263C78.1811 320.1 77.7693 320.935 76.8799 321.768L75.4116 323.147L78.2827 322.921C78.3375 323.005 78.3901 323.113 78.4407 323.246C78.4992 323.378 78.5347 323.523 78.5473 323.683C78.5699 323.97 78.5224 324.182 78.4048 324.32C78.2866 324.45 78.1239 324.523 77.9165 324.539L73.7653 324.866C73.5805 324.76 73.429 324.619 73.3109 324.444C73.2001 324.26 73.1347 324.041 73.1146 323.785C73.0932 323.514 73.1312 323.283 73.2284 323.09C73.325 322.89 73.4367 322.729 73.5635 322.607L75.1033 321.065C75.2968 320.873 75.456 320.704 75.581 320.558C75.7052 320.404 75.8029 320.268 75.8738 320.15C75.9528 320.031 76.0044 319.923 76.0288 319.825C76.0611 319.726 76.0739 319.632 76.067 319.545C76.0494 319.321 75.9359 319.154 75.7265 319.042C75.525 318.929 75.2807 318.884 74.9936 318.907C74.6746 318.932 74.3916 319.006 74.1445 319.13C73.9048 319.245 73.7056 319.365 73.5469 319.49C73.4038 319.405 73.2827 319.294 73.1837 319.158C73.0847 319.021 73.0276 318.857 73.0126 318.666C72.9799 318.251 73.1512 317.928 73.5263 317.698C73.9007 317.46 74.4189 317.315 75.0809 317.263ZM80.4689 318.969L79.3018 319.435C79.1759 319.364 79.0475 319.262 78.9166 319.128C78.7856 318.994 78.7101 318.799 78.69 318.544C78.6524 318.065 78.9171 317.707 79.4843 317.47L80.7883 316.91L81.231 316.875C81.5739 316.848 81.8529 316.927 82.068 317.11C82.2831 317.294 82.4041 317.557 82.4311 317.9L82.9216 324.133C82.8351 324.156 82.7051 324.186 82.5315 324.224C82.3666 324.269 82.1964 324.298 82.0209 324.312C81.8454 324.326 81.685 324.327 81.5396 324.314C81.4021 324.301 81.2827 324.262 81.1813 324.198C81.08 324.133 80.9967 324.044 80.9314 323.928C80.8735 323.805 80.8367 323.643 80.8211 323.444L80.4689 318.969ZM85.5822 324.814C85.4604 325 85.3229 325.14 85.1697 325.232C85.0245 325.324 84.8402 325.378 84.6169 325.396C84.2659 325.423 83.959 325.347 83.6961 325.167C83.8326 324.659 83.9403 324.141 84.0192 323.613C84.0974 323.077 84.1597 322.595 84.2062 322.166C84.3361 322.084 84.4949 322.011 84.6826 321.948C84.8696 321.877 85.0588 321.834 85.2502 321.819C85.4974 321.8 85.7172 321.839 85.9094 321.936C86.1096 322.032 86.221 322.224 86.2436 322.511C86.2567 322.679 86.2476 322.868 86.216 323.079C86.1839 323.282 86.1361 323.491 86.0726 323.704C86.0086 323.91 85.9322 324.113 85.8436 324.312C85.763 324.511 85.6758 324.679 85.5822 324.814ZM88.8408 316.18C89.758 316.108 90.4709 316.244 90.9795 316.59C91.4875 316.927 91.7666 317.414 91.8169 318.052C91.847 318.435 91.769 318.77 91.583 319.058C91.4044 319.337 91.1808 319.555 90.9123 319.712C91.0848 319.763 91.2466 319.831 91.3977 319.915C91.5488 319.999 91.6858 320.109 91.8088 320.244C91.9317 320.378 92.0326 320.539 92.1115 320.725C92.1904 320.912 92.2398 321.133 92.2599 321.388C92.2869 321.731 92.2353 322.044 92.1051 322.327C91.9829 322.609 91.7977 322.857 91.5496 323.069C91.3015 323.281 90.9978 323.449 90.6384 323.574C90.2877 323.706 89.897 323.789 89.4663 323.823C88.6369 323.888 88.0017 323.821 87.5608 323.623C87.1199 323.425 86.8854 323.147 86.8571 322.788C86.8402 322.573 86.8776 322.385 86.9693 322.226C87.0605 322.058 87.1783 321.924 87.323 321.825C87.4913 321.924 87.712 322.027 87.9853 322.134C88.2658 322.232 88.6215 322.264 89.0521 322.23C89.4589 322.198 89.7523 322.103 89.9324 321.944C90.1205 321.785 90.2054 321.59 90.1872 321.358C90.169 321.127 90.0755 320.958 89.9065 320.851C89.7456 320.743 89.4737 320.704 89.0909 320.734L87.9664 320.823C87.9036 320.74 87.8473 320.636 87.7974 320.511C87.7475 320.387 87.7156 320.237 87.7018 320.061C87.6874 319.878 87.6911 319.721 87.7129 319.591C87.7421 319.452 87.7852 319.337 87.8421 319.244L88.9666 319.155C89.5408 319.11 89.8107 318.868 89.7762 318.43C89.7598 318.222 89.6549 318.062 89.4615 317.949C89.268 317.836 88.9878 317.793 88.621 317.822C88.294 317.848 88.01 317.911 87.769 318.01C87.5275 318.101 87.3313 318.209 87.1806 318.333C87.0375 318.248 86.9167 318.141 86.8183 318.012C86.7193 317.876 86.6622 317.712 86.6472 317.52C86.6158 317.122 86.8002 316.814 87.2005 316.598C87.6002 316.374 88.1469 316.235 88.8408 316.18ZM99.0534 321.816C99.043 322.194 98.954 322.49 98.7862 322.704C98.6265 322.917 98.3751 323.037 98.0322 323.064C97.777 323.084 97.545 323.042 97.3362 322.938C97.1267 322.826 96.8948 322.632 96.6403 322.355L95.3392 320.965L95.5105 323.142C95.4241 323.165 95.294 323.195 95.1205 323.233C94.9555 323.278 94.7853 323.308 94.6098 323.321C94.4344 323.335 94.2739 323.336 94.1285 323.323C93.991 323.31 93.8716 323.271 93.7702 323.207C93.6689 323.143 93.5856 323.053 93.5204 322.938C93.4625 322.814 93.4257 322.652 93.41 322.453L92.8648 315.526C92.9507 315.495 93.0764 315.462 93.242 315.424C93.415 315.379 93.5892 315.349 93.7646 315.335C93.9401 315.321 94.0965 315.321 94.234 315.334C94.3794 315.347 94.5028 315.385 94.6042 315.45C94.7055 315.514 94.7852 315.608 94.8431 315.732C94.9083 315.847 94.9488 316.004 94.9645 316.204L95.213 319.362L97.1049 317.094C97.5197 317.062 97.8579 317.127 98.1195 317.291C98.3892 317.455 98.535 317.676 98.557 317.955C98.5664 318.075 98.5552 318.188 98.5235 318.295C98.4912 318.394 98.4352 318.498 98.3556 318.609C98.284 318.719 98.1852 318.839 98.059 318.969C97.9402 319.091 97.799 319.235 97.6355 319.4L96.9887 320.053L99.0534 321.816Z" fill="#CECECE"/>
<path d="M51.4284 86.2409C57.0219 79.7607 56.3032 69.973 49.823 64.3794C43.3428 58.7859 33.5551 59.5046 27.9615 65.9848C22.368 72.465 23.0867 82.2527 29.5669 87.8463C36.0471 93.4398 45.8348 92.7211 51.4284 86.2409Z" fill="#B1DEE8"/>
<path d="M43.4059 71.2459C43.6059 73.5459 41.9059 75.4459 39.6059 75.6459C37.3059 75.8459 35.4059 74.1459 35.2059 71.8459C35.0059 69.5459 36.7059 67.6459 39.0059 67.4459C41.3059 67.2459 43.2059 68.9459 43.4059 71.2459Z" fill="white"/>
<path d="M47.806 83.4457L48.106 87.5457C46.106 89.1457 43.506 90.2457 40.806 90.4457C38.006 90.6457 35.406 90.0457 33.106 88.7457L32.806 84.6457C32.506 80.5457 35.606 76.8457 39.706 76.5457C41.806 76.3457 43.706 77.0457 45.206 78.3457C46.706 79.6457 47.706 81.4457 47.806 83.4457Z" fill="white"/>
<path d="M191.006 52.2458L68.3058 61.9458C67.3058 61.9458 66.4058 61.2458 66.4058 60.2458C66.4058 59.2458 67.1058 58.3458 68.1058 58.3458L190.806 48.6458C191.806 48.6458 192.706 49.3458 192.706 50.3458C192.706 51.3458 192.006 52.2458 191.006 52.2458Z" fill="#B1DEE8"/>
<path d="M191.706 61.3459L69.0057 71.0459C68.0057 71.0459 67.1057 70.3459 67.1057 69.3459C67.1057 68.3459 67.8057 67.4459 68.8057 67.4459L191.506 57.7458C192.506 57.7458 193.406 58.4459 193.406 59.4459C193.406 60.4459 192.706 61.3459 191.706 61.3459Z" fill="#B1DEE8"/>
<path d="M144.606 74.1457L69.7057 80.0457C68.7057 80.0457 67.8057 79.3457 67.8057 78.3457C67.8057 77.3457 68.5057 76.4457 69.5057 76.4457L144.406 70.5457C145.406 70.5457 146.306 71.2457 146.306 72.2457C146.306 73.2457 145.606 74.1457 144.606 74.1457Z" fill="#B1DEE8"/>
<path d="M150.806 82.7458L70.4059 89.1458C69.4059 89.1458 68.5059 88.4458 68.5059 87.4458C68.5059 86.4458 69.2059 85.5458 70.2059 85.5458L150.606 79.1458C151.606 79.1458 152.506 79.8458 152.506 80.8458C152.506 81.8458 151.806 82.7458 150.806 82.7458Z" fill="#B1DEE8"/>
<path d="M224.319 307.561L223.151 308.026C223.026 307.956 222.897 307.854 222.766 307.72C222.635 307.585 222.56 307.391 222.54 307.136C222.502 306.657 222.767 306.299 223.334 306.062L224.638 305.502L225.081 305.467C225.424 305.44 225.703 305.518 225.918 305.702C226.133 305.886 226.254 306.149 226.281 306.492L226.771 312.725C226.685 312.748 226.555 312.778 226.381 312.816C226.216 312.861 226.046 312.89 225.871 312.904C225.695 312.918 225.535 312.918 225.389 312.906C225.252 312.892 225.132 312.854 225.031 312.789C224.93 312.725 224.846 312.635 224.781 312.52C224.723 312.396 224.686 312.235 224.671 312.035L224.319 307.561ZM232.08 308.66C232.024 307.958 231.878 307.424 231.641 307.057C231.411 306.69 231.109 306.521 230.734 306.551C230.359 306.58 230.087 306.794 229.918 307.193C229.757 307.591 229.704 308.141 229.759 308.842C229.814 309.544 229.953 310.083 230.175 310.459C230.404 310.826 230.707 310.995 231.081 310.965C231.456 310.936 231.728 310.722 231.898 310.323C232.074 309.916 232.135 309.362 232.08 308.66ZM234.125 308.499C234.174 309.113 234.137 309.665 234.015 310.156C233.893 310.648 233.702 311.068 233.44 311.417C233.186 311.758 232.866 312.028 232.481 312.227C232.103 312.425 231.683 312.543 231.22 312.579C230.75 312.616 230.309 312.567 229.897 312.431C229.493 312.294 229.135 312.077 228.822 311.781C228.518 311.476 228.267 311.09 228.069 310.624C227.88 310.158 227.761 309.617 227.713 309.003C227.665 308.389 227.698 307.841 227.812 307.359C227.934 306.867 228.122 306.451 228.376 306.11C228.638 305.761 228.957 305.487 229.335 305.289C229.72 305.09 230.148 304.972 230.619 304.935C231.081 304.898 231.515 304.949 231.919 305.085C232.331 305.221 232.689 305.442 232.994 305.747C233.306 306.043 233.561 306.425 233.758 306.891C233.955 307.349 234.077 307.885 234.125 308.499ZM236.547 312.846C236.425 313.032 236.287 313.171 236.134 313.264C235.989 313.355 235.805 313.41 235.581 313.428C235.23 313.455 234.923 313.379 234.66 313.199C234.797 312.691 234.905 312.173 234.984 311.645C235.062 311.109 235.124 310.627 235.171 310.198C235.3 310.115 235.459 310.043 235.647 309.98C235.834 309.909 236.023 309.866 236.215 309.851C236.462 309.832 236.682 309.87 236.874 309.968C237.074 310.064 237.185 310.256 237.208 310.543C237.221 310.711 237.212 310.9 237.18 311.111C237.148 311.314 237.1 311.523 237.037 311.736C236.973 311.942 236.897 312.145 236.808 312.344C236.727 312.543 236.64 312.71 236.547 312.846ZM239.805 304.212C240.722 304.14 241.435 304.276 241.944 304.621C242.452 304.959 242.731 305.446 242.781 306.084C242.811 306.467 242.733 306.802 242.547 307.09C242.369 307.368 242.145 307.587 241.877 307.744C242.049 307.795 242.211 307.862 242.362 307.947C242.513 308.031 242.65 308.141 242.773 308.276C242.896 308.41 242.997 308.571 243.076 308.757C243.155 308.944 243.204 309.164 243.224 309.42C243.251 309.763 243.2 310.076 243.069 310.359C242.947 310.641 242.762 310.888 242.514 311.101C242.266 311.313 241.962 311.481 241.603 311.606C241.252 311.738 240.861 311.82 240.431 311.854C239.601 311.92 238.966 311.853 238.525 311.655C238.084 311.457 237.85 311.179 237.821 310.82C237.805 310.605 237.842 310.417 237.934 310.257C238.025 310.09 238.143 309.956 238.287 309.856C238.456 309.955 238.676 310.058 238.95 310.165C239.23 310.264 239.586 310.296 240.016 310.262C240.423 310.23 240.717 310.135 240.897 309.976C241.085 309.817 241.17 309.621 241.152 309.39C241.133 309.159 241.04 308.99 240.871 308.883C240.71 308.775 240.438 308.736 240.055 308.766L238.931 308.855C238.868 308.771 238.812 308.668 238.762 308.543C238.712 308.419 238.68 308.269 238.666 308.093C238.652 307.91 238.655 307.753 238.677 307.623C238.707 307.484 238.75 307.368 238.806 307.276L239.931 307.187C240.505 307.142 240.775 306.9 240.741 306.461C240.724 306.254 240.619 306.094 240.426 305.981C240.232 305.867 239.952 305.825 239.585 305.854C239.258 305.88 238.974 305.942 238.733 306.042C238.492 306.133 238.296 306.241 238.145 306.365C238.002 306.28 237.881 306.173 237.783 306.044C237.684 305.908 237.627 305.744 237.612 305.552C237.58 305.153 237.765 304.846 238.165 304.63C238.565 304.406 239.111 304.266 239.805 304.212ZM250.018 309.848C250.007 310.226 249.918 310.522 249.751 310.736C249.591 310.949 249.339 311.069 248.997 311.096C248.741 311.116 248.509 311.074 248.301 310.97C248.091 310.858 247.859 310.664 247.605 310.387L246.304 308.997L246.475 311.174C246.388 311.197 246.258 311.227 246.085 311.265C245.92 311.31 245.75 311.339 245.574 311.353C245.399 311.367 245.238 311.368 245.093 311.355C244.955 311.342 244.836 311.303 244.735 311.239C244.633 311.175 244.55 311.085 244.485 310.97C244.427 310.846 244.39 310.684 244.374 310.485L243.829 303.558C243.915 303.527 244.041 303.493 244.206 303.456C244.379 303.411 244.554 303.381 244.729 303.367C244.904 303.353 245.061 303.353 245.198 303.366C245.344 303.379 245.467 303.417 245.569 303.481C245.67 303.546 245.75 303.64 245.807 303.764C245.873 303.879 245.913 304.036 245.929 304.235L246.177 307.394L248.069 305.126C248.484 305.094 248.822 305.159 249.084 305.323C249.354 305.487 249.499 305.708 249.521 305.987C249.531 306.107 249.52 306.22 249.488 306.327C249.456 306.426 249.4 306.53 249.32 306.641C249.248 306.751 249.15 306.871 249.023 307.001C248.905 307.123 248.763 307.266 248.6 307.432L247.953 308.085L250.018 309.848Z" fill="#CECECE"/>
<path d="M215.406 295.746L194.006 297.446C193.006 297.446 192.306 298.346 192.406 299.346L193.606 313.946C193.606 314.946 194.506 315.646 195.506 315.546L208.106 314.546C209.006 314.546 210.006 314.746 210.706 315.446C213.106 317.546 215.706 319.746 216.206 319.446C216.606 319.246 215.906 317.146 215.106 314.946C214.906 314.446 215.206 313.946 215.806 313.946H217.006C218.006 313.746 218.706 312.946 218.606 311.946L217.406 297.346C217.406 296.346 216.506 295.646 215.506 295.746H215.406Z" fill="#99D6E0"/>
<path d="M207.206 305.246C207.206 306.246 206.506 307.046 205.606 307.146C204.706 307.246 203.806 306.446 203.706 305.546C203.706 304.546 204.406 303.746 205.306 303.646C206.306 303.646 207.106 304.346 207.206 305.246Z" fill="white"/>
<path d="M200.506 305.846C200.506 306.846 199.806 307.646 198.906 307.746C197.906 307.746 197.106 307.046 197.006 306.146C197.006 305.146 197.706 304.346 198.606 304.246C199.606 304.246 200.406 304.946 200.506 305.846Z" fill="white"/>
<path d="M213.906 304.746C213.906 305.746 213.206 306.546 212.306 306.646C211.306 306.646 210.506 305.946 210.406 305.046C210.406 304.046 211.106 303.246 212.006 303.146C212.906 303.046 213.806 303.846 213.906 304.746Z" fill="white"/>
<path d="M143.806 312.446C144.306 311.646 144.406 310.646 143.906 309.846C143.306 308.846 142.506 308.446 141.406 308.546C140.006 308.546 138.706 308.746 137.306 308.846C137.206 308.846 137.106 308.846 137.006 308.846C137.006 308.646 137.206 308.346 137.306 308.146C137.606 307.246 137.806 306.446 137.806 305.546C137.806 305.046 137.806 304.446 137.706 303.946C137.306 302.446 136.206 301.546 134.606 301.346C133.606 301.346 132.706 301.946 132.606 302.946C132.606 303.446 132.606 304.046 132.406 304.546C132.106 305.846 131.406 306.846 130.506 307.846C129.906 308.446 129.206 309.046 128.606 309.546C128.006 309.946 127.306 310.446 126.706 310.846C126.606 310.846 126.506 311.046 126.506 311.246L127.506 323.546C127.506 323.746 127.606 323.846 127.806 323.946C128.406 324.146 129.106 324.246 129.706 324.346C131.206 324.546 132.706 324.646 134.306 324.546C136.506 324.446 138.706 324.246 140.906 324.046C141.106 324.046 141.406 324.046 141.606 323.946C143.206 323.446 143.906 321.646 143.106 320.246C143.106 320.146 143.106 320.046 143.106 319.946C144.006 319.146 144.206 317.946 143.606 316.846C143.606 316.746 143.606 316.646 143.606 316.546C144.706 315.646 144.806 314.046 143.806 313.046C143.706 312.946 143.706 312.846 143.806 312.646V312.446Z" fill="#29C3FE"/>
<path d="M125.406 311.046C125.406 311.046 125.406 310.946 125.406 310.846C125.406 310.646 125.406 310.346 125.206 310.146C125.206 310.146 125.206 310.146 125.106 310.146C125.006 310.146 124.906 310.146 124.806 310.146C123.706 310.146 122.606 310.346 121.406 310.446C120.306 310.446 119.206 310.646 118.006 310.746C117.906 310.746 117.806 310.746 117.706 310.746C117.706 310.746 117.706 310.746 117.606 310.746C117.506 310.946 117.506 311.246 117.506 311.446V311.646C117.806 315.046 118.006 318.346 118.306 321.746C118.306 322.746 118.506 323.746 118.506 324.746C118.506 325.346 118.906 325.646 119.506 325.646C120.106 325.646 120.606 325.646 121.206 325.546C121.506 325.546 121.806 325.546 122.006 325.546C122.306 325.546 122.506 325.546 122.806 325.546C123.106 325.546 123.306 325.546 123.606 325.546C123.906 325.546 124.206 325.546 124.406 325.546C125.006 325.546 125.506 325.546 126.106 325.446C126.706 325.446 127.006 325.046 127.006 324.446C127.006 323.446 126.806 322.446 126.806 321.446C126.506 318.046 126.306 314.746 126.006 311.346L125.406 311.046Z" fill="#29C3FE"/>
<path d="M150.119 313.461L148.952 313.926C148.826 313.856 148.697 313.754 148.566 313.62C148.435 313.486 148.36 313.291 148.34 313.036C148.302 312.557 148.567 312.199 149.134 311.962L150.438 311.402L150.881 311.367C151.224 311.34 151.503 311.419 151.718 311.602C151.933 311.786 152.054 312.049 152.081 312.392L152.571 318.625C152.485 318.648 152.355 318.678 152.181 318.716C152.016 318.761 151.846 318.79 151.671 318.804C151.495 318.818 151.335 318.819 151.189 318.806C151.052 318.793 150.932 318.754 150.831 318.69C150.73 318.625 150.646 318.536 150.581 318.42C150.523 318.297 150.486 318.135 150.471 317.936L150.119 313.461ZM156.387 318.529C156.02 318.558 155.682 318.557 155.375 318.525C155.076 318.492 154.814 318.428 154.59 318.334C154.365 318.239 154.187 318.117 154.055 317.966C153.922 317.808 153.847 317.622 153.831 317.406C153.813 317.183 153.862 316.991 153.978 316.829C154.093 316.667 154.228 316.537 154.38 316.436C154.617 316.586 154.867 316.715 155.133 316.822C155.397 316.922 155.725 316.956 156.116 316.926C156.491 316.896 156.751 316.791 156.898 316.611C157.044 316.431 157.108 316.222 157.089 315.982C157.071 315.751 156.984 315.565 156.828 315.425C156.681 315.284 156.436 315.227 156.093 315.254C155.877 315.271 155.7 315.309 155.56 315.368C155.42 315.428 155.262 315.508 155.085 315.61C154.693 315.625 154.374 315.546 154.128 315.373C153.889 315.191 153.753 314.897 153.721 314.49C153.719 314.466 153.717 314.438 153.715 314.406C153.712 314.366 153.71 314.29 153.709 314.178L153.709 312.348C153.706 312.003 153.793 311.724 153.968 311.509C154.144 311.295 154.403 311.174 154.746 311.147L158.192 310.876C158.246 310.96 158.303 311.072 158.362 311.212C158.422 311.351 158.457 311.501 158.47 311.661C158.494 311.964 158.443 312.184 158.317 312.323C158.192 312.461 158.026 312.538 157.818 312.555L155.521 312.735L155.526 313.866C155.674 313.815 155.823 313.767 155.972 313.723C156.129 313.678 156.327 313.647 156.567 313.628C156.981 313.595 157.345 313.631 157.658 313.735C157.971 313.83 158.231 313.978 158.439 314.179C158.656 314.378 158.819 314.618 158.929 314.899C159.048 315.178 159.12 315.481 159.146 315.808C159.171 316.135 159.14 316.455 159.052 316.767C158.965 317.079 158.81 317.359 158.589 317.61C158.367 317.852 158.075 318.055 157.71 318.22C157.354 318.385 156.913 318.488 156.387 318.529ZM161.482 318.814C161.36 319 161.223 319.14 161.07 319.232C160.924 319.324 160.74 319.378 160.517 319.396C160.166 319.423 159.859 319.347 159.596 319.167C159.733 318.659 159.84 318.141 159.919 317.613C159.997 317.077 160.06 316.595 160.106 316.166C160.236 316.084 160.395 316.011 160.582 315.948C160.769 315.877 160.959 315.834 161.15 315.819C161.397 315.8 161.617 315.839 161.809 315.936C162.009 316.032 162.121 316.224 162.143 316.511C162.157 316.679 162.147 316.868 162.116 317.079C162.084 317.282 162.036 317.491 161.973 317.704C161.908 317.91 161.832 318.113 161.744 318.312C161.663 318.511 161.576 318.679 161.482 318.814ZM163.612 312.399L162.445 312.864C162.319 312.794 162.191 312.692 162.06 312.558C161.929 312.424 161.853 312.229 161.833 311.974C161.796 311.495 162.06 311.137 162.627 310.9L163.931 310.34L164.374 310.305C164.717 310.278 164.996 310.357 165.211 310.54C165.426 310.724 165.547 310.987 165.574 311.33L166.065 317.563C165.978 317.586 165.848 317.616 165.675 317.654C165.51 317.699 165.339 317.728 165.164 317.742C164.989 317.756 164.828 317.757 164.683 317.744C164.545 317.731 164.426 317.692 164.324 317.628C164.223 317.563 164.14 317.474 164.075 317.358C164.017 317.235 163.98 317.073 163.964 316.874L163.612 312.399ZM173.096 315.962C173.085 316.34 172.996 316.636 172.829 316.85C172.669 317.063 172.417 317.183 172.075 317.21C171.819 317.23 171.587 317.188 171.379 317.085C171.169 316.973 170.937 316.778 170.683 316.501L169.382 315.111L169.553 317.288C169.466 317.311 169.336 317.342 169.163 317.379C168.998 317.424 168.828 317.454 168.652 317.468C168.477 317.481 168.316 317.482 168.171 317.469C168.033 317.456 167.914 317.417 167.813 317.353C167.711 317.289 167.628 317.199 167.563 317.084C167.505 316.96 167.468 316.798 167.452 316.599L166.907 309.673C166.993 309.642 167.119 309.608 167.284 309.571C167.457 309.525 167.632 309.495 167.807 309.481C167.982 309.468 168.139 309.467 168.276 309.48C168.422 309.493 168.545 309.532 168.647 309.596C168.748 309.66 168.828 309.754 168.885 309.878C168.951 309.993 168.991 310.15 169.007 310.35L169.255 313.508L171.147 311.241C171.562 311.208 171.9 311.274 172.162 311.438C172.432 311.601 172.577 311.822 172.599 312.101C172.609 312.221 172.598 312.334 172.566 312.441C172.534 312.54 172.478 312.645 172.398 312.755C172.326 312.865 172.228 312.985 172.101 313.116C171.983 313.237 171.841 313.381 171.678 313.546L171.031 314.199L173.096 315.962Z" fill="#CECECE"/>
<path d="M134.106 89.9459C134.106 89.9459 133.906 89.9458 133.406 90.2458C132.906 90.4458 132.306 90.8459 131.506 91.4459C129.906 92.6459 127.906 94.7459 126.306 97.8459C124.706 100.946 123.406 104.946 122.706 109.346C122.406 111.546 122.106 113.846 121.806 116.246C121.506 118.546 121.306 120.946 121.006 123.346C120.706 125.746 120.406 128.146 119.206 130.446C118.606 131.546 117.806 132.546 116.806 133.146C115.806 133.846 114.706 134.246 113.606 134.646C111.406 135.346 109.306 135.846 107.406 136.546C105.506 137.246 103.706 137.946 102.006 138.746C100.406 139.546 99.006 140.446 97.906 141.346C96.806 142.246 95.906 143.246 95.306 144.046C94.706 144.946 94.406 145.646 94.206 146.246C94.006 146.746 93.906 147.046 93.906 147.046C93.906 147.046 93.906 146.746 94.106 146.246C94.306 145.746 94.606 144.946 95.206 144.046C95.806 143.146 96.606 142.146 97.706 141.246C98.806 140.246 100.206 139.346 101.806 138.546C103.406 137.646 105.206 136.946 107.106 136.146C109.006 135.346 111.206 134.846 113.206 134.046C114.206 133.646 115.306 133.246 116.206 132.546C117.106 131.946 117.906 131.046 118.306 130.046C119.306 128.046 119.506 125.546 119.806 123.246C120.106 120.846 120.206 118.446 120.506 116.146C120.706 113.746 120.906 111.446 121.206 109.246C121.806 104.746 123.006 100.546 124.606 97.2458C125.406 95.5458 126.306 94.1459 127.306 92.9459C128.306 91.7459 129.206 90.8459 130.106 90.1459C131.006 89.4459 131.706 88.9459 132.306 88.6459C132.806 88.3459 133.206 88.2458 133.206 88.2458L133.806 90.1459L134.106 89.9459Z" fill="#002751"/>
<path d="M151.006 333.846L157.206 348.246C157.206 348.246 162.406 347.146 165.506 344.746L161.106 328.246" fill="#FF9F80"/>
<path d="M163.606 337.746C163.606 337.746 164.006 338.346 167.206 340.246C170.406 342.146 171.106 343.246 170.706 345.846C170.306 348.346 166.106 351.246 164.206 353.946C162.406 356.646 160.706 361.546 158.706 363.846C156.706 366.146 153.506 369.146 150.506 368.346C147.506 367.546 148.406 365.346 149.006 364.246C149.706 363.246 151.506 358.046 152.406 354.746C153.406 351.346 153.606 346.846 154.206 344.646C154.706 342.746 155.306 342.646 157.706 344.646C159.106 345.746 160.506 345.246 161.706 344.246C162.606 343.446 162.106 340.546 162.706 339.246C163.306 337.946 163.606 337.846 163.606 337.846V337.746Z" fill="white"/>
<path d="M149.706 365.846C149.706 365.846 150.106 366.146 150.906 366.246C151.706 366.346 152.806 366.046 153.906 365.346C154.506 364.946 155.006 364.546 155.606 364.046C156.106 363.546 156.606 362.846 157.106 362.146C158.006 360.746 158.706 359.046 159.506 357.346C160.406 355.746 161.306 354.146 162.306 352.746C162.806 352.046 163.306 351.346 163.806 350.746C164.306 350.146 164.906 349.546 165.406 349.146C166.506 348.246 167.406 347.646 168.106 347.146C168.806 346.746 169.206 346.446 169.206 346.446C169.206 346.446 168.806 346.746 168.206 347.246C167.606 347.746 166.706 348.446 165.706 349.446C165.206 349.946 164.706 350.446 164.306 351.046C163.806 351.646 163.406 352.346 162.906 353.046C162.006 354.446 161.106 356.046 160.206 357.646C159.306 359.246 158.606 360.946 157.606 362.446C157.106 363.146 156.606 363.846 156.006 364.346C155.406 364.846 154.706 365.346 154.106 365.646C152.806 366.346 151.606 366.446 150.806 366.346C150.406 366.346 150.106 366.146 149.906 366.046C149.706 365.946 149.606 365.846 149.606 365.846H149.706Z" fill="#B5D1E2"/>
<path d="M152.606 352.946C152.606 352.946 152.906 352.946 153.406 352.846C153.906 352.846 154.506 352.846 155.006 352.946C155.606 353.046 156.106 353.346 156.506 353.546C156.706 353.646 156.806 353.746 156.906 353.846L157.106 353.946C157.106 353.946 157.106 353.946 156.906 353.946C156.806 353.946 156.606 353.846 156.406 353.746C156.006 353.646 155.506 353.446 154.906 353.446C154.406 353.446 153.806 353.446 153.506 353.646C153.106 353.746 152.906 353.846 152.906 353.846C152.706 353.946 152.306 353.846 152.206 353.646C152.106 353.446 152.206 353.046 152.406 352.946C152.406 352.946 152.406 352.946 152.506 352.946H152.606Z" fill="#B5D1E2"/>
<path d="M152.806 350.546C152.806 350.546 153.106 350.546 153.606 350.446C154.106 350.446 154.706 350.446 155.206 350.546C155.806 350.646 156.306 350.946 156.706 351.146C156.906 351.246 157.006 351.346 157.106 351.446L157.306 351.546C157.306 351.546 157.306 351.546 157.106 351.546C157.006 351.546 156.806 351.446 156.606 351.346C156.206 351.246 155.706 351.046 155.106 351.046C154.606 351.046 154.006 351.046 153.706 351.246C153.306 351.346 153.106 351.446 153.106 351.446C152.906 351.546 152.506 351.446 152.406 351.246C152.306 351.046 152.406 350.646 152.606 350.546C152.606 350.546 152.606 350.546 152.706 350.546H152.806Z" fill="#B5D1E2"/>
<path d="M153.206 348.146C153.206 348.146 153.506 348.146 154.006 348.046C154.506 348.046 155.106 348.046 155.606 348.146C156.206 348.246 156.706 348.546 157.106 348.746C157.306 348.846 157.406 348.946 157.506 349.046L157.706 349.146C157.706 349.146 157.706 349.146 157.506 349.146C157.406 349.146 157.206 349.046 157.006 348.946C156.606 348.846 156.106 348.646 155.506 348.646C155.006 348.646 154.406 348.646 154.106 348.846C153.706 348.946 153.506 349.046 153.506 349.046C153.306 349.146 152.906 349.046 152.806 348.846C152.706 348.646 152.806 348.246 153.006 348.146C153.006 348.146 153.006 348.146 153.106 348.146H153.206Z" fill="#B5D1E2"/>
<path d="M167.706 343.546L166.806 359.146C166.806 359.146 171.906 360.546 175.806 359.746L179.306 343.046" fill="#FF9F80"/>
<path d="M171.706 353.046C171.706 353.046 174.506 353.446 176.206 356.046C177.906 358.646 177.906 359.846 177.706 364.146C177.506 368.446 179.306 371.546 178.506 375.546C177.606 379.546 174.306 381.246 169.806 382.246C165.306 383.246 158.606 380.346 159.106 376.346C159.606 372.346 161.506 370.846 163.706 365.946C165.906 361.146 164.806 357.446 166.706 355.546C168.606 353.546 169.506 353.146 171.706 353.046Z" fill="white"/>
<path d="M166.806 360.746C166.806 360.746 167.206 360.346 167.906 360.046C168.306 359.846 168.706 359.746 169.306 359.646C169.806 359.646 170.406 359.646 170.906 359.646C171.406 359.646 172.006 359.846 172.406 360.046C172.906 360.246 173.306 360.446 173.606 360.746C173.906 360.946 174.206 361.246 174.406 361.346C174.606 361.546 174.706 361.646 174.706 361.646C174.706 361.646 174.606 361.646 174.306 361.646C174.106 361.646 173.806 361.446 173.406 361.346C173.006 361.246 172.606 361.146 172.206 361.046C171.706 361.046 171.306 360.846 170.806 360.746C169.806 360.646 168.906 360.646 168.106 360.746C167.406 360.746 166.806 360.946 166.806 360.946V360.746Z" fill="#B5D1E2"/>
<path d="M166.306 363.046C166.306 363.046 166.706 362.646 167.406 362.346C167.806 362.146 168.206 362.046 168.806 361.946C169.306 361.946 169.906 361.946 170.406 361.946C170.906 361.946 171.506 362.146 171.906 362.346C172.406 362.546 172.806 362.746 173.106 363.046C173.406 363.246 173.706 363.546 173.906 363.646C174.106 363.846 174.206 363.946 174.206 363.946C174.206 363.946 174.106 363.946 173.806 363.946C173.606 363.946 173.306 363.746 172.906 363.646C172.506 363.546 172.106 363.446 171.706 363.346C171.206 363.346 170.806 363.146 170.306 363.046C169.306 362.946 168.406 362.946 167.606 363.046C166.906 363.046 166.306 363.246 166.306 363.246V363.046Z" fill="#B5D1E2"/>
<path d="M166.006 365.746C166.006 365.746 166.406 365.346 167.106 365.046C167.506 364.846 167.906 364.746 168.506 364.646C169.006 364.646 169.606 364.646 170.106 364.646C170.606 364.646 171.206 364.846 171.606 365.046C172.106 365.246 172.506 365.446 172.806 365.746C173.106 365.946 173.406 366.246 173.606 366.346C173.806 366.546 173.906 366.646 173.906 366.646C173.906 366.646 173.806 366.646 173.506 366.646C173.306 366.646 173.006 366.446 172.606 366.346C172.206 366.246 171.806 366.146 171.406 366.046C170.906 366.046 170.506 365.846 170.006 365.746C169.006 365.646 168.106 365.646 167.306 365.746C166.606 365.746 166.006 365.946 166.006 365.946V365.746Z" fill="#B5D1E2"/>
<path d="M160.406 376.246C160.406 376.246 160.606 376.746 161.206 377.346C161.706 378.046 162.706 378.846 164.006 379.446C164.706 379.746 165.406 379.946 166.306 380.046C167.106 380.046 168.006 380.146 168.906 380.046C170.706 379.846 172.606 379.246 174.106 378.146C174.906 377.546 175.606 376.946 176.006 376.146C176.406 375.346 176.506 374.346 176.606 373.446C176.706 371.646 176.606 369.846 176.606 368.346C176.606 366.846 176.706 365.646 176.806 364.746C176.806 363.846 176.906 363.346 176.906 363.346C176.906 363.346 176.906 365.346 177.106 368.346C177.106 369.846 177.406 371.546 177.306 373.446C177.306 374.346 177.106 375.346 176.706 376.346C176.206 377.346 175.406 378.046 174.606 378.646C172.906 379.846 170.906 380.446 169.006 380.546C168.006 380.546 167.106 380.546 166.306 380.446C165.506 380.346 164.606 380.046 164.006 379.746C162.606 379.046 161.806 378.046 161.306 377.346C160.806 376.646 160.706 376.146 160.706 376.146L160.406 376.246Z" fill="#B5D1E2"/>
<path d="M149.006 88.1461C149.006 88.1461 135.006 83.7461 128.806 91.2461C122.506 98.7461 126.906 124.046 120.006 132.046C113.106 140.046 98.7059 137.046 91.2059 151.246C83.7059 165.446 113.206 194.746 143.106 189.646C173.006 184.646 184.006 135.146 180.506 113.146C177.506 94.1461 167.706 84.8461 160.706 83.7461C152.006 82.4461 149.006 88.0461 149.006 88.0461V88.1461Z" fill="#002751"/>
<path d="M182.906 126.646L178.006 136.046L172.106 147.346H178.906L184.706 147.246C184.706 147.246 184.606 145.546 185.106 144.346C185.306 143.846 185.606 143.546 186.106 143.346C193.106 141.146 213.906 137.346 215.206 135.446L206.206 121.846L183.006 126.646H182.906Z" fill="#FF9F80"/>
<path d="M173.106 129.446C173.106 129.446 171.706 141.546 169.506 142.746C167.306 143.946 163.406 143.446 160.506 140.746C157.606 138.146 157.906 133.346 157.906 133.346C158.306 131.646 157.906 129.246 157.306 126.846C157.206 126.246 157.006 125.646 156.806 125.046C155.806 121.346 154.406 118.146 154.406 118.146L166.106 115.546C166.606 117.646 167.406 119.646 168.106 121.446C168.406 122.146 168.706 122.846 169.006 123.446C169.006 123.446 169.006 123.646 169.106 123.646C169.706 124.946 170.306 126.046 170.806 126.946C171.506 128.146 171.906 128.846 171.906 128.846L172.906 129.446H173.106Z" fill="#FF9F80"/>
<path d="M170.906 126.846C165.606 128.246 160.906 125.846 160.906 125.846L169.106 123.246C169.106 123.246 169.106 123.446 169.206 123.446C169.806 124.746 170.406 125.846 170.906 126.746V126.846Z" fill="#EF7760"/>
<path d="M140.506 108.346C140.506 108.346 153.706 130.946 167.506 126.346C181.306 121.746 167.006 94.1458 167.006 94.1458C167.006 94.1458 143.306 84.1459 140.506 108.346Z" fill="#FF9F80"/>
<path d="M146.906 114.746C146.906 114.746 143.906 115.746 144.206 117.946C144.506 120.146 148.006 122.846 149.506 123.146C151.006 123.446 152.506 121.546 152.506 121.546" fill="#FF9F80"/>
<path d="M155.206 89.0459C155.206 89.0459 156.606 103.246 141.106 112.746L132.806 99.2459L155.306 89.0459H155.206Z" fill="#002751"/>
<path d="M149.006 92.1459C149.006 92.1459 159.406 98.5459 169.406 95.2459L166.606 87.2459L156.706 85.0459L150.506 88.1459L147.106 89.3459" fill="#002751"/>
<path d="M184.706 147.146H178.906C178.306 145.246 177.306 141.846 177.206 140.946C177.206 140.146 177.606 137.846 177.906 136.046C178.106 134.946 178.306 134.146 178.306 133.746C178.306 132.746 178.906 128.846 178.906 128.846L182.806 126.646C182.806 126.646 180.606 140.546 184.906 144.346C184.406 145.546 184.506 147.246 184.506 147.246L184.706 147.146Z" fill="#FF8B6C"/>
<path d="M140.906 99.0459C141.106 97.0459 140.806 96.0459 140.806 96.0459C139.906 91.8459 136.406 88.5459 132.206 89.1459C129.106 89.5459 126.606 91.8459 125.806 94.7459C124.306 92.1459 121.506 90.4459 118.406 90.8459C114.206 91.3459 111.606 95.3459 111.806 99.6459C111.806 99.6459 111.806 100.746 112.406 102.546C113.306 105.046 115.106 107.246 117.306 108.746L128.606 116.746L137.806 106.246C139.506 104.246 140.706 101.746 141.006 99.0459H140.906Z" fill="#EF3974"/>
<path d="M128.506 116.746L117.206 108.746C115.006 107.246 113.306 105.046 112.306 102.546C111.606 100.646 111.706 99.6458 111.706 99.6458C111.506 95.3458 114.106 91.3458 118.306 90.8458C121.406 90.4458 124.206 92.0458 125.706 94.7458C125.706 94.7458 119.306 91.8458 116.706 96.9458C113.306 103.446 121.406 110.246 128.506 116.746Z" fill="#DB2164"/>
<path d="M130.806 92.3458C130.806 92.3458 131.006 92.1458 131.506 91.9458C132.006 91.7458 132.706 91.4458 133.706 91.4458C134.606 91.4458 135.806 91.8458 136.706 92.6458C137.106 93.0458 137.506 93.5458 137.806 94.0458C138.106 94.5458 138.406 95.2458 138.506 95.8458C138.806 97.1458 138.606 98.4458 138.306 99.5458C137.906 100.646 137.406 101.546 136.906 102.346C136.406 103.046 135.906 103.646 135.506 103.946C135.106 104.346 134.906 104.446 134.906 104.446C134.906 104.446 135.106 104.246 135.306 103.746C135.606 103.346 135.906 102.646 136.306 101.946C136.706 101.146 137.106 100.246 137.306 99.2458C137.506 98.2458 137.606 97.1458 137.306 96.0458C137.206 95.5458 137.006 95.0458 136.706 94.5458C136.406 94.0458 136.106 93.6458 135.806 93.2458C135.106 92.5458 134.306 92.0458 133.506 91.9458C132.706 91.8458 132.006 91.9458 131.506 91.9458C131.006 92.0458 130.706 92.1458 130.706 92.1458L130.806 92.3458Z" fill="#F45B92"/>
<path d="M155.706 147.346L154.206 159.146L153.806 159.346L146.206 163.446C146.006 162.946 145.606 162.646 144.606 162.946C144.006 163.046 143.006 163.446 141.506 164.046C135.906 166.146 124.606 170.746 116.406 172.446C111.306 173.346 107.606 173.346 107.606 171.546C107.606 168.946 108.406 160.646 111.406 150.946C115.306 138.546 121.506 124.446 121.506 124.446L128.506 125.146C128.506 125.146 127.306 130.946 126.406 137.046C125.606 142.646 125.206 148.446 124.506 151.546C124.106 153.146 122.406 157.946 122.406 157.946L147.706 140.346L151.506 143.646L155.806 147.446L155.706 147.346Z" fill="#FF9F80"/>
<path d="M128.206 125.346C128.206 125.346 131.606 120.846 130.306 118.546C129.006 116.246 124.506 113.046 124.006 112.646C123.506 112.246 125.206 110.546 126.006 109.946C126.706 109.446 126.906 110.246 129.006 110.346C131.006 110.346 131.006 109.046 131.006 108.846C131.006 108.646 126.206 106.246 125.706 106.246C125.206 106.246 120.606 110.146 120.306 110.446C120.006 110.746 116.506 113.846 116.306 114.746C116.206 115.646 121.306 120.846 121.606 121.846C121.906 122.746 121.406 124.646 121.406 124.646" fill="#FF9F80"/>
<path d="M116.306 114.646C116.306 114.646 116.506 110.146 116.606 108.446C117.106 107.046 120.506 103.346 120.506 103.346L127.006 102.046C127.006 102.046 127.506 104.146 125.606 104.946C123.706 105.746 121.806 106.046 121.806 106.046L119.906 109.246V112.046" fill="#FF9F80"/>
<path d="M116.306 114.846C116.306 114.846 114.606 110.046 114.206 108.446C114.306 106.946 116.606 102.446 116.606 102.446L122.606 99.446C122.606 99.446 123.606 101.346 122.006 102.646C120.306 103.946 118.606 104.746 118.606 104.746L117.606 108.346L118.306 111.046" fill="#FF9F80"/>
<path d="M153.806 159.446L146.206 163.546C146.006 163.046 145.606 162.746 144.606 163.046C144.006 163.146 143.006 163.546 141.506 164.146C147.206 157.146 147.606 140.446 147.606 140.446L150.806 141.746L151.306 143.746L152.306 147.546C152.306 147.546 153.606 154.346 153.706 159.646L153.806 159.446Z" fill="#FF8B6C"/>
<path d="M136.606 187.146C136.606 187.146 132.606 193.946 150.606 195.546L152.006 187.146L144.906 183.346L136.706 187.146H136.606Z" fill="#EE9F02"/>
<path d="M189.306 205.846C189.306 205.846 180.806 209.946 164.306 209.146C158.906 208.846 151.006 207.746 145.906 205.846C145.906 205.846 147.306 201.246 148.806 193.646C149.206 191.646 149.606 189.346 150.006 186.946L158.906 184.646L186.106 177.746C186.106 177.746 186.506 187.346 186.906 190.446C187.306 194.346 189.306 205.846 189.306 205.846Z" fill="#FF9F80"/>
<path d="M187.406 188.746C180.406 193.246 166.206 198.146 158.006 195.546C153.806 194.246 150.806 193.746 148.806 193.546C149.206 191.546 149.606 189.246 150.006 186.846L158.906 184.546L187.406 188.746Z" fill="#FF8B6C"/>
<path d="M190.506 186.846C190.506 186.846 187.206 191.846 170.406 193.946C160.906 195.146 152.706 189.546 145.906 186.846C141.806 185.246 136.706 187.146 136.706 187.146C141.406 181.346 143.606 172.446 144.606 164.346C152.306 154.446 147.706 140.246 147.706 140.246C153.606 135.546 158.006 133.246 158.006 133.246C158.006 133.246 161.806 141.046 166.706 140.746C171.506 140.446 172.106 128.746 172.106 128.746C178.206 127.846 182.906 126.546 182.906 126.546C182.706 127.046 178.706 139.446 183.106 144.646C183.706 145.346 184.406 145.846 185.206 146.246L190.406 186.846H190.506Z" fill="#FFC02A"/>
<path d="M189.306 205.846C190.506 214.946 191.206 226.546 191.206 226.546H139.906C141.006 219.146 145.806 205.846 145.806 205.846C145.806 205.846 159.906 209.946 189.206 205.846H189.306Z" fill="#11497C"/>
<path d="M191.606 65.646C191.606 65.646 192.106 66.846 192.206 69.446C192.406 72.146 191.606 73.846 192.906 75.346C193.606 76.146 195.506 78.546 197.706 81.546C199.806 84.346 200.606 88.146 200.606 88.146L207.406 85.046C207.406 85.046 205.806 80.046 206.006 78.246C206.306 76.446 206.306 73.546 206.306 71.446C206.306 69.346 205.706 67.546 205.506 66.946C202.706 59.846 201.106 57.746 200.206 56.046C199.306 54.346 197.506 57.146 197.706 58.046C197.806 58.546 197.906 61.046 198.306 62.646C198.706 64.146 198.406 68.846 196.806 70.446C195.206 72.046 194.506 68.346 194.006 66.746C193.206 64.246 191.106 64.146 191.506 65.546L191.606 65.646Z" fill="#FF9F80"/>
<path d="M199.906 85.946C199.906 85.946 201.506 91.846 202.106 97.046C202.506 100.346 202.806 106.346 202.806 113.046C202.806 119.746 203.706 123.046 203.706 123.046L215.006 135.446C220.906 129.846 214.806 108.046 210.406 94.246C208.206 87.346 206.906 83.646 206.906 83.646L199.806 85.946H199.906Z" fill="#FF9F80"/>
<path d="M190.406 57.346L196.606 75.0459C196.806 75.5459 197.306 75.846 197.806 75.846L203.106 75.346C203.706 75.346 204.106 74.7459 203.906 74.1459L197.206 50.3459C197.106 49.8459 196.506 49.7459 196.206 50.0459L190.706 55.5459C190.206 56.0459 190.106 56.746 190.306 57.346H190.406Z" fill="#20208C"/>
<path d="M190.806 57.546L196.806 74.746C197.006 75.246 197.406 75.446 197.906 75.446L202.806 74.946C203.306 74.946 203.706 74.346 203.506 73.846L197.006 51.046C196.906 50.646 196.406 50.446 196.106 50.746L191.106 55.746C190.706 56.146 190.506 56.846 190.806 57.446V57.546Z" fill="#3B33BD"/>
<path d="M196.806 49.8459L198.106 50.0459C198.206 50.0459 198.406 50.1459 198.406 50.3459L204.706 73.6459C204.706 73.7459 204.706 73.8459 204.706 73.9459L203.906 74.846L196.806 49.8459Z" fill="#20208C"/>
<path d="M202.606 63.4459C202.606 63.4459 201.306 59.7459 202.106 59.0459C202.906 58.3459 203.506 60.2459 203.806 61.1459C204.106 62.0459 205.606 64.8459 205.706 65.3459C205.806 65.8459 206.306 70.6459 206.306 70.6459L203.006 64.2459" fill="#FF9F80"/>
<path d="M192.406 64.7458C192.406 64.7458 193.806 65.1459 194.306 66.6459C194.806 68.1459 194.606 69.7459 194.906 71.1459C195.306 72.5459 193.106 70.1459 193.106 70.1459" fill="#FF9F80"/>
<path d="M139.906 226.546C139.906 226.546 124.306 275.246 126.306 282.246C128.306 289.246 150.606 337.546 150.606 337.546C150.606 337.546 152.906 337.746 156.006 336.046C158.706 334.546 162.306 331.646 162.306 331.646C162.306 331.646 159.106 319.346 156.706 307.946C155.406 302.146 153.506 294.646 153.006 291.246C152.306 286.646 150.606 281.746 149.806 279.346C149.406 278.346 149.506 277.246 149.906 276.246L170.106 231.246L172.406 220.046L155.906 218.046L140.106 226.646L139.906 226.546Z" fill="#11497C"/>
<path d="M194.106 224.946C193.006 216.046 191.606 213.546 190.506 210.046C189.606 207.146 189.306 205.946 189.306 205.946L166.006 222.546C166.006 222.546 165.906 261.246 167.606 279.746C167.806 282.246 167.906 284.746 167.806 287.346C167.106 303.446 165.906 347.046 165.906 347.046C165.906 347.046 168.406 348.146 172.506 348.446C174.306 348.546 179.506 348.246 179.506 348.246C180.406 344.646 181.906 337.046 182.106 334.046C182.406 330.946 182.706 325.746 182.706 325.746C187.306 292.846 195.106 234.446 194.006 225.046L194.106 224.946Z" fill="#11497C"/>
<path d="M142.306 181.646C142.306 181.646 143.006 181.346 144.406 181.246C145.806 181.146 147.806 181.246 150.006 181.846C151.106 182.146 152.306 182.646 153.506 183.346C154.706 184.046 155.806 184.846 157.006 185.646C158.206 186.446 159.506 187.246 160.806 187.946C162.106 188.646 163.606 189.246 165.006 189.746C166.406 190.246 168.006 190.646 169.406 190.946C170.906 191.246 172.406 191.246 173.806 191.146C176.706 190.946 179.406 190.246 181.606 189.546C183.806 188.846 185.606 188.046 186.806 187.446C187.406 187.146 187.906 186.946 188.206 186.746C188.506 186.546 188.706 186.446 188.706 186.446C188.706 186.446 188.506 186.446 188.206 186.746C187.906 186.946 187.406 187.246 186.806 187.546C185.606 188.146 183.806 189.046 181.606 189.846C179.406 190.646 176.706 191.346 173.806 191.646C172.306 191.746 170.806 191.746 169.206 191.546C167.706 191.246 166.106 190.846 164.606 190.346C161.606 189.346 158.906 187.746 156.406 186.046C155.206 185.246 154.006 184.346 152.906 183.646C151.806 182.946 150.606 182.346 149.506 182.046C147.306 181.346 145.306 181.146 144.006 181.246C142.606 181.246 141.906 181.546 141.906 181.546L142.306 181.646Z" fill="#FF952C"/>
<path d="M158.806 136.946C158.806 136.946 159.006 137.146 159.306 137.546C159.606 137.946 160.106 138.446 160.706 139.046C161.006 139.346 161.406 139.646 161.806 139.946C162.206 140.246 162.606 140.546 163.106 140.846C163.306 140.946 163.606 141.046 163.806 141.246C164.106 141.246 164.306 141.446 164.606 141.546C165.106 141.646 165.706 141.746 166.206 141.746H166.606H166.706H166.906C167.206 141.646 167.506 141.546 167.706 141.446C168.206 141.246 168.706 140.946 169.106 140.646C169.506 140.346 169.806 139.946 170.106 139.546C170.406 139.146 170.606 138.746 170.806 138.346C171.206 137.546 171.506 136.946 171.606 136.446C171.806 135.946 171.806 135.646 171.806 135.646C171.806 135.646 171.806 135.946 171.706 136.446C171.606 136.946 171.406 137.646 171.106 138.446C170.906 138.846 170.706 139.246 170.406 139.746C170.106 140.146 169.806 140.646 169.306 140.946C168.906 141.346 168.406 141.646 167.806 141.846C167.506 141.946 167.206 142.046 166.906 142.146H166.706C166.706 142.146 166.706 142.146 166.606 142.146H166.506H166.006C165.406 142.146 164.806 142.146 164.206 141.946C163.906 141.946 163.606 141.746 163.406 141.646C163.106 141.546 162.906 141.346 162.606 141.246C162.106 140.946 161.706 140.646 161.306 140.246C160.906 139.946 160.606 139.546 160.306 139.246C159.106 137.946 158.606 136.846 158.606 136.846L158.806 136.946Z" fill="#FF952C"/>
<path d="M191.206 226.546C191.206 226.546 191.306 228.246 191.406 231.346C191.406 232.846 191.406 234.746 191.406 236.846C191.406 238.946 191.306 241.346 190.906 243.946C190.706 245.246 190.506 246.546 190.206 247.946C190.006 249.346 189.806 250.746 189.606 252.246C189.306 255.146 189.006 258.346 188.706 261.546C188.406 264.746 188.206 268.146 187.706 271.546C187.206 274.946 186.706 278.346 186.206 281.746C185.306 288.646 184.506 295.446 183.806 301.946C183.406 305.146 183.106 308.246 182.706 311.246C182.406 314.146 182.206 316.946 182.006 319.546C181.606 324.746 181.306 329.046 181.006 332.046C180.706 335.046 180.406 336.746 180.406 336.746C180.406 336.746 180.706 335.046 180.806 332.046C181.006 329.046 181.206 324.746 181.506 319.546C181.706 316.946 181.806 314.146 182.106 311.146C182.406 308.146 182.806 305.046 183.106 301.846C183.806 295.446 184.606 288.546 185.406 281.646C185.806 278.246 186.306 274.746 186.906 271.446C187.406 268.046 187.706 264.746 187.906 261.546C188.206 258.346 188.506 255.146 188.906 252.246C189.106 250.746 189.306 249.346 189.606 247.946C189.906 246.546 190.106 245.246 190.306 243.946C190.706 241.346 190.806 239.046 190.906 236.946C190.906 234.846 191.006 233.046 191.006 231.446C191.006 228.446 190.906 226.646 190.906 226.646L191.206 226.546Z" fill="#09324C"/>
<path d="M165.406 210.146C165.406 210.146 165.406 211.846 165.206 214.446C165.206 215.746 165.006 217.246 164.906 218.846C164.806 220.446 164.706 222.146 164.506 223.846C164.406 225.546 164.206 227.246 164.106 228.846C164.106 229.646 164.006 230.446 164.006 231.146C164.006 231.846 164.006 232.546 164.206 233.146C164.506 234.346 164.806 235.446 165.006 236.146C165.206 236.846 165.406 237.246 165.406 237.246C165.406 237.246 165.206 236.846 164.906 236.246C164.606 235.546 164.106 234.546 163.806 233.346C163.606 232.746 163.506 232.046 163.506 231.246C163.506 230.546 163.506 229.746 163.506 228.946C163.506 227.346 163.706 225.646 163.806 223.946C164.006 222.246 164.106 220.546 164.306 218.946C164.506 217.346 164.706 215.846 164.806 214.546C165.106 212.046 165.406 210.346 165.406 210.346V210.146Z" fill="#09324C"/>
<path d="M164.306 233.746C164.306 233.746 163.806 235.246 162.806 237.946C161.806 240.646 160.506 244.446 158.706 248.946C157.806 251.246 156.906 253.646 155.806 256.246C155.306 257.546 154.606 258.846 153.906 260.146C153.206 261.446 152.506 262.746 151.806 264.046C150.406 266.746 148.906 269.546 147.506 272.346C147.206 273.046 146.806 273.746 146.506 274.546C146.406 274.846 146.206 275.246 146.006 275.646C145.806 276.046 145.606 276.346 145.506 276.746C144.806 278.146 144.006 279.646 144.406 281.046C144.706 282.546 145.306 284.146 145.806 285.646C146.306 287.146 146.806 288.746 147.306 290.246C148.306 293.246 149.206 296.346 149.706 299.346C150.406 302.246 151.306 305.046 152.106 307.746C153.006 310.446 153.806 312.946 154.506 315.246C157.506 324.446 159.606 330.646 159.606 330.646C159.606 330.646 159.006 329.146 158.006 326.446C157.006 323.746 155.606 319.946 154.006 315.346C153.206 313.046 152.306 310.546 151.406 307.946C150.506 305.346 149.506 302.546 148.806 299.546C148.206 296.546 147.306 293.546 146.306 290.546C145.806 289.046 145.306 287.546 144.806 285.946C144.306 284.346 143.706 282.946 143.406 281.246C143.406 281.046 143.406 280.846 143.406 280.646C143.406 280.346 143.406 280.146 143.406 279.946C143.406 279.546 143.606 279.046 143.706 278.646C144.006 277.846 144.406 277.046 144.706 276.346C144.906 275.946 145.106 275.646 145.206 275.246C145.406 274.946 145.506 274.546 145.706 274.146C146.006 273.346 146.406 272.646 146.706 271.946C148.106 269.046 149.606 266.346 151.006 263.646C151.706 262.346 152.406 260.946 153.206 259.746C154.006 258.446 154.606 257.246 155.106 255.946C156.206 253.446 157.306 250.946 158.206 248.746C161.906 239.746 164.306 233.746 164.306 233.746Z" fill="#09324C"/>
<path d="M136.506 278.046C136.506 278.046 137.506 277.746 139.006 277.846C139.406 277.846 139.806 277.846 140.206 277.946C140.606 277.946 141.106 278.146 141.506 278.246C141.906 278.346 142.406 278.546 142.906 278.846C143.106 278.946 143.306 279.046 143.606 279.246L143.906 279.446C144.006 279.546 144.106 279.646 144.106 279.846C144.106 279.946 144.106 280.046 144.106 280.246C144.106 280.346 143.906 280.446 143.706 280.546C143.706 280.546 143.706 280.546 143.606 280.546C141.706 280.546 139.806 280.546 138.406 280.946C138.106 280.946 137.706 281.146 137.506 281.246C137.206 281.246 137.006 281.446 136.806 281.546C136.406 281.746 136.206 281.846 136.206 281.846C136.206 281.846 136.206 281.846 136.306 281.746C136.306 281.746 136.506 281.546 136.706 281.346C137.006 281.046 137.506 280.646 138.206 280.346C139.606 279.746 141.606 279.346 143.606 279.446C143.506 279.446 143.306 279.546 143.306 279.646C143.306 279.646 143.306 279.846 143.306 279.946C143.306 279.946 143.306 280.146 143.506 280.246L143.206 280.046C143.006 279.946 142.806 279.846 142.606 279.646C142.206 279.446 141.806 279.246 141.406 279.046C140.606 278.746 139.806 278.446 139.106 278.346C138.406 278.146 137.806 278.046 137.406 278.046C137.006 278.046 136.706 278.046 136.706 278.046H136.506Z" fill="#09324C"/>
<path d="M146.406 207.746C146.406 207.746 147.006 207.946 148.206 208.146C149.306 208.346 150.906 208.646 152.806 208.946C154.706 209.246 157.006 209.446 159.406 209.646C160.606 209.746 161.906 209.746 163.106 209.846C164.406 209.846 165.706 209.846 167.006 209.846C168.306 209.846 169.606 209.846 170.906 209.846C172.206 209.846 173.406 209.746 174.606 209.646C175.806 209.646 177.006 209.446 178.106 209.346C179.206 209.346 180.306 209.146 181.206 209.046C182.206 208.946 183.106 208.846 183.806 208.746C184.606 208.646 185.306 208.546 185.806 208.446C186.906 208.246 187.606 208.246 187.606 208.246C187.606 208.246 187.006 208.446 185.906 208.646C185.306 208.746 184.706 208.946 183.906 209.146C183.106 209.346 182.206 209.446 181.306 209.646C180.306 209.846 179.306 210.046 178.206 210.146C177.106 210.246 175.906 210.446 174.706 210.546C173.506 210.546 172.206 210.746 170.906 210.846C169.606 210.846 168.306 210.846 167.006 210.846C165.706 210.846 164.406 210.846 163.106 210.746C161.806 210.746 160.506 210.546 159.306 210.446C158.106 210.446 156.906 210.146 155.806 210.046C154.706 209.846 153.606 209.646 152.706 209.546C150.806 209.146 149.206 208.746 148.106 208.446C147.006 208.146 146.406 207.846 146.406 207.846V207.746Z" fill="#09324C"/>
<path d="M153.606 123.146C153.606 123.146 156.906 125.746 158.006 129.646L157.706 124.146L153.606 123.146Z" fill="#FF9F80"/>
<path d="M155.306 110.246C155.306 110.246 156.406 112.046 157.106 111.746C157.806 111.446 157.506 110.846 156.906 109.846C156.006 108.346 154.806 109.346 155.306 110.146V110.246Z" fill="#261818"/>
<path d="M165.106 103.246C165.106 103.246 165.806 105.246 166.606 105.146C167.406 104.946 167.106 104.346 166.806 103.246C166.206 101.646 164.806 102.346 165.106 103.246Z" fill="#261818"/>
<path d="M151.806 109.646C152.106 109.146 152.206 108.546 153.306 107.946C154.406 107.346 156.206 106.846 156.306 106.746C156.506 106.546 156.306 106.346 155.306 106.446C154.306 106.646 152.906 106.746 151.906 107.546C150.906 108.446 150.806 109.546 150.906 109.946C151.006 110.346 151.706 109.646 151.806 109.446V109.646Z" fill="#002751"/>
<path d="M165.006 100.346C164.606 100.346 164.106 100.346 163.306 100.946C162.506 101.546 161.706 102.846 161.606 102.846C161.406 102.846 161.306 102.746 161.706 102.046C162.106 101.346 162.606 100.546 163.606 100.046C164.606 99.5458 165.406 99.5459 165.606 99.8459C165.906 100.046 165.206 100.346 165.006 100.346Z" fill="#002751"/>
<path opacity="0.3" d="M163.506 109.246C163.506 109.246 166.106 111.046 166.606 112.346C166.806 112.746 165.906 114.646 165.606 114.546C165.206 114.546 166.406 112.646 166.206 112.346C165.506 111.146 162.606 108.846 162.206 108.546C161.606 108.046 162.306 108.346 163.506 109.246Z" fill="#B86D61"/>
<path d="M169.706 115.046C169.706 115.046 168.906 117.046 167.206 117.946C165.506 118.846 162.806 118.846 162.806 118.846C162.806 118.846 164.406 120.846 167.406 120.046C170.706 119.146 169.606 115.046 169.606 115.046H169.706Z" fill="white"/>
<path d="M150.806 103.746C150.806 103.746 145.906 110.346 147.706 115.846C149.506 121.346 153.006 125.446 153.006 125.446L144.106 123.246L139.206 113.546L140.606 107.246L145.806 104.546L150.706 103.846L150.806 103.746Z" fill="#002751"/>
<path d="M70.2058 103.046L19.5058 115.346C17.2058 115.946 15.8058 118.146 16.4058 120.446L24.8058 155.046C25.4058 157.346 27.6058 158.746 29.9058 158.146L59.8058 150.846C62.0058 150.346 64.4058 150.646 66.4058 151.946C73.0058 156.146 80.1058 160.246 81.1058 159.546C82.0058 158.846 79.6058 154.046 76.8058 149.246C76.2058 148.146 76.8058 146.746 78.0058 146.446L80.8058 145.746C83.1058 145.146 84.5058 142.946 83.9058 140.646L75.5058 106.046C74.9058 103.746 72.7058 102.346 70.4058 102.946L70.2058 103.046Z" fill="#EF5B90"/>
<path d="M65.8059 119.746C64.1059 114.746 59.4059 111.246 54.4059 112.446C50.6059 113.346 48.0059 116.446 47.4059 120.146C45.2059 117.146 41.6059 115.546 37.8059 116.446C32.7059 117.646 30.1059 122.846 30.9059 128.146C30.9059 128.146 30.9059 129.446 32.1059 131.646C33.6059 134.646 36.0059 136.946 38.9059 138.546L53.0059 146.246C53.4059 146.446 54.0059 146.346 54.3059 145.946L63.5059 132.546C65.3059 129.846 66.4059 126.646 66.4059 123.346C66.4059 120.946 65.8059 119.646 65.8059 119.646V119.746Z" fill="white"/>
<path d="M244.406 61.7459L283.806 71.2459C285.606 71.6459 286.706 73.4459 286.206 75.2459L279.706 102.046C279.306 103.846 277.506 104.946 275.706 104.446L252.506 98.8459C250.806 98.4459 248.906 98.7459 247.406 99.6459C242.306 102.846 236.806 106.146 236.006 105.546C235.306 105.046 237.206 101.246 239.406 97.5459C239.906 96.7459 239.406 95.6459 238.506 95.4459L236.306 94.9459C234.506 94.5459 233.406 92.7459 233.906 90.9459L240.406 64.1459C240.806 62.3459 242.606 61.2459 244.406 61.7459Z" fill="#EF5B90"/>
<path d="M247.306 77.5458C247.306 80.1458 248.106 82.6458 249.506 84.7458L256.706 95.1458C256.906 95.4458 257.306 95.5458 257.706 95.3458L268.706 89.3458C270.906 88.1458 272.806 86.2458 274.006 84.0458C274.906 82.3458 274.906 81.3458 274.906 81.3458C275.506 77.2458 273.506 73.2458 269.606 72.2458C266.706 71.5458 263.906 72.7458 262.206 75.1458C261.706 72.2458 259.706 69.8458 256.806 69.1458C252.906 68.2458 249.206 70.8458 247.906 74.7458C247.906 74.7458 247.506 75.6458 247.506 77.5458H247.306Z" fill="white"/>
<path d="M122.406 2.54606L70.306 -0.353937C68.006 -0.453937 66.006 1.34606 65.806 3.64606L63.806 39.1461C63.706 41.4461 65.506 43.4461 67.806 43.6461L98.506 45.3461C100.806 45.4461 103.006 46.5461 104.506 48.2461C109.606 54.1461 115.206 60.1461 116.406 59.7461C117.506 59.3461 116.506 54.0461 115.206 48.6461C114.906 47.4461 115.906 46.2461 117.106 46.3461L119.906 46.5461C122.206 46.6461 124.206 44.8461 124.406 42.5461L126.406 7.04606C126.506 4.74606 124.706 2.74606 122.406 2.54606Z" stroke="#EF5B90" stroke-miterlimit="10"/>
<path d="M255.506 123.146L306.806 132.746C309.106 133.146 310.606 135.346 310.206 137.646L303.706 172.646C303.306 174.946 301.106 176.446 298.806 176.046L268.506 170.446C266.206 170.046 263.906 170.446 262.006 171.846C255.706 176.346 248.806 180.846 247.706 180.246C246.706 179.646 248.906 174.646 251.506 169.746C252.106 168.646 251.506 167.246 250.206 167.046L247.406 166.546C245.106 166.146 243.606 163.946 244.006 161.646L250.506 126.646C250.906 124.346 253.106 122.846 255.406 123.246L255.506 123.146Z" stroke="#EF5B90" stroke-miterlimit="10"/>
<path d="M82.506 253.746C83.006 252.946 83.106 251.946 82.506 251.146C81.906 250.146 81.006 249.846 80.006 249.946C78.606 250.046 77.306 250.146 75.906 250.346C75.806 250.346 75.706 250.346 75.606 250.346C75.606 250.146 75.806 249.846 75.906 249.646C76.206 248.746 76.306 247.946 76.306 247.046C76.306 246.546 76.306 245.946 76.106 245.446C75.706 243.946 74.506 243.046 73.006 242.846C72.006 242.846 71.106 243.446 71.106 244.446C71.106 244.946 71.106 245.546 70.906 246.046C70.606 247.346 69.906 248.446 69.106 249.346C68.506 249.946 67.906 250.546 67.206 251.046C66.606 251.446 65.906 251.946 65.306 252.346C65.206 252.346 65.106 252.546 65.106 252.746L66.206 265.046C66.206 265.246 66.306 265.346 66.506 265.446C67.106 265.646 67.806 265.746 68.506 265.846C70.006 266.046 71.506 266.046 73.106 265.946C75.306 265.746 77.506 265.546 79.706 265.346C79.906 265.346 80.206 265.346 80.406 265.246C82.006 264.746 82.706 262.946 81.806 261.546C81.806 261.446 81.806 261.346 81.806 261.246C82.706 260.446 82.906 259.146 82.306 258.146C82.306 258.046 82.306 257.946 82.306 257.846C83.406 256.846 83.406 255.346 82.506 254.246C82.406 254.146 82.406 254.046 82.506 253.846V253.746Z" fill="#29C3FE"/>
<path d="M64.106 252.646C64.106 252.646 64.106 252.546 64.106 252.446C64.106 252.246 64.106 251.946 63.906 251.746C63.906 251.746 63.906 251.746 63.806 251.746C63.706 251.746 63.606 251.746 63.506 251.746C62.406 251.846 61.306 251.946 60.106 252.046C59.006 252.146 57.906 252.246 56.706 252.346C56.606 252.346 56.506 252.346 56.406 252.346C56.406 252.346 56.406 252.346 56.306 252.346C56.206 252.546 56.206 252.846 56.306 253.046C56.306 253.046 56.306 253.146 56.306 253.246C56.606 256.646 56.906 259.946 57.206 263.346C57.206 264.346 57.406 265.346 57.506 266.346C57.506 266.946 57.906 267.246 58.506 267.246C59.106 267.246 59.606 267.146 60.206 267.046C60.506 267.046 60.806 267.046 61.006 267.046H61.806C62.106 267.046 62.306 266.946 62.606 266.946C62.906 266.946 63.206 266.946 63.406 266.946C64.006 266.946 64.506 266.846 65.106 266.746C65.706 266.746 66.006 266.346 65.906 265.746C65.906 264.746 65.706 263.746 65.606 262.746C65.306 259.346 65.006 256.046 64.706 252.646H64.106Z" fill="#29C3FE"/>
<path d="M190.106 -6.35406L230.106 -12.9541C231.906 -13.2541 233.606 -12.0541 233.906 -10.2541L238.406 16.9459C238.706 18.7459 237.506 20.4459 235.706 20.7459L212.106 24.6459C210.306 24.9459 208.806 25.9459 207.706 27.4459C204.306 32.4459 200.506 37.5459 199.506 37.3459C198.606 37.1459 198.906 32.9459 199.506 28.6459C199.606 27.6459 198.806 26.8459 197.806 27.0459L195.606 27.4459C193.806 27.7459 192.106 26.5459 191.806 24.7459L187.306 -2.45406C187.006 -4.25406 188.206 -5.95406 190.006 -6.25406L190.106 -6.35406Z" fill="white"/>
<path d="M226.806 4.64595C227.206 3.84595 227.306 2.74595 226.706 2.04595C226.006 1.14595 225.206 0.845947 224.106 0.945947C222.706 1.14595 221.406 1.34595 220.006 1.64595C219.906 1.64595 219.806 1.64595 219.706 1.64595C219.706 1.44595 219.906 1.14595 219.906 0.945947C220.106 0.0459466 220.206 -0.854053 220.106 -1.75405C220.106 -2.25405 220.106 -2.85405 219.806 -3.35405C219.306 -4.85405 218.106 -5.65405 216.506 -5.65405C215.506 -5.65405 214.706 -4.95405 214.706 -3.85405C214.706 -3.35405 214.706 -2.75405 214.706 -2.25405C214.506 -0.954053 213.906 0.145947 213.106 1.14595C212.606 1.84595 211.906 2.44595 211.306 3.04595C210.706 3.54595 210.106 4.04595 209.506 4.44595C209.406 4.44595 209.306 4.74595 209.306 4.84595L211.306 17.0459C211.306 17.2459 211.506 17.3459 211.606 17.4459C212.306 17.5459 212.906 17.6459 213.606 17.7459C215.106 17.8459 216.706 17.7459 218.206 17.5459C220.406 17.2459 222.606 16.8459 224.806 16.4459C225.006 16.4459 225.306 16.4459 225.506 16.2459C227.106 15.6459 227.606 13.7459 226.706 12.4459C226.606 12.3459 226.706 12.2459 226.706 12.1459C227.606 11.2459 227.706 10.0459 227.006 8.94595C227.006 8.84595 227.006 8.74595 227.006 8.64595C228.006 7.64595 228.006 6.04595 227.006 5.04595C226.906 4.94595 226.906 4.84595 227.006 4.64595H226.806Z" fill="#29C3FE"/>
<path d="M208.406 4.74595C208.406 4.74595 208.406 4.64595 208.406 4.54595C208.406 4.34595 208.406 4.04595 208.106 3.84595C208.106 3.84595 208.106 3.84595 208.006 3.84595C207.906 3.84595 207.806 3.84595 207.706 3.84595C206.606 4.04595 205.506 4.24595 204.406 4.34595C203.306 4.44595 202.206 4.74595 201.106 4.84595C201.006 4.84595 200.906 4.84595 200.806 4.94595C200.806 4.94595 200.806 4.94595 200.706 4.94595C200.606 5.14595 200.706 5.44595 200.706 5.64595C200.706 5.64595 200.706 5.74595 200.706 5.84595C201.206 9.14595 201.806 12.5459 202.306 15.8459C202.506 16.8459 202.606 17.8459 202.806 18.8459C202.906 19.4459 203.306 19.7459 203.906 19.6459C204.506 19.6459 205.006 19.4459 205.606 19.3459C205.906 19.3459 206.106 19.3459 206.406 19.2459C206.706 19.2459 206.906 19.2459 207.206 19.1459C207.506 19.1459 207.706 19.1459 208.006 19.0459C208.306 19.0459 208.506 19.0459 208.806 18.9459C209.406 18.9459 209.906 18.7459 210.506 18.6459C211.106 18.5459 211.406 18.1459 211.306 17.5459C211.106 16.5459 211.006 15.5459 210.806 14.5459C210.306 11.2459 209.706 7.84595 209.206 4.54595L208.406 4.74595Z" fill="#29C3FE"/>
<path d="M111.206 20.746C112.906 29.546 107.206 38.046 98.406 39.746C89.606 41.446 81.106 35.746 79.406 26.946C77.706 18.146 83.406 9.64601 92.206 7.94601C101.006 6.24601 109.506 11.946 111.206 20.746Z" fill="#FFCF00"/>
<path d="M103.206 12.8459C99.7061 8.44591 95.5061 12.8459 97.1061 16.3459C98.3061 19.1459 102.306 22.6459 102.306 22.6459C102.706 22.3459 106.906 19.9459 108.606 17.4459C110.806 14.2459 107.506 9.14591 103.206 12.8459Z" fill="#EF3974"/>
<path d="M83.806 16.6458C85.406 11.2458 90.906 13.7458 90.806 17.6458C90.706 20.6458 88.306 25.4458 88.306 25.4458C87.806 25.4458 83.106 24.6458 80.506 22.9458C77.306 20.8458 78.406 14.8458 83.806 16.6458Z" fill="#EF3974"/>
<path d="M90.1061 28.1459C89.7061 28.1459 89.4061 28.5459 89.6061 29.0459C90.8061 31.6459 93.8061 33.1459 97.0061 32.5459C100.106 31.9459 102.406 29.4459 102.506 26.5459C102.506 26.0459 102.106 25.7459 101.706 25.9459C100.106 26.8459 98.2061 27.5459 96.1061 27.9459C94.0061 28.3459 92.0061 28.4459 90.1061 28.1459Z" fill="#622408"/>
<path d="M96.4061 29.7459C95.0061 30.0459 94.0061 31.0459 93.7061 32.3459C94.7061 32.6459 95.8061 32.6459 96.9061 32.4459C98.0061 32.2459 99.0061 31.7459 99.9061 31.1459C99.1061 30.0459 97.8061 29.4459 96.4061 29.7459Z" fill="#EC312B"/>
<path d="M291.306 147.846C291.706 156.746 284.806 164.346 275.906 164.846C267.006 165.246 259.406 158.346 258.906 149.446C258.506 140.546 265.406 132.946 274.306 132.446C283.206 132.046 290.806 138.946 291.306 147.846Z" fill="#FFCF00"/>
<path d="M284.606 138.946C281.706 134.046 277.006 137.846 278.006 141.546C278.806 144.446 282.306 148.546 282.306 148.546C282.806 148.346 287.206 146.546 289.206 144.246C291.806 141.446 289.306 135.846 284.506 138.946H284.606Z" fill="#EF3974"/>
<path d="M264.806 139.846C267.206 134.646 272.306 138.046 271.606 141.846C271.106 144.846 268.006 149.146 268.006 149.146C267.506 149.046 262.906 147.546 260.706 145.546C257.806 142.946 259.806 137.246 264.806 139.846Z" fill="#EF3974"/>
<path d="M269.406 152.246C269.006 152.146 268.606 152.546 268.806 153.046C269.606 155.746 272.406 157.746 275.606 157.546C278.806 157.346 281.406 155.246 281.906 152.446C281.906 151.946 281.606 151.546 281.206 151.746C279.506 152.446 277.506 152.846 275.306 152.946C273.206 153.046 271.206 152.846 269.306 152.346L269.406 152.246Z" fill="#622408"/>
<path d="M275.406 154.746C274.006 154.746 272.806 155.746 272.306 156.946C273.306 157.346 274.306 157.546 275.506 157.546C276.606 157.546 277.706 157.146 278.606 156.646C278.006 155.446 276.806 154.646 275.306 154.746H275.406Z" fill="#EC312B"/>
<path d="M68.4059 203.346C73.9059 218.346 66.2059 234.846 51.2059 240.346C36.2059 245.846 19.7059 238.146 14.2059 223.146C8.7059 208.146 16.4059 191.646 31.4059 186.146C46.4059 180.646 62.9059 188.346 68.4059 203.346Z" fill="#FFCF00"/>
<path d="M45.4058 225.846C45.0058 225.946 44.5058 225.846 44.3058 225.446C44.1058 225.046 44.2058 224.446 44.6058 224.246C45.5058 223.746 46.8058 222.346 46.8058 221.446C46.8058 221.246 46.8058 221.046 46.3058 220.746C45.4058 220.246 44.1058 221.546 43.5058 222.446C43.2058 222.846 42.7058 222.946 42.3058 222.646C41.9058 222.346 41.8058 221.846 42.1058 221.446C43.4058 219.546 45.5058 218.146 47.3058 219.246C48.4058 219.946 48.7058 220.846 48.6058 221.446C48.6058 223.346 46.5058 225.246 45.5058 225.746C45.5058 225.746 45.5058 225.746 45.4058 225.746V225.846Z" fill="#622408"/>
<path d="M48.8059 229.746C47.7059 230.146 46.3059 230.046 45.1059 229.746C44.6059 229.646 44.4059 229.146 44.5059 228.646C44.6059 228.146 45.1059 227.946 45.6059 228.046C46.7059 228.346 48.5059 228.546 48.8059 227.546C49.0059 227.046 48.8059 226.846 48.8059 226.746C48.2059 226.046 46.3059 225.846 45.3059 226.046C44.8059 226.046 44.3059 225.846 44.3059 225.346C44.3059 224.846 44.5059 224.346 45.0059 224.346C46.1059 224.146 48.9059 224.246 50.2059 225.646C50.6059 226.146 51.0059 226.946 50.6059 228.246C50.3059 229.146 49.7059 229.646 48.9059 229.946L48.8059 229.746Z" fill="#622408"/>
<path d="M49.2059 211.846C48.9059 211.946 48.5059 211.946 48.1059 211.846C47.4059 211.546 47.1059 210.646 47.4059 209.946C48.4059 207.746 51.5059 205.046 55.5059 206.946C56.2059 207.246 56.5059 208.146 56.2059 208.846C55.9059 209.546 55.0059 209.846 54.3059 209.546C51.4059 208.246 50.1059 210.846 49.9059 211.146C49.7059 211.546 49.4059 211.746 49.1059 211.846H49.2059Z" fill="#622408"/>
<path d="M33.706 215.046C34.506 217.146 33.706 219.246 32.206 219.846C30.606 220.446 28.706 219.246 28.006 217.146C27.206 215.046 28.006 212.946 29.506 212.346C31.106 211.746 33.006 212.946 33.706 215.046Z" fill="#622408"/>
<path d="M63.7059 215.246C70.3059 208.546 76.3059 216.546 73.1059 222.046C70.6059 226.346 63.5059 231.446 63.5059 231.446C62.8059 230.946 56.5059 226.246 54.1059 221.846C51.1059 216.246 57.3059 208.446 63.7059 215.246Z" fill="#EF3974"/>
<path d="M22.0059 211.046C21.6059 211.146 21.1059 210.946 21.0059 210.446C20.5059 208.546 20.7059 206.446 21.6059 204.646C22.5059 202.846 24.1059 201.546 26.0059 200.846C26.4059 200.746 26.9059 200.846 27.0059 201.346C27.1059 201.746 27.0059 202.246 26.5059 202.346C25.0059 202.846 23.7059 203.946 23.0059 205.346C22.3059 206.746 22.1059 208.446 22.5059 209.946C22.6059 210.346 22.4059 210.746 22.0059 210.946V211.046Z" fill="#622408"/>
<path d="M54.2058 203.246C54.0058 203.246 53.8058 203.246 53.7058 203.246C51.0058 202.246 48.8058 202.946 47.4058 205.046C47.1058 205.446 46.6058 205.546 46.3058 205.246C45.9058 204.946 45.8058 204.446 46.1058 204.146C47.9058 201.446 50.9058 200.546 54.3058 201.746C54.7058 201.946 54.9058 202.346 54.8058 202.746C54.8058 202.946 54.5058 203.146 54.3058 203.246H54.2058Z" fill="#622408"/>
<path d="M101.406 104.846C100.406 103.046 98.306 102.046 96.406 102.846C95.006 103.446 94.206 104.846 94.206 106.346C93.106 105.346 91.606 104.946 90.206 105.546C88.306 106.346 87.706 108.546 88.406 110.546C88.406 110.546 88.506 111.046 89.106 111.846C89.906 112.846 91.006 113.646 92.206 114.046L98.106 116.046C98.406 116.046 98.606 116.046 98.806 115.746L101.406 110.046C101.906 108.846 102.106 107.546 101.906 106.246C101.706 105.346 101.406 104.846 101.406 104.846Z" fill="#EF3974"/>
<path d="M226.706 93.646C226.906 92.146 226.106 90.546 224.606 90.246C223.506 90.046 222.406 90.446 221.806 91.346C221.606 90.246 220.906 89.346 219.806 89.146C218.306 88.846 217.006 89.846 216.506 91.346C216.506 91.346 216.306 91.746 216.406 92.446C216.406 93.446 216.706 94.346 217.306 95.146L220.006 98.946C220.106 99.146 220.306 99.146 220.506 99.046L224.606 96.746C225.406 96.246 226.106 95.546 226.506 94.646C226.806 94.046 226.806 93.646 226.806 93.646H226.706Z" fill="#EF3974"/>
</g>
</g>
<defs>
<filter id="filter0_d_297_962" x="0" y="-13" width="311.612" height="401.546" filterUnits="userSpaceOnUse" color-interpolation-filters="sRGB">
<feFlood flood-opacity="0" result="BackgroundImageFix"/>
<feColorMatrix in="SourceAlpha" type="matrix" values="0 0 0 0 0 0 0 0 0 0 0 0 0 0 0 0 0 0 127 0" result="hardAlpha"/>
<feOffset dy="4"/>
<feComposite in2="hardAlpha" operator="out"/>
<feColorMatrix type="matrix" values="0 0 0 0 0 0 0 0 0 0 0 0 0 0 0 0 0 0 0.25 0"/>
<feBlend mode="normal" in2="BackgroundImageFix" result="effect1_dropShadow_297_962"/>
<feBlend mode="normal" in="SourceGraphic" in2="effect1_dropShadow_297_962" result="shape"/>
</filter>
<clipPath id="clip0_297_962">
<rect width="311.6" height="397.5" fill="white"/>
</clipPath>
</defs>
</svg>
