<svg width="1126" height="174" viewBox="0 0 1126 174" fill="none" xmlns="http://www.w3.org/2000/svg">
<g clip-path="url(#clip0_277_205)">
<path d="M209.054 45.6225C188.86 27.1719 159.54 19.7485 132.767 22.2259C117.825 23.6002 102.293 27.9678 89.5595 36.1844C83.0126 39.4939 77.8886 42.7808 73.892 45.8165C68.4574 49.3631 63.7844 53.8993 59.9933 59.0969L46.6888 48.1658C46.9599 47.6832 46.1088 47.1952 45.7082 47.5219C44.4454 48.5897 43.3836 49.9285 42.2997 51.1434C41.3421 52.2081 40.2972 53.2116 39.4939 54.4278C33.2847 52.4625 27.6324 49.7592 21.93 46.6303C21.5896 46.4351 21.1697 46.5096 20.9216 46.8348C17.9663 51.1428 14.524 55.4349 12.1419 60.1012C12.0854 60.2135 12.1074 60.3374 12.1744 60.4278C11.974 60.5912 12.0109 60.9425 12.3381 61.0633C21.562 64.0784 31.086 66.6313 40.492 68.9494C41.0256 69.0847 41.2719 68.6064 41.1071 68.2523C41.883 67.1687 42.4799 65.938 43.1147 64.7772C43.7495 63.6164 44.4628 62.4673 44.9856 61.2497C48.5504 62.8153 52.192 64.2395 55.8787 65.6301C49.853 76.8994 47.6574 90.224 50.5608 102.848C49.8011 103.162 49.0459 103.5 48.2906 103.839C48.0974 100.167 47.4287 96.3998 46.6629 92.8035C46.7617 92.786 46.8561 92.7436 46.9505 92.7013C47.9413 92.3976 47.2009 91.0975 46.3221 91.458C35.2362 95.7522 23.7432 99.0449 12.704 103.459C12.4905 103.548 12.5548 103.766 12.7047 103.893L12.0801 104.106L12.1461 104.478C11.9846 104.43 11.7711 104.519 11.831 104.713C12.969 110.262 14.0215 115.904 15.4762 121.372C15.6444 122.032 16.6704 121.927 16.6548 121.265L16.7536 121.247C16.7783 121.243 16.8277 121.234 16.8771 121.225C25.0838 118.797 33.5547 115.274 41.2521 111.556C41.2595 112.603 41.3702 113.657 41.4518 114.69C41.5624 115.744 41.5249 116.825 41.9072 117.83C42.0561 118.238 42.8588 118.454 43.0019 117.968L43.1166 117.897C43.1704 117.913 43.2489 117.924 43.3142 117.862C46.7528 115.845 50.0645 113.545 53.3092 111.154C57.4815 121.022 64.5398 129.636 73.3194 135.747C72.0651 137.58 70.8645 139.429 69.7716 141.31L69.485 141.131C68.6773 140.456 67.8042 139.844 66.9806 139.224C66.0653 138.517 65.1544 137.835 64.1985 137.187C64.8559 136.584 63.7352 135.582 63.1024 136.18C56.2162 142.745 48.5432 149.041 42.3614 156.273C42.109 156.574 42.5587 156.954 42.849 156.723C43.2744 156.392 43.6997 156.061 44.125 155.73L43.427 156.391C43.427 156.391 45.6288 158.173 48.9023 160.25C46.9356 159.219 45.0546 158.096 43.23 156.86C42.8852 156.64 42.6389 157.119 42.959 157.343C48.929 161.549 56.2919 165.994 63.726 166.822C64.0648 166.864 64.2069 166.659 64.1876 166.407C66.2351 164.306 67.9564 161.802 69.7579 159.462C71.6203 157.036 73.5656 154.645 75.3116 152.137L75.7962 151.565C77.0864 152.231 78.3926 152.842 79.7031 153.479C79.898 153.572 80.1538 153.578 80.3471 153.518L80.5711 153.632C80.5711 153.632 80.5535 153.533 80.5474 153.355C80.6083 153.267 80.6648 153.155 80.6384 153.006C80.3457 148.917 80.6326 144.648 81.3279 140.383C92.2728 145.343 104.612 146.245 116.527 144.181C135.17 140.974 151.677 131.193 167.57 121.393C167.353 126.774 167.136 132.156 166.944 137.532C166.902 138.588 168.807 139.272 169.253 138.196C171.344 133.326 173.147 128.123 175.628 123.439C177.094 120.648 179.635 120.606 182.519 119.915C185.136 119.298 187.748 118.655 190.336 118.017C190.726 117.922 190.947 117.729 191.056 117.48C193.828 116.732 196.211 115.951 197.329 115.216L198.223 118.099C198.648 119.915 199.072 121.732 199.517 123.519C199.399 123.719 199.3 124.018 199.229 124.337C199.171 124.296 199.097 124.309 199.056 124.368C198.065 126.103 199.69 128.371 201.471 128.642C201.55 128.654 201.595 128.621 201.615 128.591C202.347 129.561 204.222 130.071 205.096 128.97C204.995 129.116 204.889 129.237 204.787 129.383C204.686 129.529 204.89 129.672 205 129.575C206.45 128.27 207.708 126.743 209.028 125.282C210.177 124.004 211.598 122.678 212.447 121.147C213.297 119.616 213.209 117.688 211.61 116.72C211.61 116.72 211.61 116.72 211.586 116.724C211.387 116.325 211.144 115.959 210.872 115.573C209.503 113.745 207.56 108.543 207.56 108.543C207.56 108.543 207.863 108.387 208.372 108.092C208.692 108.316 209.118 108.42 209.516 108.221C220.384 103.275 225.679 90.4742 225.669 79.075C225.66 65.9627 218.368 54.1688 208.942 45.5657L209.054 45.6225ZM164.827 25.5587C157.253 24.0911 148.693 23.2334 138.973 23.1693C147.336 22.9118 155.722 23.6471 163.896 25.3404C164.214 25.4117 164.504 25.4626 164.822 25.5339L164.827 25.5587ZM12.9736 60.337L15.2042 60.9892C14.4351 60.8189 13.6615 60.6239 12.8677 60.4581C12.9127 60.4245 12.9286 60.3706 12.9736 60.337ZM46.0849 93.1362L46.0629 93.0122C46.0717 93.0618 46.0761 93.0866 46.0849 93.1362ZM199.648 126.41C199.922 126.949 200.382 127.532 201.123 128.116C201.185 128.182 201.268 128.218 201.331 128.284C200.473 127.899 199.921 127.23 199.648 126.41ZM205.221 128.667C205.455 128.549 205.635 128.415 205.81 128.256C205.623 128.493 205.436 128.731 205.249 128.969C205.33 128.852 205.284 128.733 205.192 128.647L205.221 128.667ZM209.365 124.02L211.977 120.796C211.237 122.078 210 123.294 209.365 124.02ZM212.554 118.878C212.485 118.635 212.383 118.346 212.272 118.008C212.449 118.284 212.551 118.572 212.554 118.878Z" fill="#BBBCBF"/>
<path d="M56.2979 57.6565C56.2979 57.6565 51.1056 69.3147 50.4773 77.4019C49.849 85.4891 51.5779 95.2284 51.5779 95.2284L48.0162 96.5509L45.8694 84.4572L12.1135 96.6867L16.5488 113.921L41.2639 103.297L42.9207 110.62L54.4498 101.646C54.4498 101.646 57.1914 111.206 63.2326 118.109C69.2984 125.008 74.6225 127.872 74.6225 127.872L70.2169 134.201L63.5809 129.832L43.4895 148.992C43.4895 148.992 54.378 157.795 63.5524 158.953L76.0706 143.924L80.6336 146.233C80.6336 146.233 80.0478 133.172 81.4283 131.188C81.4283 131.188 98.167 143.81 125.409 133.785C152.626 123.764 168.777 111.541 168.777 111.541L168.983 130.217L176.353 113.315C176.353 113.315 193.768 110.224 197.471 107.828L199.913 115.703C199.913 115.703 197.923 118.127 201.152 120.672C204.356 123.222 206.574 120.068 206.574 120.068L212.8 112.367C212.8 112.367 212.382 110.013 211.013 108.185C209.644 106.358 207.701 101.155 207.701 101.155C207.701 101.155 216.872 96.4086 220.265 90.2592C223.658 84.1097 229.777 66.0495 219.795 52.5861C209.812 39.1226 187.981 11.4531 123.565 16.3181C70.7572 30.1658 60.8839 52.3433 60.8839 52.3433L46.3264 40.3821L39.6313 47.4501L21.8464 40.5609L12.9736 52.8724L40.2744 60.8332L44.8207 53.4309L56.2688 57.6361L56.2979 57.6565Z" fill="white"/>
<path d="M87.3903 69.0342C87.6011 69.0735 87.8323 69.0836 88.0431 69.1229C88.9522 58.4551 91.8036 48.1071 96.3652 38.3503C96.5506 37.9595 95.8989 37.5895 95.6931 38.0095C90.9032 47.6279 88.1336 58.2936 87.2624 69.0314C87.3118 69.0226 87.3365 69.0182 87.3859 69.0095L87.3903 69.0342Z" fill="#272525"/>
<path d="M114.418 61.2457C113.899 57.6056 113.129 53.9845 112.215 50.4146C111.362 47.1916 110.504 43.7907 109.002 40.7852C107.926 38.5989 106.315 36.5585 103.939 35.8044C101.857 35.126 99.5712 35.4551 98.0885 37.1498C97.9375 37.3044 98.2373 37.5579 98.3592 37.3829C100.393 35.2069 103.81 35.6485 105.937 37.4437C108.032 39.1936 109.027 41.9311 109.855 44.4427C111.754 50.113 113.072 55.9629 113.868 61.8801C115.435 73.4375 114.96 85.2554 112.417 96.6223C111.265 101.76 110.043 108.803 105.697 112.309C103.534 114.048 100.45 114.902 97.9014 113.463C95.6394 112.203 94.3826 109.716 93.4372 107.405C90.3162 99.7274 88.5532 91.3745 87.966 83.0429C87.6723 82.9672 87.428 82.8828 87.2199 82.7152C87.4591 86.0726 87.896 89.395 88.5058 92.6866C89.6005 98.4229 91.0143 104.665 93.7898 109.822C95.9165 113.764 99.8038 116.142 104.183 114.112C109.337 111.714 110.906 105.48 112.228 100.439C115.573 87.7029 116.294 74.2565 114.413 61.2209L114.418 61.2457Z" fill="#272525"/>
<path d="M103.966 32.2208C100.506 31.5314 96.874 32.8918 94.5264 35.4558C94.4002 35.606 94.6506 35.8683 94.7812 35.7429C97.433 33.4572 100.493 32.6073 103.943 32.8127C104.327 32.8213 104.255 32.2717 103.941 32.2252L103.966 32.2208Z" fill="#272525"/>
<path d="M193.384 70.3116C193.326 70.2708 193.272 70.2548 193.214 70.214C192.923 70.01 192.69 69.8469 192.46 69.5554C192.326 69.3747 192.257 69.1312 192.292 68.895C171.327 57.1511 149.431 47.0549 126.83 38.8733C120.236 36.4649 113.544 34.0741 106.755 32.2884C106.515 32.2287 106.523 32.5597 106.713 32.6281C118.446 36.8594 130.266 40.7174 141.831 45.4387C153.201 50.0667 164.375 55.1642 175.322 60.7109C181.511 63.8556 187.624 67.1419 193.68 70.5404C193.588 70.4544 193.496 70.3684 193.38 70.2868L193.384 70.3116Z" fill="#272525"/>
<path d="M105.066 117.509C101.314 118.763 97.5043 117.828 94.8151 114.88C94.6855 114.724 94.427 114.847 94.5654 115.052C96.9006 118.447 101.647 119.777 105.398 118.089C105.727 117.928 105.378 117.402 105.066 117.509Z" fill="#272525"/>
<path d="M194.897 84.7161C195.063 84.5076 195.205 84.3034 195.343 84.0744C173.105 93.0068 150.838 101.919 128.613 110.926C122.502 113.391 116.262 115.7 110.282 118.474C110.118 118.554 110.295 118.83 110.463 118.774C116.159 116.843 121.722 114.449 127.291 112.234C132.885 110.014 138.478 107.794 144.068 105.549C155.131 101.131 166.195 96.713 177.28 92.2658C182.988 89.9743 188.701 87.7076 194.385 85.4205C194.489 85.1464 194.709 84.9538 194.921 84.7117L194.897 84.7161Z" fill="#272525"/>
<path d="M193.069 70.112C193.069 70.112 193.069 70.112 193.039 70.0916C192.89 69.9649 192.644 70.1618 192.778 70.3425C195.876 74.4451 196.659 79.5721 194.409 84.2661C194.264 84.5985 194.775 84.8913 194.978 84.5997C194.978 84.5997 194.978 84.5997 194.998 84.5705C197.315 79.9669 196.646 73.8995 193.044 70.1164L193.069 70.112Z" fill="#272525"/>
<path d="M198.22 69.7088C198.149 69.5937 197.951 69.6288 197.998 69.7483C199.897 75.1373 200.117 80.1086 198.545 85.6026C198.469 85.8971 198.926 86.1739 199.046 85.8458C200.983 80.824 200.669 74.4634 198.211 69.6593L198.22 69.7088Z" fill="#272525"/>
<path d="M199.9 85.771C197.113 87.4415 194.063 87.6251 191.042 86.3975C190.876 86.3247 190.812 86.5405 190.954 86.6177C193.851 88.3017 197.492 88.1411 200.302 86.3131C200.646 86.0987 200.244 85.5565 199.9 85.771Z" fill="#272525"/>
<path d="M199.272 68.6016C196.737 67.2368 193.596 67.053 190.99 68.308C190.826 68.3883 190.998 68.6389 191.146 68.6126C191.631 68.4754 192.096 68.3673 192.566 68.284C192.611 68.2504 192.631 68.2212 192.676 68.1877C192.991 67.9528 193.399 67.957 193.711 68.1318C195.495 67.994 197.227 68.2746 199.014 69.1587C199.404 69.3451 199.588 68.8012 199.248 68.606L199.272 68.6016Z" fill="#272525"/>
<path d="M200.266 116.254C198.095 107.181 196.038 98.0366 193.624 89.0323C193.607 88.9332 193.396 88.8939 193.422 89.0426C195.297 98.1681 197.538 107.203 199.66 116.285C199.721 116.632 200.365 116.671 200.27 116.279L200.266 116.254Z" fill="#272525"/>
<path d="M203.777 119.669C202.795 114.859 201.46 110.06 200.281 105.284C199.161 100.703 198.112 96.0833 196.825 91.5571C196.807 91.458 196.605 91.4683 196.627 91.5922C197.584 96.4072 198.787 101.178 199.892 105.967C200.962 110.557 201.917 115.219 203.155 119.754C203.237 120.072 203.843 120.041 203.748 119.649L203.777 119.669Z" fill="#272525"/>
<path d="M203.121 119.709C202.766 119.286 202.325 118.956 201.909 118.621C201.459 118.24 201.009 117.86 200.519 117.538C200.403 117.456 200.218 117.566 200.319 117.701C200.674 118.124 201.045 118.493 201.416 118.861C201.821 119.275 202.23 119.714 202.7 120.065C202.937 120.253 203.351 120 203.096 119.713L203.121 119.709Z" fill="#272525"/>
<path d="M211.722 109.312C211.353 109.096 211.144 109.645 211.489 109.865C214.38 111.652 210.525 115.199 209.275 116.623C207.902 118.221 206.451 119.808 205.229 121.533C205.391 121.3 205.087 121.022 204.828 121.144C203.794 121.635 202.795 121.889 201.853 121.033C201.795 120.993 201.745 121.001 201.7 121.035C201.696 121.01 201.638 120.969 201.609 120.949C199.899 120.358 199.278 118.73 199.388 117.049C199.39 116.92 199.224 116.848 199.168 116.96C198.176 118.695 199.802 120.963 201.583 121.235C201.661 121.246 201.706 121.213 201.727 121.184C202.459 122.153 204.334 122.664 205.208 121.563C205.107 121.708 205.001 121.829 204.899 121.975C204.798 122.121 205.002 122.264 205.112 122.168C206.562 120.862 207.82 119.335 209.14 117.874C210.289 116.596 211.71 115.27 212.559 113.739C213.409 112.208 213.321 110.281 211.722 109.312Z" fill="#272525"/>
<path d="M211.513 108.991C209.067 105.693 207.159 102.121 206.334 98.049C205.937 96.1 205.763 94.1115 205.844 92.1288C205.914 90.2247 206.264 88.322 205.826 86.4313C205.752 86.0101 205.025 85.9346 205.113 86.4302C205.513 88.6854 205.043 90.9162 205.088 93.1832C205.132 95.2971 205.432 97.4167 206.02 99.4342C207.012 103.016 208.811 106.403 211.378 109.092C211.469 109.178 211.6 109.052 211.533 108.962L211.513 108.991Z" fill="#272525"/>
<path d="M196.748 87.2508C196.57 87.5381 196.541 87.9521 196.475 88.2962C196.388 88.6695 196.331 89.0631 196.323 89.448C196.308 89.655 196.62 89.8298 196.733 89.6053C196.898 89.2436 197.005 88.8412 197.116 88.4636C197.207 88.1151 197.352 87.7826 197.34 87.4269C197.336 87.1208 196.89 87.0466 196.752 87.2756L196.748 87.2508Z" fill="#272525"/>
<path d="M192.968 88.2027C192.812 87.898 192.59 87.6561 192.389 87.3851C192.164 87.1184 191.954 86.7977 191.683 86.5646C191.379 86.2863 190.859 86.6597 191.152 87.0168C191.377 87.2835 191.673 87.5122 191.944 87.7454C192.214 87.9785 192.456 88.1912 192.767 88.366C192.879 88.4229 193.039 88.3178 192.968 88.2027Z" fill="#272525"/>
<path d="M124.542 53.5432C122.967 47.6876 120.827 41.8046 117.824 36.5094C117.752 36.3943 117.534 36.4585 117.61 36.5984C122.186 46.4459 125.429 56.5301 126.489 67.385C127.543 78.3435 126.565 89.4837 123.526 100.069C121.878 105.858 119.572 111.38 116.743 116.688C116.553 117.054 117.2 117.399 117.415 117.029C127.829 97.8995 130.203 74.5226 124.567 53.5389L124.542 53.5432Z" fill="#272525"/>
<path d="M169.93 58.4725C169.789 58.3953 169.697 58.5907 169.788 58.6767C175.555 63.8904 179.442 70.7159 178.628 78.7595C177.876 86.1528 173.241 92.625 166.754 96.1283C166.336 96.3559 166.825 96.9593 167.198 96.7652C174.148 93.2821 178.988 85.9554 179.467 78.1759C179.917 70.8105 176.425 62.3301 169.906 58.4769L169.93 58.4725Z" fill="#272525"/>
<path d="M214.761 79.3492C210.036 81.4405 205.143 83.5873 200.625 86.1275C200.486 86.2034 200.633 86.4585 200.777 86.4074C205.645 84.5464 210.444 82.1605 215.109 79.8754C215.437 79.7149 215.049 79.2471 214.741 79.3784L214.761 79.3492Z" fill="#272525"/>
<path d="M212.723 63.9901C207.712 65.1864 202.562 66.1772 197.608 67.6956C197.485 67.7175 197.569 67.907 197.693 67.8851C202.824 67.0766 207.903 65.6893 212.952 64.5629C213.347 64.4928 213.064 63.9039 212.723 63.9901Z" fill="#272525"/>
<path d="M213.291 63.8892C213.273 63.7901 213.096 63.796 213.118 63.9199C214.064 68.9667 215.191 73.8793 215.545 79.0313C215.566 79.4366 216.235 79.4713 216.205 79.0164C215.84 73.9431 215.129 68.6499 213.315 63.8849L213.291 63.8892Z" fill="#272525"/>
<path d="M212.491 63.5454C211.661 63.4627 210.799 63.4878 209.962 63.5086C209.297 63.4987 208.608 63.4932 207.946 63.6364C207.915 63.4629 207.736 63.3157 207.534 63.326C202.152 64.1536 196.503 65.4887 191.571 67.8469C191.452 67.8936 191.586 68.0743 191.684 68.0568C197.042 66.5177 202.259 64.9015 207.763 63.8989C207.837 63.8857 207.862 63.8813 207.903 63.823C209.326 64.2349 211.124 64.1714 212.567 64.1198C212.971 64.0992 212.825 63.5627 212.462 63.525L212.491 63.5454Z" fill="#272525"/>
<path d="M214.581 70.1533C211.141 71.3008 207.681 72.4774 204.267 73.7735C204.144 73.7955 204.233 74.0097 204.352 73.963C207.839 72.9351 211.328 71.7789 214.763 70.6066C215.051 70.5044 214.844 70.0555 214.581 70.1533Z" fill="#272525"/>
<path d="M214.684 71.5918C211.828 72.5845 208.956 73.6311 206.156 74.7929C206.036 74.8396 206.121 75.0291 206.24 74.9824C209.143 74.1092 212.019 73.0874 214.866 72.0452C215.154 71.943 214.951 71.5188 214.684 71.5918Z" fill="#272525"/>
<path d="M214.689 75.0678C211.921 75.8403 209.063 76.9612 206.444 78.1419C206.325 78.1886 206.455 78.3445 206.553 78.327C209.346 77.5501 212.255 76.5735 214.903 75.4132C215.092 75.3286 214.887 75.0327 214.718 75.0882L214.689 75.0678Z" fill="#272525"/>
<path d="M216.028 76.4402C213.088 77.6779 210.182 78.9607 207.256 80.2726C207.161 80.315 207.266 80.4753 207.36 80.433C210.318 79.2945 213.266 78.1064 216.211 76.8936C216.494 76.7666 216.287 76.3177 216.028 76.4402Z" fill="#272525"/>
<path d="M206.498 72.9938C206.431 72.9034 206.283 72.9297 206.301 73.0289C206.351 73.4545 206.562 73.9283 206.756 74.3028C206.841 74.4923 207.162 74.4353 207.098 74.2167C206.949 73.8085 206.787 73.326 206.519 72.9646L206.498 72.9938Z" fill="#272525"/>
<path d="M208.007 77.7619C207.985 77.638 207.812 77.6687 207.81 77.797C207.837 78.3801 207.902 79.0332 208.052 79.5944C208.088 79.7927 208.438 79.7561 208.423 79.5286C208.371 78.9499 208.207 78.3143 208.003 77.7371L208.007 77.7619Z" fill="#272525"/>
<path d="M102.615 85.7599C100.088 85.1604 97.5425 84.7431 94.9881 84.2763C92.6939 83.84 90.3574 83.3089 88.0374 83.1583C88.0984 83.0708 88.1011 82.9425 87.9759 82.8114C84.682 78.897 84.1984 73.589 86.7772 69.169C91.6955 68.1681 96.6544 67.1089 101.533 65.885C101.731 65.8499 101.579 65.57 101.406 65.6007C96.3424 66.4996 91.2759 67.5268 86.272 68.6196C85.9015 68.6854 86.1173 69.1839 86.427 69.2056C83.4117 73.3197 83.8561 79.5549 87.4852 83.2052C87.606 83.3116 87.7339 83.3144 87.853 83.2677C87.8618 83.3173 87.8909 83.3377 87.9447 83.3537C90.3005 84.137 92.7924 84.5382 95.2233 85.027C97.6542 85.5157 100.074 86.0832 102.512 86.4684C103.007 86.5338 103.041 85.8632 102.59 85.7642L102.615 85.7599Z" fill="#272525"/>
<path d="M113.566 62.9052C110.026 63.6358 106.433 64.3503 102.958 65.2995C102.81 65.3258 102.903 65.5649 103.002 65.5474C106.635 65.0559 110.215 64.267 113.804 63.5276C114.224 63.4531 113.932 62.8147 113.541 62.9096L113.566 62.9052Z" fill="#272525"/>
<path d="M114.042 87.6935C110.941 87.017 107.657 86.603 104.507 86.3697C104.276 86.3596 104.313 86.711 104.524 86.7502C107.609 87.4807 110.899 88.0726 114.082 88.351C114.495 88.38 114.41 87.7561 114.067 87.6892L114.042 87.6935Z" fill="#272525"/>
<path d="M94.6776 74.4896C94.638 72.4004 93.8046 70.1455 91.9235 69.0223C90.3 68.0579 88.248 68.2688 86.9727 69.6966C86.7203 69.997 87.2282 70.4181 87.485 70.1425C88.868 68.7467 90.9436 68.8128 92.3773 70.1432C93.9653 71.6251 94.2174 73.9066 93.9968 75.9653C93.6673 78.9891 91.6026 84.0081 87.6252 81.6977C87.5132 81.6408 87.4364 81.7823 87.5281 81.8683C88.8904 83.0835 90.7695 82.9034 92.1514 81.7889C94.1546 80.1552 94.7338 76.9592 94.682 74.5143L94.6776 74.4896Z" fill="#272525"/>
<path d="M102.133 66.3918C102.086 66.2723 101.864 66.3117 101.91 66.4313C104.095 72.9966 104.008 79.2495 101.567 85.7412C101.427 86.0984 102.02 86.4276 102.185 86.066C104.862 80.0437 104.856 72.4014 102.133 66.3918Z" fill="#272525"/>
<path d="M92.9133 112.636C87.5442 104.207 84.8289 94.7965 85.04 84.7895C85.0542 84.5825 84.7023 84.466 84.6925 84.6978C84.0219 94.5564 86.7588 104.807 92.3354 112.969C92.6078 113.355 93.161 113.027 92.8842 112.616L92.9133 112.636Z" fill="#272525"/>
<path d="M93.9412 35.8921C87.0347 46.2186 84.5947 59.4588 85.2808 71.505C85.3001 71.7572 85.7376 71.7818 85.7386 71.5004C85.5473 65.3992 86.247 59.2933 87.7944 53.3692C89.3488 47.3416 91.958 41.9447 94.7719 36.4093C94.982 36.0141 94.2254 35.4838 93.9659 35.8877L93.9412 35.8921Z" fill="#272525"/>
<path d="M107.113 40.0468C103.23 41.4263 101.795 45.9755 100.643 49.5289C98.9748 54.6309 98.1414 59.8403 97.7137 65.1822C97.7066 65.2857 97.8971 65.3541 97.8998 65.2258C98.2964 60.4263 99.3571 55.6366 100.783 51.0378C101.95 47.2774 103.321 42.2281 107.346 40.6444C107.728 40.4999 107.45 39.9359 107.113 40.0468Z" fill="#272525"/>
<path d="M106.501 111.093C101.568 112.301 100.092 104.562 99.3415 101.193C98.4339 97.0849 98.1527 92.917 98.2958 88.6992C98.2941 88.5461 98.0454 88.4369 98.0312 88.6439C97.4915 93.929 98.0377 99.3026 99.505 104.41C100.398 107.575 102.363 113.336 106.806 111.806C107.286 111.644 106.936 110.965 106.496 111.068L106.501 111.093Z" fill="#272525"/>
<path d="M60.5598 53.2447C65.4641 46.1367 71.9982 40.171 79.679 36.0723C80.1669 35.8067 79.6353 35.1086 79.1924 35.3406C71.1756 39.2689 64.4439 45.2697 59.4001 52.4536C59.8031 52.7143 60.1567 52.9839 60.5351 53.249L60.5598 53.2447Z" fill="#272525"/>
<path d="M51.3631 96.3148C51.806 96.0828 52.2534 95.8756 52.7051 95.6931C50.4545 86.8899 50.4862 77.4516 53.2929 68.2875C54.4078 64.6641 55.8791 61.182 57.6907 57.8951C57.2559 57.7422 56.7876 57.5441 56.4093 57.279C49.8364 69.0544 47.5011 83.1708 50.8779 96.452C51.0508 96.4214 51.2149 96.3411 51.3878 96.3104L51.3631 96.3148Z" fill="#272525"/>
<path d="M74.2551 128.96C74.558 128.369 74.9437 127.815 75.363 127.306C65.7736 121.084 58.54 111.913 54.5761 101.496C54.074 101.969 53.5471 102.446 52.9824 102.853C57.2329 113.448 64.8008 122.637 74.2798 128.955L74.2551 128.96Z" fill="#272525"/>
<path d="M189.659 108.32C186.607 109.067 183.579 109.809 180.526 110.555C178.77 110.995 176.011 111.101 174.627 112.344C173.879 113.013 173.448 115.033 173.038 116.026C172.334 117.659 171.606 119.296 170.902 120.929L169.748 123.614C169.91 119.648 170.052 115.712 170.215 111.747C170.242 110.898 169.006 110.248 168.318 110.677C143.354 126.075 111.797 144.663 81.9745 130.964C81.5847 130.777 81.1948 130.591 80.8006 130.38C80.805 130.404 80.7847 130.434 80.7688 130.487C80.9072 130.693 80.9759 130.936 80.9052 131.256C80.8318 131.703 80.7337 132.155 80.6311 132.583C91.7611 137.867 104.419 138.841 116.61 136.753C135.253 133.546 151.76 123.765 167.653 113.965C167.436 119.346 167.219 124.727 167.027 130.104C166.985 131.16 168.89 131.844 169.336 130.768C171.427 125.898 173.23 120.695 175.711 116.011C177.177 113.22 179.718 113.178 182.602 112.487C185.219 111.869 187.831 111.227 190.418 110.589C192.006 110.204 191.049 107.971 189.63 108.3L189.659 108.32Z" fill="#272525"/>
<path d="M209.054 38.158C188.86 19.7074 159.54 12.284 132.767 14.7615C117.298 16.1783 101.154 20.8334 88.2165 29.623C87.8971 29.8331 88.2321 30.2849 88.5603 30.1244C100.034 23.9975 111.779 19.254 124.7 17.1138C137.67 14.9648 151.042 15.2241 163.93 17.9212C187.691 22.8803 217.282 38.0012 222.83 64.0876C225.703 77.6884 220.501 91.879 208.499 99.0456C207.322 99.74 208.573 101.333 209.682 100.829C220.55 95.8838 225.845 83.0825 225.834 71.6833C225.825 58.5711 218.534 46.7772 209.108 38.1741L209.054 38.158Z" fill="#272525"/>
<path d="M73.7674 63.6303C64.7891 55.9702 55.9644 48.0273 46.6119 40.8427C46.6119 40.8427 46.6525 40.7843 46.6728 40.7552C47.0674 40.2505 46.1538 39.697 45.7328 40.0529C44.47 41.1206 43.4082 42.4595 42.3244 43.6744C41.3668 44.7391 40.3219 45.7426 39.5186 46.9588C33.3093 44.9935 27.657 42.2902 21.9546 39.1612C21.6142 38.966 21.1943 39.0406 20.9463 39.3658C17.9909 43.6737 14.5486 47.9659 12.1665 52.6322C12.11 52.7445 12.132 52.8684 12.199 52.9588C11.9987 53.1221 12.0355 53.4735 12.3628 53.5943C21.5866 56.6094 31.1107 59.1622 40.5166 61.4804C41.0502 61.6157 41.2966 61.1374 41.1318 60.7832C41.9076 59.6997 42.5045 58.4689 43.1393 57.3082C43.7741 56.1474 44.4874 54.9983 45.0102 53.7807C53.379 57.4333 62.145 60.453 70.7585 63.4742C70.9781 63.563 71.1554 63.5571 71.3239 63.5016C71.7736 63.8819 72.2233 64.2622 72.6484 64.6469C73.4314 65.3259 74.5998 64.3005 73.763 63.6055L73.7674 63.6303ZM45.0927 52.6668C44.7956 52.285 44.1588 52.1424 43.8428 52.6586C43.0324 53.9784 42.4504 55.4366 41.7811 56.8335C41.2407 57.952 40.6553 59.104 40.2516 60.2748C31.2375 57.5804 22.0681 55.0157 12.8923 52.9891C16.2876 49.2932 19.0145 44.8469 21.9018 40.73C27.3129 44.3708 33.6074 46.96 39.8556 48.714C40.9026 49.0138 41.1925 47.633 40.3053 47.2282C41.4913 46.3019 42.5301 45.1205 43.5662 44.0674C44.4311 43.1981 45.3251 42.3492 46.1274 41.4144C53.1275 48.1219 60.5803 54.3655 67.9882 60.6427C60.4491 57.7887 52.7821 54.9318 45.0927 52.6668Z" fill="#272525"/>
<path d="M65.2893 90.3659C59.6933 91.9983 53.663 93.9123 48.3444 96.3902C48.1512 92.7179 47.4825 88.951 46.7167 85.3548C46.8155 85.3372 46.9099 85.2949 47.0043 85.2526C47.9951 84.9489 47.2547 83.6488 46.376 84.0093C35.2901 88.3034 23.7971 91.5962 12.7579 96.0099C12.4499 96.1412 12.7355 96.6018 13.0029 96.5288C24.1456 93.2726 34.9757 88.9728 46.0877 85.5431C46.1371 89.2666 46.3162 93.1459 46.9919 96.8093C47.1019 97.4288 47.9875 97.6806 48.2673 97.2475C48.292 97.2431 48.3167 97.2388 48.3414 97.2344C54.2346 95.9837 60.2993 93.8335 65.9309 91.6835C66.7647 91.3565 66.0084 90.1104 65.2559 90.3207L65.2893 90.3659Z" fill="#272525"/>
<path d="M66.3904 91.8324C58.6427 97.7068 50.1443 103.229 43.0534 109.932C43.0388 108.989 42.7887 108.011 42.6216 107.069C42.4236 105.954 42.2256 104.839 41.9289 103.741C41.9069 103.617 41.8196 103.556 41.712 103.524C41.6504 103.177 41.2792 102.809 40.8971 102.953C32.7565 105.753 24.1647 109.17 16.6118 113.271C16.6118 113.271 16.6118 113.271 16.5871 113.276C15.4261 107.884 13.8945 102.557 12.4415 97.2423C12.364 96.9493 11.7783 96.951 11.8645 97.2936C13.0026 102.843 14.055 108.485 15.5097 113.953C15.6823 114.638 16.7533 114.499 16.7042 113.792C16.7624 113.833 16.8365 113.819 16.9106 113.806C25.1173 111.378 33.5882 107.855 41.2856 104.137C41.2931 105.183 41.4037 106.237 41.51 107.267C41.5959 108.325 41.5831 109.401 41.9655 110.407C42.1188 110.84 42.9999 111.067 43.0672 110.441C43.0672 110.441 43.0672 110.441 43.0628 110.416C43.1501 110.478 43.2533 110.485 43.3477 110.443C51.8643 105.454 59.624 98.7852 67.5491 92.9049C68.2938 92.3637 67.1149 91.3203 66.4195 91.8528L66.3904 91.8324Z" fill="#272525"/>
<path d="M82.2637 116.086C78.0753 121.916 73.3709 127.711 69.7892 133.945C68.9145 133.18 67.9295 132.511 67.0432 131.825C66.1279 131.118 65.217 130.436 64.2611 129.788C64.9185 129.185 63.7978 128.183 63.1651 128.781C56.2788 135.346 48.6058 141.642 42.424 148.874C42.1716 149.175 42.6213 149.555 42.9116 149.325C50.3444 143.685 56.9654 136.63 63.7836 130.256C64.7094 131.165 65.7006 132.012 66.6626 132.838C67.6828 133.705 68.6421 134.66 69.7638 135.381C70.3371 135.739 70.8737 135.03 70.4064 134.551C70.3729 134.506 70.3147 134.465 70.2565 134.424C75.0763 128.993 79.0938 122.63 83.3475 116.737C83.7783 116.149 82.6741 115.527 82.2434 116.115L82.2637 116.086Z" fill="#272525"/>
<path d="M84.9599 113.332C83.1594 119.122 81.7065 125.004 80.8119 131.017C80.4004 133.723 80.0966 136.461 79.9207 139.202C79.8594 140.005 80.0253 143.81 79.5752 144.145C78.6098 144.879 76.7315 143.628 75.6422 143.233C75.3715 143 74.9499 142.921 74.7222 143.218C72.8263 145.599 71.0803 148.107 69.3052 150.595C67.4648 153.146 65.3932 155.687 63.8438 158.441C60.1369 157.08 56.3203 156.249 52.6973 154.643C49.4349 153.202 46.2477 151.468 43.2927 149.461C42.9479 149.241 42.7015 149.72 43.0216 149.944C48.9917 154.15 56.3545 158.595 63.7887 159.423C64.1274 159.465 64.2695 159.261 64.2502 159.008C66.2977 156.907 68.019 154.403 69.8205 152.063C71.8295 149.457 73.9416 146.858 75.8006 144.125C77.1156 144.787 78.4508 145.419 79.7614 146.055C80.1512 146.242 80.7643 146.107 80.7169 145.553C79.9375 135.134 83.0965 123.505 86.5157 113.772C86.8196 112.9 85.2505 112.386 84.9599 113.332Z" fill="#272525"/>
</g>
<path d="M1128 74L224 72" stroke="#272525" stroke-width="3"/>
<defs>
<clipPath id="clip0_277_205">
<rect width="216.959" height="138.13" fill="white" transform="translate(0 37.9204) rotate(-10.066)"/>
</clipPath>
</defs>
</svg>
